999
dxflib 3.7.0.0
  0
SECTION
  2
HEADER
  9
$ACADVER
  1
AC1015
  9
$HANDSEED
  5
FFFF
  9
$DIMADEC
 70
0
  9
$DIMASZ
 40
2.5
  9
$DIMAUNIT
 70
0
  9
$DIMAZIN
 70
2
  9
$DIMDEC
 70
4
  9
$DIMEXE
 40
1.25
  9
$DIMEXO
 40
0.625
  9
$DIMGAP
 40
0.625
  9
$DIMLUNIT
 70
2
  9
$DIMSCALE
 40
1.0
  9
$DIMTSZ
 40
0.0
  9
$DIMTXT
 40
2.5
  9
$DIMZIN
 70
8
  9
$DWGCODEPAGE
  3
ANSI_1252
  9
$INSUNITS
 70
4
  9
$LTSCALE
 40
1
  0
ENDSEC
  0
SECTION
  2
TABLES
  0
TABLE
  2
VPORT
  5
8
100
AcDbSymbolTable
 70
1
  0
VPORT
  5
30
100
AcDbSymbolTableRecord
100
AcDbViewportTableRecord
  2
*Active
 70
0
 10
0.0
 20
0.0
 11
1.0
 21
1.0
 12
286.3055555555554861
 22
148.5
 13
0.0
 23
0.0
 14
10.0
 24
10.0
 15
10.0
 25
10.0
 16
0.0
 26
0.0
 36
1.0
 17
0.0
 27
0.0
 37
0.0
 40
297.0
 41
1.92798353909465
 42
50.0
 43
0.0
 44
0.0
 50
0.0
 51
0.0
 71
0
 72
100
 73
1
 74
3
 75
1
 76
1
 77
0
 78
0
281
0
 65
1
110
0.0
120
0.0
130
0.0
111
1.0
121
0.0
131
0.0
112
0.0
122
1.0
132
0.0
 79
0
146
0.0
  0
ENDTAB
  0
TABLE
  2
LTYPE
  5
5
100
AcDbSymbolTable
 70
3
  0
LTYPE
  5
16
100
AcDbSymbolTableRecord
100
AcDbLinetypeTableRecord
  2
Continuous
 70
0
  3
Solid line
 72
65
 73
0
 40
0.0
  0
LTYPE
  5
15
100
AcDbSymbolTableRecord
100
AcDbLinetypeTableRecord
  2
ByLayer
 70
0
  3

 72
65
 73
0
 40
0.0
  0
LTYPE
  5
14
100
AcDbSymbolTableRecord
100
AcDbLinetypeTableRecord
  2
BYBLOCK
 70
0
  3

 72
65
 73
0
 40
0.0
  0
ENDTAB
  0
TABLE
  2
LAYER
  5
2
100
AcDbSymbolTable
 70
1
  0
LAYER
  5
10
100
AcDbSymbolTableRecord
100
AcDbLayerTableRecord
  2
0
 70
0
 62
7
420
16777215
  6
Continuous
370
5
390
F
  0
ENDTAB
  0
TABLE
  2
STYLE
  5
3
100
AcDbSymbolTable
 70
1
  0
STYLE
  5
31
100
AcDbSymbolTableRecord
100
AcDbTextStyleTableRecord
  2
Standard
 70
0
 40
0.0
 41
1.0
 50
0.0
 71
0
 42
2.5
  3

  4

1001
ACAD
1000
txt
1071
0
  0
ENDTAB
  0
TABLE
  2
VIEW
  5
6
100
AcDbSymbolTable
 70
0
  0
ENDTAB
  0
TABLE
  2
UCS
  5
7
100
AcDbSymbolTable
 70
0
  0
ENDTAB
  0
TABLE
  2
APPID
  5
9
100
AcDbSymbolTable
 70
1
  0
APPID
  5
12
100
AcDbSymbolTableRecord
100
AcDbRegAppTableRecord
  2
ACAD
 70
0
  0
APPID
  5
32
100
AcDbSymbolTableRecord
100
AcDbRegAppTableRecord
  2
QCAD
 70
0
  0
ENDTAB
  0
TABLE
  2
DIMSTYLE
  5
A
100
AcDbSymbolTable
 70
1
100
AcDbDimStyleTable
 71
0
  0
DIMSTYLE
105
27
100
AcDbSymbolTableRecord
100
AcDbDimStyleTableRecord
  2
Standard
 41
2.5
 42
0.625
 43
3.75
 44
1.25
 70
0
 73
0
 74
0
 77
1
 78
8
140
2.5
141
2.5
143
0.03937007874016
147
0.625
171
3
172
1
271
2
272
2
274
3
278
44
283
0
284
8
340
31
  0
ENDTAB
  0
TABLE
  2
BLOCK_RECORD
  5
1
100
AcDbSymbolTable
 70
1
  0
BLOCK_RECORD
  5
1F
100
AcDbSymbolTableRecord
100
AcDbBlockTableRecord
  2
*Model_Space
340
22
  0
BLOCK_RECORD
  5
1B
100
AcDbSymbolTableRecord
100
AcDbBlockTableRecord
  2
*Paper_Space
340
1E
  0
BLOCK_RECORD
  5
23
100
AcDbSymbolTableRecord
100
AcDbBlockTableRecord
  2
*Paper_Space0
340
26
  0
ENDTAB
  0
ENDSEC
  0
SECTION
  2
BLOCKS
  0
BLOCK
  5
20
100
AcDbEntity
  8
0
100
AcDbBlockBegin
  2
*Model_Space
 70
0
 10
0.0
 20
0.0
 30
0.0
  3
*Model_Space
  1

  0
ENDBLK
  5
21
100
AcDbEntity
  8
0
100
AcDbBlockEnd
  0
BLOCK
  5
1C
100
AcDbEntity
 67
1
  8
0
100
AcDbBlockBegin
  2
*Paper_Space
 70
0
 10
0.0
 20
0.0
 30
0.0
  3
*Paper_Space
  1

  0
ENDBLK
  5
1D
100
AcDbEntity
 67
1
  8
0
100
AcDbBlockEnd
  0
BLOCK
  5
24
100
AcDbEntity
  8
0
100
AcDbBlockBegin
  2
*Paper_Space0
 70
0
 10
0.0
 20
0.0
 30
0.0
  3
*Paper_Space0
  1

  0
ENDBLK
  5
25
100
AcDbEntity
  8
0
100
AcDbBlockEnd
  0
ENDSEC
  0
SECTION
  2
ENTITIES
  0
ARC
  5
33
100
AcDbEntity
  8
0
 62
256
370
-1
 48
1.0
  6
ByLayer
100
AcDbCircle
 10
4.179000000000002
 20
-0.0000077079386429
 30
0.0
 40
9.7789999999999999
100
AcDbArc
 50
178.9826957710000102
 51
181.0172139059999949
  0
ARC
  5
34
100
AcDbEntity
  8
0
 62
256
370
-1
 48
1.0
  6
ByLayer
100
AcDbCircle
 10
-5.2937066738000027
 20
-0.1682002630170008
 30
0.0
 40
0.3048
100
AcDbArc
 50
181.017301003
 51
255.8064935480000202
  0
LINE
  5
35
100
AcDbEntity
100
AcDbLine
  8
0
 62
256
370
-1
 48
1.0
  6
ByLayer
 10
-4.960070720400001
 20
-0.5669804742829996
 30
0.0
 11
-4.8299451739000006
 21
-1.2630906647099991
 31
0.0
  0
LINE
  5
36
100
AcDbEntity
100
AcDbLine
  8
0
 62
256
370
-1
 48
1.0
  6
ByLayer
 10
-5.3684428756000031
 20
-0.4636956764069993
 30
0.0
 11
-4.960070720400001
 21
-0.5669804742829996
 31
0.0
  0
ARC
  5
37
100
AcDbEntity
  8
0
 62
256
370
-1
 48
1.0
  6
ByLayer
100
AcDbCircle
 10
-5.2937066738000027
 20
0.1682002630170008
 30
0.0
 40
0.3048
100
AcDbArc
 50
104.1935064519999941
 51
178.982698997
  0
LINE
  5
38
100
AcDbEntity
100
AcDbLine
  8
0
 62
256
370
-1
 48
1.0
  6
ByLayer
 10
-5.3684428756000031
 20
0.4636956764069993
 30
0.0
 11
-4.960070720400001
 21
0.5669804742829996
 31
0.0
  0
ARC
  5
39
100
AcDbEntity
  8
0
 62
256
370
-1
 48
1.0
  6
ByLayer
100
AcDbCircle
 10
3.8968042310999991
 20
1.5096217356799997
 30
0.0
 40
9.7789999999999999
100
AcDbArc
 50
200.1591663609999898
 51
202.1936844959999746
  0
ARC
  5
3A
100
AcDbEntity
  8
0
 62
256
370
-1
 48
1.0
  6
ByLayer
100
AcDbCircle
 10
-4.8754735205999999
 20
-2.0691494935300003
 30
0.0
 40
0.3048
100
AcDbArc
 50
202.1937715930000081
 51
276.9829641379999998
  0
LINE
  5
3B
100
AcDbEntity
100
AcDbLine
  8
0
 62
256
370
-1
 48
1.0
  6
ByLayer
 10
-4.420311231400003
 20
-2.32047775847
 30
0.0
 11
-4.0475087678000001
 21
-2.9225744103900002
 31
0.0
  0
LINE
  5
3C
100
AcDbEntity
100
AcDbLine
  8
0
 62
256
370
-1
 48
1.0
  6
ByLayer
 10
-4.8384176978000006
 20
-2.3716885904999998
 30
0.0
 11
-4.420311231400003
 21
-2.32047775847
 31
0.0
  0
ARC
  5
3D
100
AcDbEntity
  8
0
 62
256
370
-1
 48
1.0
  6
ByLayer
100
AcDbCircle
 10
-4.9969954071000018
 20
-1.7554653450500002
 30
0.0
 40
0.3048
100
AcDbArc
 50
125.3699770420000164
 51
200.1591695870000081
  0
LINE
  5
3E
100
AcDbEntity
100
AcDbLine
  8
0
 62
256
370
-1
 48
1.0
  6
ByLayer
 10
-5.1734300953000023
 20
-1.5069219082200007
 30
0.0
 11
-4.8299451739000006
 21
-1.2630906647099991
 31
0.0
  0
ARC
  5
3F
100
AcDbEntity
  8
0
 62
256
370
-1
 48
1.0
  6
ByLayer
100
AcDbCircle
 10
3.0883234576999996
 20
2.8153683987499996
 30
0.0
 40
9.7789999999999999
100
AcDbArc
 50
221.3356369509999979
 51
223.3701550859999827
  0
ARC
  5
40
100
AcDbEntity
  8
0
 62
256
370
-1
 48
1.0
  6
ByLayer
100
AcDbCircle
 10
-3.7987806524000014
 20
-3.6906486193400001
 30
0.0
 40
0.3048
100
AcDbArc
 50
223.3702421830000162
 51
298.1594347280000648
  0
LINE
  5
41
100
AcDbEntity
100
AcDbLine
  8
0
 62
256
370
-1
 48
1.0
  6
ByLayer
 10
-3.2835642165999985
 20
-3.76058166311
 30
0.0
 11
-2.7184338746000023
 21
-4.1873482873299999
 31
0.0
  0
LINE
  5
42
100
AcDbEntity
100
AcDbLine
  8
0
 62
256
370
-1
 48
1.0
  6
ByLayer
 10
-3.6549373992000014
 20
-3.9593718184100002
 30
0.0
 11
-3.2835642165999985
 21
-3.76058166311
 31
0.0
  0
ARC
  5
43
100
AcDbEntity
  8
0
 62
256
370
-1
 48
1.0
  6
ByLayer
100
AcDbCircle
 10
-4.0254122213000016
 20
-3.44204563086
 30
0.0
 40
0.3048
100
AcDbArc
 50
146.546447631999996
 51
221.3356401769999877
  0
LINE
  5
44
100
AcDbEntity
100
AcDbLine
  8
0
 62
256
370
-1
 48
1.0
  6
ByLayer
 10
-4.2797169136000015
 20
-3.2740213389699999
 30
0.0
 11
-4.0475087678000001
 21
-2.9225744103900002
 31
0.0
  0
ARC
  5
45
100
AcDbEntity
  8
0
 62
256
370
-1
 48
1.0
  6
ByLayer
100
AcDbCircle
 10
1.8627474883000019
 20
3.7408839590199996
 30
0.0
 40
9.7789999999999999
100
AcDbArc
 50
242.5121075410000344
 51
244.5466256759999908
  0
ARC
  5
46
100
AcDbEntity
  8
0
 62
256
370
-1
 48
1.0
  6
ByLayer
100
AcDbCircle
 10
-2.2090414072000044
 20
-4.8137051984400001
 30
0.0
 40
0.3048
100
AcDbArc
 50
244.5467127730000243
 51
319.3359053180000728
  0
LINE
  5
47
100
AcDbEntity
100
AcDbLine
  8
0
 62
256
370
-1
 48
1.0
  6
ByLayer
 10
-1.7033536595000029
 20
-4.6927981759600002
 30
0.0
 11
-1.0222194231000046
 21
-4.8865975750699997
 31
0.0
  0
LINE
  5
48
100
AcDbEntity
100
AcDbLine
  8
0
 62
256
370
-1
 48
1.0
  6
ByLayer
 10
-1.9778375520999987
 20
-5.0123199425299996
 30
0.0
 11
-1.7033536595000029
 21
-4.6927981759600002
 31
0.0
  0
ARC
  5
49
100
AcDbEntity
  8
0
 62
256
370
-1
 48
1.0
  6
ByLayer
100
AcDbCircle
 10
-2.510174809300004
 20
-4.6637585811099997
 30
0.0
 40
0.3048
100
AcDbArc
 50
167.7229182220000041
 51
242.5121107669999958
  0
LINE
  5
4A
100
AcDbEntity
100
AcDbLine
  8
0
 62
256
370
-1
 48
1.0
  6
ByLayer
 10
-2.8080042479000014
 20
-4.59894604584
 30
0.0
 11
-2.7184338746000023
 21
-4.1873482873299999
 31
0.0
  0
ARC
  5
4B
100
AcDbEntity
  8
0
 62
256
370
-1
 48
1.0
  6
ByLayer
100
AcDbCircle
 10
0.3855971487000005
 20
4.1611724115800008
 30
0.0
 40
9.7789999999999999
100
AcDbArc
 50
263.6885781309999857
 51
265.7230962660000273
  0
ARC
  5
4C
100
AcDbEntity
  8
0
 62
256
370
-1
 48
1.0
  6
ByLayer
100
AcDbCircle
 10
-0.3209588793000009
 20
-5.2866442167100001
 30
0.0
 40
0.3048
100
AcDbArc
 50
265.7231833629999755
 51
340.5123759080000809
  0
LINE
  5
4D
100
AcDbEntity
100
AcDbLine
  8
0
 62
256
370
-1
 48
1.0
  6
ByLayer
 10
0.1069042479999993
 20
-4.9912262913500003
 30
0.0
 11
0.8120514256999982
 21
-4.9258847826299998
 31
0.0
  0
LINE
  5
4E
100
AcDbEntity
100
AcDbLine
  8
0
 62
256
370
-1
 48
1.0
  6
ByLayer
 10
-0.0336197839000008
 20
-5.3883264840600003
 30
0.0
 11
0.1069042479999993
 21
-4.9912262913500003
 31
0.0
  0
ARC
  5
4F
100
AcDbEntity
  8
0
 62
256
370
-1
 48
1.0
  6
ByLayer
100
AcDbCircle
 10
-0.6559243800000019
 20
-5.2556050920999997
 30
0.0
 40
0.3048
100
AcDbArc
 50
188.8993888120000122
 51
263.6885813569999755
  0
LINE
  5
50
100
AcDbEntity
100
AcDbLine
  8
0
 62
256
370
-1
 48
1.0
  6
ByLayer
 10
-0.9570550486999991
 20
-5.3027576054700001
 30
0.0
 11
-1.0222194231000046
 21
-4.8865975750699997
 31
0.0
  0
ARC
  5
51
100
AcDbEntity
  8
0
 62
256
370
-1
 48
1.0
  6
ByLayer
100
AcDbCircle
 10
-1.1436302223999988
 20
4.0194714720200011
 30
0.0
 40
9.7789999999999999
100
AcDbArc
 50
284.8650487209999937
 51
286.8995668559999785
  0
ARC
  5
52
100
AcDbEntity
  8
0
 62
256
370
-1
 48
1.0
  6
ByLayer
100
AcDbCircle
 10
1.6104709238000012
 20
-5.0455926390999997
 30
0.0
 40
0.3048
100
AcDbArc
 50
286.8996539529999836
 51
1.6888464984
  0
LINE
  5
53
100
AcDbEntity
100
AcDbLine
  8
0
 62
256
370
-1
 48
1.0
  6
ByLayer
 10
1.9027241443999969
 20
-4.61556163865
 30
0.0
 11
2.5366502297999958
 21
-4.2999039549000004
 31
0.0
  0
LINE
  5
54
100
AcDbEntity
100
AcDbLine
  8
0
 62
256
370
-1
 48
1.0
  6
ByLayer
 10
1.9151385222999977
 20
-5.0366096760600003
 30
0.0
 11
1.9027241443999969
 21
-4.61556163865
 31
0.0
  0
ARC
  5
55
100
AcDbEntity
  8
0
 62
256
370
-1
 48
1.0
  6
ByLayer
100
AcDbCircle
 10
1.2869122715000003
 20
-5.1376530129700004
 30
0.0
 40
0.3048
100
AcDbArc
 50
210.0758594019999919
 51
284.8650519469999836
  0
LINE
  5
56
100
AcDbEntity
100
AcDbLine
  8
0
 62
256
370
-1
 48
1.0
  6
ByLayer
 10
1.0231497380000008
 20
-5.2904023667800004
 30
0.0
 11
0.8120514256999982
 21
-4.9258847826299998
 31
0.0
  0
ARC
  5
57
100
AcDbEntity
  8
0
 62
256
370
-1
 48
1.0
  6
ByLayer
100
AcDbCircle
 10
-2.5184039949999999
 20
3.3349186374100004
 30
0.0
 40
9.7789999999999999
100
AcDbArc
 50
306.0415193110000018
 51
308.0760374459999866
  0
ARC
  5
58
100
AcDbEntity
  8
0
 62
256
370
-1
 48
1.0
  6
ByLayer
100
AcDbCircle
 10
3.3243977046999973
 20
-4.1231058168699999
 30
0.0
 40
0.3048
100
AcDbArc
 50
308.0761245429999917
 51
22.8653170884000012
  0
LINE
  5
59
100
AcDbEntity
100
AcDbLine
  8
0
 62
256
370
-1
 48
1.0
  6
ByLayer
 10
3.4415706017000005
 20
-3.61653981083
 30
0.0
 11
3.9186603642000009
 21
-3.0931972713900002
 31
0.0
  0
LINE
  5
5A
100
AcDbEntity
100
AcDbLine
  8
0
 62
256
370
-1
 48
1.0
  6
ByLayer
 10
3.6052467589999964
 20
-4.0046708223799996
 30
0.0
 11
3.4415706017000005
 21
-3.61653981083
 31
0.0
  0
ARC
  5
5B
100
AcDbEntity
  8
0
 62
256
370
-1
 48
1.0
  6
ByLayer
100
AcDbCircle
 10
3.0559442897000011
 20
-4.3258324256099998
 30
0.0
 40
0.3048
100
AcDbArc
 50
231.2523299919999999
 51
306.0415225369999916
  0
LINE
  5
5C
100
AcDbEntity
100
AcDbLine
  8
0
 62
256
370
-1
 48
1.0
  6
ByLayer
 10
2.8651724830999967
 20
-4.5635489731999996
 30
0.0
 11
2.5366502297999958
 21
-4.2999039549000004
 31
0.0
  0
ARC
  5
5D
100
AcDbEntity
  8
0
 62
256
370
-1
 48
1.0
  6
ByLayer
100
AcDbCircle
 10
-3.5530533530000028
 20
2.1999665613200001
 30
0.0
 40
9.7789999999999999
100
AcDbArc
 50
327.2179899010000099
 51
329.2525080359999947
  0
ARC
  5
5E
100
AcDbEntity
  8
0
 62
256
370
-1
 48
1.0
  6
ByLayer
100
AcDbCircle
 10
4.5893461543999976
 20
-2.6437707070699998
 30
0.0
 40
0.3048
100
AcDbArc
 50
329.2525951329999998
 51
44.0417876783999986
  0
LINE
  5
5F
100
AcDbEntity
100
AcDbLine
  8
0
 62
256
370
-1
 48
1.0
  6
ByLayer
 10
4.5156138787999964
 20
-2.1290842415400002
 30
0.0
 11
4.7714337023000013
 21
-1.4687371562999996
 31
0.0
  0
LINE
  5
60
100
AcDbEntity
100
AcDbLine
  8
0
 62
256
370
-1
 48
1.0
  6
ByLayer
 10
4.8084464434000012
 20
-2.4318789833999999
 30
0.0
 11
4.5156138787999964
 21
-2.1290842415400002
 31
0.0
  0
ARC
  5
61
100
AcDbEntity
  8
0
 62
256
370
-1
 48
1.0
  6
ByLayer
100
AcDbCircle
 10
4.4122540978999965
 20
-2.9297841988100002
 30
0.0
 40
0.3048
100
AcDbArc
 50
252.428800582000008
 51
327.2179931270000566
  0
LINE
  5
62
100
AcDbEntity
100
AcDbLine
  8
0
 62
256
370
-1
 48
1.0
  6
ByLayer
 10
4.3202378078999999
 20
-3.2203630031900001
 30
0.0
 11
3.9186603642000009
 21
-3.0931972713900002
 31
0.0
  0
ARC
  5
63
100
AcDbEntity
  8
0
 62
256
370
-1
 48
1.0
  6
ByLayer
100
AcDbCircle
 10
-4.1078431674000022
 20
0.7678968106389998
 30
0.0
 40
9.7789999999999999
100
AcDbArc
 50
348.394460491000018
 51
350.4289786260000028
  0
ARC
  5
64
100
AcDbEntity
  8
0
 62
256
370
-1
 48
1.0
  6
ByLayer
100
AcDbCircle
 10
5.2344779752999955
 20
-0.8073797135710006
 30
0.0
 40
0.3048
100
AcDbArc
 50
350.4290657230000079
 51
65.2182582684000067
  0
LINE
  5
65
100
AcDbEntity
100
AcDbLine
  8
0
 62
256
370
-1
 48
1.0
  6
ByLayer
 10
4.9797984794999977
 20
-0.3540840477190006
 30
0.0
 11
4.9797984793999959
 21
0.3540840503269997
 31
0.0
  0
LINE
  5
66
100
AcDbEntity
100
AcDbLine
  8
0
 62
256
370
-1
 48
1.0
  6
ByLayer
 10
5.3622387909999958
 20
-0.5306484121450001
 30
0.0
 11
4.9797984794999977
 21
-0.3540840477190006
 31
0.0
  0
ARC
  5
67
100
AcDbEntity
  8
0
 62
256
370
-1
 48
1.0
  6
ByLayer
100
AcDbCircle
 10
5.1726645409999961
 20
-1.1380523813999996
 30
0.0
 40
0.3048
100
AcDbArc
 50
273.6052711720000161
 51
348.3944637170000647
  0
LINE
  5
68
100
AcDbEntity
100
AcDbLine
  8
0
 62
256
370
-1
 48
1.0
  6
ByLayer
 10
5.1918310773000016
 20
-1.4422491648799998
 30
0.0
 11
4.7714337023000013
 21
-1.4687371562999996
 31
0.0
  0
ARC
  5
69
100
AcDbEntity
  8
0
 62
256
370
-1
 48
1.0
  6
ByLayer
100
AcDbCircle
 10
-4.1078459997000003
 20
-0.7678816593970001
 30
0.0
 40
9.7789999999999999
100
AcDbArc
 50
9.5709310813000013
 51
11.6054492161000002
  0
ARC
  5
6A
100
AcDbEntity
  8
0
 62
256
370
-1
 48
1.0
  6
ByLayer
100
AcDbCircle
 10
5.1726645403999996
 20
1.1380523841100008
 30
0.0
 40
0.3048
100
AcDbArc
 50
11.6055363129
 51
86.3947288584000006
  0
LINE
  5
6B
100
AcDbEntity
100
AcDbLine
  8
0
 62
256
370
-1
 48
1.0
  6
ByLayer
 10
4.7714337015000012
 20
1.4687371587999998
 30
0.0
 11
4.5156138776999981
 21
2.1290842438999995
 31
0.0
  0
LINE
  5
6C
100
AcDbEntity
100
AcDbLine
  8
0
 62
256
370
-1
 48
1.0
  6
ByLayer
 10
5.1918310765000015
 20
1.4422491676
 30
0.0
 11
4.7714337015000012
 21
1.4687371587999998
 31
0.0
  0
ARC
  5
6D
100
AcDbEntity
  8
0
 62
256
370
-1
 48
1.0
  6
ByLayer
100
AcDbCircle
 10
5.2344779748999954
 20
0.8073797163110008
 30
0.0
 40
0.3048
100
AcDbArc
 50
294.7817417620000242
 51
9.5709343070999999
  0
LINE
  5
6E
100
AcDbEntity
100
AcDbLine
  8
0
 62
256
370
-1
 48
1.0
  6
ByLayer
 10
5.3622387906999975
 20
0.5306484149529993
 30
0.0
 11
4.9797984793999959
 21
0.3540840503269997
 31
0.0
  0
ARC
  5
6F
100
AcDbEntity
  8
0
 62
256
370
-1
 48
1.0
  6
ByLayer
100
AcDbCircle
 10
-3.5530614672000027
 20
-2.1999534563399994
 30
0.0
 40
9.7789999999999999
100
AcDbArc
 50
30.7474016713000005
 51
32.7819198060999994
  0
ARC
  5
70
100
AcDbEntity
  8
0
 62
256
370
-1
 48
1.0
  6
ByLayer
100
AcDbCircle
 10
4.4122540963999981
 20
2.9297842011200004
 30
0.0
 40
0.3048
100
AcDbArc
 50
32.782006902900001
 51
107.5711994480000016
  0
LINE
  5
71
100
AcDbEntity
100
AcDbLine
  8
0
 62
256
370
-1
 48
1.0
  6
ByLayer
 10
3.9186603626000007
 20
3.0931972734399995
 30
0.0
 11
3.4415705998000021
 21
3.6165398126300001
 31
0.0
  0
LINE
  5
72
100
AcDbEntity
100
AcDbLine
  8
0
 62
256
370
-1
 48
1.0
  6
ByLayer
 10
4.320237806199998
 20
3.2203630054500003
 30
0.0
 11
3.9186603626000007
 21
3.0931972734399995
 31
0.0
  0
ARC
  5
73
100
AcDbEntity
  8
0
 62
256
370
-1
 48
1.0
  6
ByLayer
100
AcDbCircle
 10
4.589346153000001
 20
2.6437707094700009
 30
0.0
 40
0.3048
100
AcDbArc
 50
315.9582123519999755
 51
30.7474048970999974
  0
LINE
  5
74
100
AcDbEntity
100
AcDbLine
  8
0
 62
256
370
-1
 48
1.0
  6
ByLayer
 10
4.8084464420999993
 20
2.4318789859100001
 30
0.0
 11
4.5156138776999981
 21
2.1290842438999995
 31
0.0
  0
ARC
  5
75
100
AcDbEntity
  8
0
 62
256
370
-1
 48
1.0
  6
ByLayer
100
AcDbCircle
 10
-2.5184162954000016
 20
-3.3349093485800001
 30
0.0
 40
9.7789999999999999
100
AcDbArc
 50
51.9238722612999979
 51
53.9583903961000004
  0
ARC
  5
76
100
AcDbEntity
  8
0
 62
256
370
-1
 48
1.0
  6
ByLayer
100
AcDbCircle
 10
3.0559442874999974
 20
4.3258324272099991
 30
0.0
 40
0.3048
100
AcDbArc
 50
53.9584774929000019
 51
128.747670037999967
  0
LINE
  5
77
100
AcDbEntity
100
AcDbLine
  8
0
 62
256
370
-1
 48
1.0
  6
ByLayer
 10
2.5366502274999974
 20
4.2999039562300005
 30
0.0
 11
1.9027241419999967
 21
4.6155616396399992
 31
0.0
  0
LINE
  5
78
100
AcDbEntity
100
AcDbLine
  8
0
 62
256
370
-1
 48
1.0
  6
ByLayer
 10
2.8651724806999965
 20
4.5635489746999998
 30
0.0
 11
2.5366502274999974
 21
4.2999039562300005
 31
0.0
  0
ARC
  5
79
100
AcDbEntity
  8
0
 62
256
370
-1
 48
1.0
  6
ByLayer
100
AcDbCircle
 10
3.3243977025999953
 20
4.12310581861
 30
0.0
 40
0.3048
100
AcDbArc
 50
337.1346829419999835
 51
51.9238754870999983
  0
LINE
  5
7A
100
AcDbEntity
100
AcDbLine
  8
0
 62
256
370
-1
 48
1.0
  6
ByLayer
 10
3.6052467569000015
 20
4.0046708242700007
 30
0.0
 11
3.4415705998000021
 21
3.6165398126300001
 31
0.0
  0
ARC
  5
7B
100
AcDbEntity
  8
0
 62
256
370
-1
 48
1.0
  6
ByLayer
100
AcDbCircle
 10
-1.143645047699998
 20
-4.0194672538600003
 30
0.0
 40
9.7789999999999999
100
AcDbArc
 50
73.1003428512999989
 51
75.1348609861000085
  0
ARC
  5
7C
100
AcDbEntity
  8
0
 62
256
370
-1
 48
1.0
  6
ByLayer
100
AcDbCircle
 10
1.2869122688000019
 20
5.1376530136399996
 30
0.0
 40
0.3048
100
AcDbArc
 50
75.1349480828999958
 51
149.9241406280000035
  0
LINE
  5
7D
100
AcDbEntity
100
AcDbLine
  8
0
 62
256
370
-1
 48
1.0
  6
ByLayer
 10
0.8120514231999962
 20
4.9258847830499999
 30
0.0
 11
0.1069042453000009
 21
4.9912262914100012
 31
0.0
  0
LINE
  5
7E
100
AcDbEntity
100
AcDbLine
  8
0
 62
256
370
-1
 48
1.0
  6
ByLayer
 10
1.0231497352000005
 20
5.2904023673099996
 30
0.0
 11
0.8120514231999962
 21
4.9258847830499999
 31
0.0
  0
ARC
  5
7F
100
AcDbEntity
  8
0
 62
256
370
-1
 48
1.0
  6
ByLayer
100
AcDbCircle
 10
1.6104709211999975
 20
5.0455926399499997
 30
0.0
 40
0.3048
100
AcDbArc
 50
358.3111535319999916
 51
73.1003460770999993
  0
LINE
  5
80
100
AcDbEntity
100
AcDbLine
  8
0
 62
256
370
-1
 48
1.0
  6
ByLayer
 10
1.915138519700001
 20
5.0366096770700004
 30
0.0
 11
1.9027241419999967
 21
4.6155616396399992
 31
0.0
  0
ARC
  5
81
100
AcDbEntity
  8
0
 62
256
370
-1
 48
1.0
  6
ByLayer
100
AcDbCircle
 10
0.3855818007999972
 20
-4.1611738337800004
 30
0.0
 40
9.7789999999999999
100
AcDbArc
 50
94.276813441300007
 51
96.3113315760999882
  0
ARC
  5
82
100
AcDbEntity
  8
0
 62
256
370
-1
 48
1.0
  6
ByLayer
100
AcDbCircle
 10
-0.6559243827000003
 20
5.2556050917499988
 30
0.0
 40
0.3048
100
AcDbArc
 50
96.3114186729000039
 51
171.1006112180000116
  0
LINE
  5
83
100
AcDbEntity
100
AcDbLine
  8
0
 62
256
370
-1
 48
1.0
  6
ByLayer
 10
-1.0222194257000012
 20
4.8865975745399997
 30
0.0
 11
-1.7033536620000049
 21
4.6927981750699992
 31
0.0
  0
LINE
  5
84
100
AcDbEntity
100
AcDbLine
  8
0
 62
256
370
-1
 48
1.0
  6
ByLayer
 10
-0.9570550514999994
 20
5.3027576049700009
 30
0.0
 11
-1.0222194257000012
 21
4.8865975745399997
 31
0.0
  0
ARC
  5
85
100
AcDbEntity
  8
0
 62
256
370
-1
 48
1.0
  6
ByLayer
100
AcDbCircle
 10
-0.3209588819999993
 20
5.2866442165500001
 30
0.0
 40
0.3048
100
AcDbArc
 50
19.4876241215999997
 51
94.2768166671000074
  0
LINE
  5
86
100
AcDbEntity
100
AcDbLine
  8
0
 62
256
370
-1
 48
1.0
  6
ByLayer
 10
-0.0336197868000028
 20
5.3883264840500011
 30
0.0
 11
0.1069042453000009
 21
4.9912262914100012
 31
0.0
  0
ARC
  5
87
100
AcDbEntity
  8
0
 62
256
370
-1
 48
1.0
  6
ByLayer
100
AcDbCircle
 10
1.8627336905000007
 20
-3.7408908294900005
 30
0.0
 40
9.7789999999999999
100
AcDbArc
 50
115.4532840309999955
 51
117.4878021659999945
  0
ARC
  5
88
100
AcDbEntity
  8
0
 62
256
370
-1
 48
1.0
  6
ByLayer
100
AcDbCircle
 10
-2.5101748117999989
 20
4.6637585797899987
 30
0.0
 40
0.3048
100
AcDbArc
 50
117.4878892629999996
 51
192.2770818079999913
  0
LINE
  5
89
100
AcDbEntity
100
AcDbLine
  8
0
 62
256
370
-1
 48
1.0
  6
ByLayer
 10
-2.7184338767999989
 20
4.1873482859000006
 30
0.0
 11
-3.2835642185999987
 21
3.7605816613899989
 31
0.0
  0
LINE
  5
8A
100
AcDbEntity
100
AcDbLine
  8
0
 62
256
370
-1
 48
1.0
  6
ByLayer
 10
-2.8080042503000016
 20
4.598946044369999
 30
0.0
 11
-2.7184338767999989
 21
4.1873482859000006
 31
0.0
  0
ARC
  5
8B
100
AcDbEntity
  8
0
 62
256
370
-1
 48
1.0
  6
ByLayer
100
AcDbCircle
 10
-2.2090414098000011
 20
4.8137051972800009
 30
0.0
 40
0.3048
100
AcDbArc
 50
40.6640947116000007
 51
115.4532872570000137
  0
LINE
  5
8C
100
AcDbEntity
100
AcDbLine
  8
0
 62
256
370
-1
 48
1.0
  6
ByLayer
 10
-1.9778375547000024
 20
5.0123199414900004
 30
0.0
 11
-1.7033536620000049
 21
4.6927981750699992
 31
0.0
  0
ARC
  5
8D
100
AcDbEntity
  8
0
 62
256
370
-1
 48
1.0
  6
ByLayer
100
AcDbCircle
 10
3.0883130735999984
 20
-2.8153797896100006
 30
0.0
 40
9.7789999999999999
100
AcDbArc
 50
136.6297546209999894
 51
138.6642727560000026
  0
ARC
  5
8E
100
AcDbEntity
  8
0
 62
256
370
-1
 48
1.0
  6
ByLayer
100
AcDbCircle
 10
-4.0254122231000018
 20
3.4420456287499999
 30
0.0
 40
0.3048
100
AcDbArc
 50
138.6643598530000077
 51
213.4535523979999994
  0
LINE
  5
8F
100
AcDbEntity
100
AcDbLine
  8
0
 62
256
370
-1
 48
1.0
  6
ByLayer
 10
-4.047508769300002
 20
2.92257440827
 30
0.0
 11
-4.4203112326000031
 21
2.3204777561499998
 31
0.0
  0
LINE
  5
90
100
AcDbEntity
100
AcDbLine
  8
0
 62
256
370
-1
 48
1.0
  6
ByLayer
 10
-4.2797169152999999
 20
3.2740213367299997
 30
0.0
 11
-4.047508769300002
 21
2.92257440827
 31
0.0
  0
ARC
  5
91
100
AcDbEntity
  8
0
 62
256
370
-1
 48
1.0
  6
ByLayer
100
AcDbCircle
 10
-3.7987806542999998
 20
3.6906486173499999
 30
0.0
 40
0.3048
100
AcDbArc
 50
61.8405653016000088
 51
136.6297578470000076
  0
LINE
  5
92
100
AcDbEntity
100
AcDbLine
  8
0
 62
256
370
-1
 48
1.0
  6
ByLayer
 10
-3.6549374012999998
 20
3.9593718164999991
 30
0.0
 11
-3.2835642185999987
 21
3.7605816613899989
 31
0.0
  0
ARC
  5
93
100
AcDbEntity
  8
0
 62
256
370
-1
 48
1.0
  6
ByLayer
100
AcDbCircle
 10
3.8967986629999984
 20
-1.5096361085099996
 30
0.0
 40
9.7789999999999999
100
AcDbArc
 50
157.8062252109999974
 51
159.8407433460000107
  0
ARC
  5
94
100
AcDbEntity
  8
0
 62
256
370
-1
 48
1.0
  6
ByLayer
100
AcDbCircle
 10
-4.9969954080000001
 20
1.75546534243
 30
0.0
 40
0.3048
100
AcDbArc
 50
159.8408304429999589
 51
234.6300229880000359
  0
LINE
  5
95
100
AcDbEntity
100
AcDbLine
  8
0
 62
256
370
-1
 48
1.0
  6
ByLayer
 10
-4.8299451745000006
 20
1.2630906621900007
 30
0.0
 11
-4.9600707207000028
 21
0.5669804716859996
 31
0.0
  0
LINE
  5
96
100
AcDbEntity
100
AcDbLine
  8
0
 62
256
370
-1
 48
1.0
  6
ByLayer
 10
-5.1734300961000024
 20
1.5069219055099996
 30
0.0
 11
-4.8299451745000006
 21
1.2630906621900007
 31
0.0
  0
ARC
  5
97
100
AcDbEntity
  8
0
 62
256
370
-1
 48
1.0
  6
ByLayer
100
AcDbCircle
 10
-4.8754735216
 20
2.0691494909799992
 30
0.0
 40
0.3048
100
AcDbArc
 50
83.0170358916000026
 51
157.8062284369999588
  0
LINE
  5
98
100
AcDbEntity
100
AcDbLine
  8
0
 62
256
370
-1
 48
1.0
  6
ByLayer
 10
-4.8384176990000007
 20
2.3716885879700005
 30
0.0
 11
-4.4203112326000031
 21
2.3204777561499998
 31
0.0
  0
CIRCLE
  5
99
100
AcDbEntity
100
AcDbCircle
  8
0
 62
256
370
-1
 48
1.0
  6
ByLayer
 10
0.0
 20
0.0
 30
0.0
 40
1.0
  0
ENDSEC
  0
SECTION
  2
OBJECTS
  0
DICTIONARY
  5
C
100
AcDbDictionary
280
0
281
1
  3
ACAD_GROUP
350
D
  3
ACAD_LAYOUT
350
1A
  3
ACAD_MLINESTYLE
350
17
  3
ACAD_PLOTSETTINGS
350
19
  3
ACAD_PLOTSTYLENAME
350
E
  3
AcDbVariableDictionary
350
9A
  3
QCAD_OBJECTS
350
9B
  0
DICTIONARY
  5
D
100
AcDbDictionary
280
0
281
1
  0
ACDBDICTIONARYWDFLT
  5
E
100
AcDbDictionary
281
1
  3
Normal
350
F
100
AcDbDictionaryWithDefault
340
F
  0
ACDBPLACEHOLDER
  5
F
  0
DICTIONARY
  5
17
100
AcDbDictionary
280
0
281
1
  3
Standard
350
18
  0
MLINESTYLE
  5
18
100
AcDbMlineStyle
  2
STANDARD
 70
0
  3

 62
256
 51
90.0
 52
90.0
 71
2
 49
0.5
 62
256
  6
BYLAYER
 49
-0.5
 62
256
  6
BYLAYER
  0
DICTIONARY
  5
19
100
AcDbDictionary
280
0
281
1
  0
DICTIONARY
  5
1A
100
AcDbDictionary
281
1
  3
Layout1
350
1E
  3
Layout2
350
26
  3
Model
350
22
  0
LAYOUT
  5
1E
100
AcDbPlotSettings
  1

  2
none_device
  4

  6

 40
0.0
 41
0.0
 42
0.0
 43
0.0
 44
0.0
 45
0.0
 46
0.0
 47
0.0
 48
0.0
 49
0.0
140
0.0
141
0.0
142
1.0
143
1.0
 70
688
 72
0
 73
0
 74
5
  7

 75
16
147
1.0
148
0.0
149
0.0
100
AcDbLayout
  1
Layout1
 70
1
 71
1
 10
0.0
 20
0.0
 11
420.0
 21
297.0
 12
0.0
 22
0.0
 32
0.0
 14
100000000000000000000.0
 24
100000000000000000000.0
 34
100000000000000000000.0
 15
-100000000000000000000.0
 25
-100000000000000000000.0
 35
-100000000000000000000.0
146
0.0
 13
0.0
 23
0.0
 33
0.0
 16
1.0
 26
0.0
 36
0.0
 17
0.0
 27
1.0
 37
0.0
 76
0
330
1B
  0
LAYOUT
  5
22
100
AcDbPlotSettings
  1

  2
none_device
  4

  6

 40
0.0
 41
0.0
 42
0.0
 43
0.0
 44
0.0
 45
0.0
 46
0.0
 47
0.0
 48
0.0
 49
0.0
140
0.0
141
0.0
142
1.0
143
1.0
 70
1712
 72
0
 73
0
 74
0
  7

 75
0
147
1.0
148
0.0
149
0.0
100
AcDbLayout
  1
Model
 70
1
 71
0
 10
0.0
 20
0.0
 11
12.0
 21
9.0
 12
0.0
 22
0.0
 32
0.0
 14
0.0
 24
0.0
 34
0.0
 15
0.0
 25
0.0
 35
0.0
146
0.0
 13
0.0
 23
0.0
 33
0.0
 16
1.0
 26
0.0
 36
0.0
 17
0.0
 27
1.0
 37
0.0
 76
0
330
1F
  0
LAYOUT
  5
26
100
AcDbPlotSettings
  1

  2
none_device
  4

  6

 40
0.0
 41
0.0
 42
0.0
 43
0.0
 44
0.0
 45
0.0
 46
0.0
 47
0.0
 48
0.0
 49
0.0
140
0.0
141
0.0
142
1.0
143
1.0
 70
688
 72
0
 73
0
 74
5
  7

 75
16
147
1.0
148
0.0
149
0.0
100
AcDbLayout
  1
Layout2
 70
1
 71
2
 10
0.0
 20
0.0
 11
12.0
 21
9.0
 12
0.0
 22
0.0
 32
0.0
 14
0.0
 24
0.0
 34
0.0
 15
0.0
 25
0.0
 35
0.0
146
0.0
 13
0.0
 23
0.0
 33
0.0
 16
1.0
 26
0.0
 36
0.0
 17
0.0
 27
1.0
 37
0.0
 76
0
330
23
  0
DICTIONARY
  5
9A
100
AcDbDictionary
281
1
  3
DIMASSOC
350
9D
  3
HIDETEXT
350
9C
  0
DICTIONARYVAR
  5
9C
100
DictionaryVariables
280
0
  1
2
  0
DICTIONARYVAR
  5
9D
100
DictionaryVariables
280
0
  1
1
  0
DICTIONARY
  5
9B
100
AcDbDictionary
281
1
  3
Grid/DisplayGrid00
350
9E
  3
Grid/DisplayGrid01
350
9F
  3
Grid/DisplayGrid02
350
A0
  3
Grid/DisplayGrid03
350
A1
  3
Grid/GridSpacingX00
350
A2
  3
Grid/GridSpacingX01
350
A3
  3
Grid/GridSpacingX02
350
A4
  3
Grid/GridSpacingX03
350
A5
  3
Grid/GridSpacingY00
350
A6
  3
Grid/GridSpacingY01
350
A7
  3
Grid/GridSpacingY02
350
A8
  3
Grid/GridSpacingY03
350
A9
  3
Grid/IsometricGrid00
350
AA
  3
Grid/IsometricGrid01
350
AB
  3
Grid/IsometricGrid02
350
AC
  3
Grid/IsometricGrid03
350
AD
  3
Grid/IsometricProjection00
350
AE
  3
Grid/IsometricProjection01
350
AF
  3
Grid/IsometricProjection02
350
B0
  3
Grid/IsometricProjection03
350
B1
  3
Grid/MetaGridSpacingX00
350
B2
  3
Grid/MetaGridSpacingX01
350
B3
  3
Grid/MetaGridSpacingX02
350
B4
  3
Grid/MetaGridSpacingX03
350
B5
  3
Grid/MetaGridSpacingY00
350
B6
  3
Grid/MetaGridSpacingY01
350
B7
  3
Grid/MetaGridSpacingY02
350
B8
  3
Grid/MetaGridSpacingY03
350
B9
  3
MultiPageSettings/Columns
350
BA
  3
MultiPageSettings/GlueMarginsBottom
350
BB
  3
MultiPageSettings/GlueMarginsLeft
350
BC
  3
MultiPageSettings/GlueMarginsRight
350
BD
  3
MultiPageSettings/GlueMarginsTop
350
BE
  3
MultiPageSettings/PrintCropMarks
350
BF
  3
MultiPageSettings/Rows
350
C0
  3
PageSettings/OffsetX
350
C1
  3
PageSettings/OffsetY
350
C2
  3
PageSettings/PageOrientation
350
C3
  3
PageSettings/PaperHeight
350
C4
  3
PageSettings/PaperWidth
350
C5
  3
PageSettings/Scale
350
C6
  3
PageSettings/ShowPaperBorders
350
C7
  3
UnitSettings/PaperUnit
350
C8
  0
XRECORD
  5
9E
330
9B
100
AcDbXrecord
280
1
290
1
  0
XRECORD
  5
9F
330
9B
100
AcDbXrecord
280
1
290
1
  0
XRECORD
  5
A0
330
9B
100
AcDbXrecord
280
1
290
1
  0
XRECORD
  5
A1
330
9B
100
AcDbXrecord
280
1
290
1
  0
XRECORD
  5
A2
330
9B
100
AcDbXrecord
280
1
1000
auto
  0
XRECORD
  5
A3
330
9B
100
AcDbXrecord
280
1
1000
auto
  0
XRECORD
  5
A4
330
9B
100
AcDbXrecord
280
1
1000
auto
  0
XRECORD
  5
A5
330
9B
100
AcDbXrecord
280
1
1000
auto
  0
XRECORD
  5
A6
330
9B
100
AcDbXrecord
280
1
1000
auto
  0
XRECORD
  5
A7
330
9B
100
AcDbXrecord
280
1
1000
auto
  0
XRECORD
  5
A8
330
9B
100
AcDbXrecord
280
1
1000
auto
  0
XRECORD
  5
A9
330
9B
100
AcDbXrecord
280
1
1000
auto
  0
XRECORD
  5
AA
330
9B
100
AcDbXrecord
280
1
290
0
  0
XRECORD
  5
AB
330
9B
100
AcDbXrecord
280
1
290
0
  0
XRECORD
  5
AC
330
9B
100
AcDbXrecord
280
1
290
0
  0
XRECORD
  5
AD
330
9B
100
AcDbXrecord
280
1
290
0
  0
XRECORD
  5
AE
330
9B
100
AcDbXrecord
280
1
 90
0
  0
XRECORD
  5
AF
330
9B
100
AcDbXrecord
280
1
 90
0
  0
XRECORD
  5
B0
330
9B
100
AcDbXrecord
280
1
 90
0
  0
XRECORD
  5
B1
330
9B
100
AcDbXrecord
280
1
 90
0
  0
XRECORD
  5
B2
330
9B
100
AcDbXrecord
280
1
1000
auto
  0
XRECORD
  5
B3
330
9B
100
AcDbXrecord
280
1
1000
auto
  0
XRECORD
  5
B4
330
9B
100
AcDbXrecord
280
1
1000
auto
  0
XRECORD
  5
B5
330
9B
100
AcDbXrecord
280
1
1000
auto
  0
XRECORD
  5
B6
330
9B
100
AcDbXrecord
280
1
1000
auto
  0
XRECORD
  5
B7
330
9B
100
AcDbXrecord
280
1
1000
auto
  0
XRECORD
  5
B8
330
9B
100
AcDbXrecord
280
1
1000
auto
  0
XRECORD
  5
B9
330
9B
100
AcDbXrecord
280
1
1000
auto
  0
XRECORD
  5
BA
330
9B
100
AcDbXrecord
280
1
 90
1
  0
XRECORD
  5
BB
330
9B
100
AcDbXrecord
280
1
 40
10.0
  0
XRECORD
  5
BC
330
9B
100
AcDbXrecord
280
1
 40
10.0
  0
XRECORD
  5
BD
330
9B
100
AcDbXrecord
280
1
 40
10.0
  0
XRECORD
  5
BE
330
9B
100
AcDbXrecord
280
1
 40
10.0
  0
XRECORD
  5
BF
330
9B
100
AcDbXrecord
280
1
290
0
  0
XRECORD
  5
C0
330
9B
100
AcDbXrecord
280
1
 90
1
  0
XRECORD
  5
C1
330
9B
100
AcDbXrecord
280
1
 40
0.0
  0
XRECORD
  5
C2
330
9B
100
AcDbXrecord
280
1
 40
0.0
  0
XRECORD
  5
C3
330
9B
100
AcDbXrecord
280
1
1000
Portrait
  0
XRECORD
  5
C4
330
9B
100
AcDbXrecord
280
1
 40
297.0
  0
XRECORD
  5
C5
330
9B
100
AcDbXrecord
280
1
 40
210.0
  0
XRECORD
  5
C6
330
9B
100
AcDbXrecord
280
1
1000
1:1
  0
XRECORD
  5
C7
330
9B
100
AcDbXrecord
280
1
290
1
  0
XRECORD
  5
C8
330
9B
100
AcDbXrecord
280
1
 90
4
  0
ENDSEC
  0
EOF
