999
dxflib 3.7.0.0
  0
SECTION
  2
HEADER
  9
$ACADVER
  1
AC1015
  9
$HANDSEED
  5
FFFF
  9
$DIMADEC
 70
0
  9
$DIMASZ
 40
2.5
  9
$DIMAUNIT
 70
0
  9
$DIMAZIN
 70
2
  9
$DIMDEC
 70
4
  9
$DIMEXE
 40
1.25
  9
$DIMEXO
 40
0.625
  9
$DIMGAP
 40
0.625
  9
$DIMLUNIT
 70
2
  9
$DIMSCALE
 40
1.0
  9
$DIMTSZ
 40
0.0
  9
$DIMTXT
 40
2.5
  9
$DIMZIN
 70
8
  9
$DWGCODEPAGE
  3
ANSI_1252
  9
$INSUNITS
 70
4
  0
ENDSEC
  0
SECTION
  2
TABLES
  0
TABLE
  2
VPORT
  5
8
100
AcDbSymbolTable
 70
1
  0
VPORT
  5
30
100
AcDbSymbolTableRecord
100
AcDbViewportTableRecord
  2
*Active
 70
0
 10
0.0
 20
0.0
 11
1.0
 21
1.0
 12
286.3055555555554861
 22
148.5
 13
0.0
 23
0.0
 14
10.0
 24
10.0
 15
10.0
 25
10.0
 16
0.0
 26
0.0
 36
1.0
 17
0.0
 27
0.0
 37
0.0
 40
297.0
 41
1.92798353909465
 42
50.0
 43
0.0
 44
0.0
 50
0.0
 51
0.0
 71
0
 72
100
 73
1
 74
3
 75
1
 76
1
 77
0
 78
0
281
0
 65
1
110
0.0
120
0.0
130
0.0
111
1.0
121
0.0
131
0.0
112
0.0
122
1.0
132
0.0
 79
0
146
0.0
  0
ENDTAB
  0
TABLE
  2
LTYPE
  5
5
100
AcDbSymbolTable
 70
3
  0
LTYPE
  5
16
100
AcDbSymbolTableRecord
100
AcDbLinetypeTableRecord
  2
Continuous
 70
0
  3
Solid line
 72
65
 73
0
 40
0.0
  0
LTYPE
  5
15
100
AcDbSymbolTableRecord
100
AcDbLinetypeTableRecord
  2
ByLayer
 70
0
  3

 72
65
 73
0
 40
0.0
  0
LTYPE
  5
14
100
AcDbSymbolTableRecord
100
AcDbLinetypeTableRecord
  2
BYBLOCK
 70
0
  3

 72
65
 73
0
 40
0.0
  0
ENDTAB
  0
TABLE
  2
LAYER
  5
2
100
AcDbSymbolTable
 70
1
  0
LAYER
  5
10
100
AcDbSymbolTableRecord
100
AcDbLayerTableRecord
  2
0
 70
0
 62
7
420
16777215
  6
Continuous
370
25
390
F
  0
ENDTAB
  0
TABLE
  2
STYLE
  5
3
100
AcDbSymbolTable
 70
1
  0
STYLE
  5
31
100
AcDbSymbolTableRecord
100
AcDbTextStyleTableRecord
  2
Standard
 70
0
 40
0.0
 41
1.0
 50
0.0
 71
0
 42
2.5
  3

  4

1001
ACAD
1000
txt
1071
0
  0
ENDTAB
  0
TABLE
  2
VIEW
  5
6
100
AcDbSymbolTable
 70
0
  0
ENDTAB
  0
TABLE
  2
UCS
  5
7
100
AcDbSymbolTable
 70
0
  0
ENDTAB
  0
TABLE
  2
APPID
  5
9
100
AcDbSymbolTable
 70
1
  0
APPID
  5
12
100
AcDbSymbolTableRecord
100
AcDbRegAppTableRecord
  2
ACAD
 70
0
  0
APPID
  5
32
100
AcDbSymbolTableRecord
100
AcDbRegAppTableRecord
  2
QCAD
 70
0
  0
ENDTAB
  0
TABLE
  2
DIMSTYLE
  5
A
100
AcDbSymbolTable
 70
1
100
AcDbDimStyleTable
 71
0
  0
DIMSTYLE
105
27
100
AcDbSymbolTableRecord
100
AcDbDimStyleTableRecord
  2
Standard
 41
2.5
 42
0.625
 43
3.75
 44
1.25
 70
0
 73
0
 74
0
 77
1
 78
8
140
2.5
141
2.5
143
0.03937007874016
147
0.625
171
3
172
1
271
2
272
2
274
3
278
44
283
0
284
8
340
31
  0
ENDTAB
  0
TABLE
  2
BLOCK_RECORD
  5
1
100
AcDbSymbolTable
 70
1
  0
BLOCK_RECORD
  5
1F
100
AcDbSymbolTableRecord
100
AcDbBlockTableRecord
  2
*Model_Space
340
22
  0
BLOCK_RECORD
  5
1B
100
AcDbSymbolTableRecord
100
AcDbBlockTableRecord
  2
*Paper_Space
340
1E
  0
BLOCK_RECORD
  5
23
100
AcDbSymbolTableRecord
100
AcDbBlockTableRecord
  2
*Paper_Space0
340
26
  0
ENDTAB
  0
ENDSEC
  0
SECTION
  2
BLOCKS
  0
BLOCK
  5
20
100
AcDbEntity
  8
0
100
AcDbBlockBegin
  2
*Model_Space
 70
0
 10
0.0
 20
0.0
 30
0.0
  3
*Model_Space
  1

  0
ENDBLK
  5
21
100
AcDbEntity
  8
0
100
AcDbBlockEnd
  0
BLOCK
  5
1C
100
AcDbEntity
 67
1
  8
0
100
AcDbBlockBegin
  2
*Paper_Space
 70
0
 10
0.0
 20
0.0
 30
0.0
  3
*Paper_Space
  1

  0
ENDBLK
  5
1D
100
AcDbEntity
 67
1
  8
0
100
AcDbBlockEnd
  0
BLOCK
  5
24
100
AcDbEntity
  8
0
100
AcDbBlockBegin
  2
*Paper_Space0
 70
0
 10
0.0
 20
0.0
 30
0.0
  3
*Paper_Space0
  1

  0
ENDBLK
  5
25
100
AcDbEntity
  8
0
100
AcDbBlockEnd
  0
ENDSEC
  0
SECTION
  2
ENTITIES
  0
LINE
  5
33
100
AcDbEntity
100
AcDbLine
  8
0
 62
7
420
16777215
370
-1
 48
1.0
  6
Continuous
 10
8.5893457841049994
 20
4.2279617912400003
 30
0.0
 11
8.2584182646050017
 21
3.9169195532800001
 31
0.0
  0
LINE
  5
34
100
AcDbEntity
100
AcDbLine
  8
0
 62
7
420
16777215
370
-1
 48
1.0
  6
Continuous
 10
9.2649423170850014
 20
2.4157217174799999
 30
0.0
 11
8.8781765602650005
 21
2.1776617541799999
 31
0.0
  0
LINE
  5
35
100
AcDbEntity
100
AcDbLine
  8
0
 62
7
420
16777215
370
-1
 48
1.0
  6
Continuous
 10
8.5338758290050016
 20
3.2750275223600003
 30
0.0
 11
8.9873151126250015
 21
3.30058359012
 31
0.0
  0
LINE
  5
36
100
AcDbEntity
100
AcDbLine
  8
0
 62
7
420
16777215
370
-1
 48
1.0
  6
Continuous
 10
9.0187835764849993
 20
1.4934600898200001
 30
0.0
 11
9.4680853296449996
 21
1.4272163665800002
 31
0.0
  0
LINE
  5
37
100
AcDbEntity
100
AcDbLine
  8
0
 62
7
420
16777215
370
-1
 48
1.0
  6
Continuous
 10
8.2584182646050017
 20
3.9169195532800001
 30
0.0
 11
8.5338758290050016
 21
3.2750275223600003
 31
0.0
  0
LINE
  5
38
100
AcDbEntity
100
AcDbLine
  8
0
 62
7
420
16777215
370
-1
 48
1.0
  6
Continuous
 10
8.8781765602650005
 20
2.1776617541799999
 30
0.0
 11
9.0187835764849993
 21
1.4934600898200001
 31
0.0
  0
ARC
  5
39
100
AcDbEntity
  8
0
 62
7
420
16777215
370
-1
 48
1.0
  6
Continuous
100
AcDbCircle
 10
0.0165383450450003
 20
0.0000002370200001
 30
0.0
 40
9.7789999999999999
100
AcDbArc
 50
16.4020957713000008
 51
18.4366139060999998
  0
ARC
  5
3A
100
AcDbEntity
  8
0
 62
7
420
16777215
370
-1
 48
1.0
  6
Continuous
100
AcDbCircle
 10
8.380595772345
 20
4.45005742782
 30
0.0
 40
0.3048
100
AcDbArc
 50
313.2258064519999721
 51
28.0149989971000011
  0
ARC
  5
3B
100
AcDbEntity
  8
0
 62
7
420
16777215
370
-1
 48
1.0
  6
Continuous
100
AcDbCircle
 10
9.4236271305249986
 20
1.1256761390800001
 30
0.0
 40
0.3048
100
AcDbArc
 50
6.8237106802999996
 51
81.6129032257999967
  0
ARC
  5
3C
100
AcDbEntity
  8
0
 62
7
420
16777215
370
-1
 48
1.0
  6
Continuous
100
AcDbCircle
 10
9.1051729515850006
 20
2.6752921127400002
 30
0.0
 40
0.3048
100
AcDbArc
 50
301.6129032260000145
 51
16.4020957713000008
  0
ARC
  5
3D
100
AcDbEntity
  8
0
 62
7
420
16777215
370
-1
 48
1.0
  6
Continuous
100
AcDbCircle
 10
9.004466576925001
 20
2.9962665381
 30
0.0
 40
0.3048
100
AcDbArc
 50
18.4366139060999998
 51
93.2258064515999791
  0
LINE
  5
3E
100
AcDbEntity
100
AcDbLine
  8
0
 62
7
420
16777215
370
-1
 48
1.0
  6
Continuous
 10
7.5627778386650002
 20
5.8671081954700002
 30
0.0
 11
7.3012367462150003
 21
5.4958178051899997
 31
0.0
  0
LINE
  5
3F
100
AcDbEntity
100
AcDbLine
  8
0
 62
7
420
16777215
370
-1
 48
1.0
  6
Continuous
 10
7.700267561685
 20
4.92251451945
 30
0.0
 11
8.1392805244650006
 21
5.0388240850199999
 31
0.0
  0
LINE
  5
40
100
AcDbEntity
100
AcDbLine
  8
0
 62
7
420
16777215
370
-1
 48
1.0
  6
Continuous
 10
7.3012367462150003
 20
5.4958178051899997
 30
0.0
 11
7.700267561685
 21
4.92251451945
 31
0.0
  0
ARC
  5
41
100
AcDbEntity
  8
0
 62
7
420
16777215
370
-1
 48
1.0
  6
Continuous
100
AcDbCircle
 10
0.0165383450450003
 20
0.0000002370200001
 30
0.0
 40
9.7789999999999999
100
AcDbArc
 50
28.0149957712999971
 51
30.0495139060999996
  0
ARC
  5
42
100
AcDbEntity
  8
0
 62
7
420
16777215
370
-1
 48
1.0
  6
Continuous
100
AcDbCircle
 10
7.3135934388250003
 20
6.0426364669200003
 30
0.0
 40
0.3048
100
AcDbArc
 50
324.8387064519999967
 51
39.6278989970999973
  0
ARC
  5
43
100
AcDbEntity
  8
0
 62
7
420
16777215
370
-1
 48
1.0
  6
Continuous
100
AcDbCircle
 10
8.2173394529050015
 20
4.7441889809199997
 30
0.0
 40
0.3048
100
AcDbArc
 50
30.0495139060999996
 51
104.8387064519999967
  0
LINE
  5
44
100
AcDbEntity
100
AcDbLine
  8
0
 62
7
420
16777215
370
-1
 48
1.0
  6
Continuous
 10
6.2272661327550001
 20
7.2660546435100004
 30
0.0
 11
6.0458189844749999
 21
6.8497167646900001
 31
0.0
  0
LINE
  5
45
100
AcDbEntity
100
AcDbLine
  8
0
 62
7
420
16777215
370
-1
 48
1.0
  6
Continuous
 10
6.552086691605
 20
6.3684733150100001
 30
0.0
 11
6.9587001012150003
 21
6.57077465376
 31
0.0
  0
LINE
  5
46
100
AcDbEntity
100
AcDbLine
  8
0
 62
7
420
16777215
370
-1
 48
1.0
  6
Continuous
 10
6.0458189844749999
 20
6.8497167646900001
 30
0.0
 11
6.552086691605
 21
6.3684733150100001
 31
0.0
  0
ARC
  5
47
100
AcDbEntity
  8
0
 62
7
420
16777215
370
-1
 48
1.0
  6
Continuous
100
AcDbCircle
 10
0.0165383450450003
 20
0.0000002370200001
 30
0.0
 40
9.7789999999999999
100
AcDbArc
 50
39.6278957712999969
 51
41.6624139061000065
  0
ARC
  5
48
100
AcDbEntity
  8
0
 62
7
420
16777215
370
-1
 48
1.0
  6
Continuous
100
AcDbCircle
 10
5.9478489778050001
 20
7.3878294057499998
 30
0.0
 40
0.3048
100
AcDbArc
 50
336.4516064520000214
 51
51.2407989971000077
  0
ARC
  5
49
100
AcDbEntity
  8
0
 62
7
420
16777215
370
-1
 48
1.0
  6
Continuous
100
AcDbCircle
 10
7.094470753855
 20
6.2978838866800002
 30
0.0
 40
0.3048
100
AcDbArc
 50
41.6624139061000065
 51
116.4516064520000072
  0
LINE
  5
4A
100
AcDbEntity
100
AcDbLine
  8
0
 62
7
420
16777215
370
-1
 48
1.0
  6
Continuous
 10
4.6374866422650003
 20
8.3675281351299997
 30
0.0
 11
4.543561901615
 21
7.9231876800099998
 31
0.0
  0
LINE
  5
4B
100
AcDbEntity
100
AcDbLine
  8
0
 62
7
420
16777215
370
-1
 48
1.0
  6
Continuous
 10
5.1363398524650004
 20
7.5537062188600004
 30
0.0
 11
5.4939069173449999
 21
7.8337170947899999
 31
0.0
  0
LINE
  5
4C
100
AcDbEntity
100
AcDbLine
  8
0
 62
7
420
16777215
370
-1
 48
1.0
  6
Continuous
 10
4.543561901615
 20
7.9231876800099998
 30
0.0
 11
5.1363398524650004
 21
7.5537062188600004
 31
0.0
  0
ARC
  5
4D
100
AcDbEntity
  8
0
 62
7
420
16777215
370
-1
 48
1.0
  6
Continuous
100
AcDbCircle
 10
0.0165383450450003
 20
0.0000002370200001
 30
0.0
 40
9.7789999999999999
100
AcDbArc
 50
51.2407957713000002
 51
53.2753139060999956
  0
ARC
  5
4E
100
AcDbEntity
  8
0
 62
7
420
16777215
370
-1
 48
1.0
  6
Continuous
100
AcDbCircle
 10
4.3392760970150004
 20
8.4305639178299998
 30
0.0
 40
0.3048
100
AcDbArc
 50
348.0645064519999892
 51
62.8536989970999826
  0
ARC
  5
4F
100
AcDbEntity
  8
0
 62
7
420
16777215
370
-1
 48
1.0
  6
Continuous
100
AcDbCircle
 10
5.6818308308050005
 20
7.5937428386099999
 30
0.0
 40
0.3048
100
AcDbArc
 50
53.2753139060999956
 51
128.0645064519999892
  0
LINE
  5
50
100
AcDbEntity
100
AcDbLine
  8
0
 62
7
420
16777215
370
-1
 48
1.0
  6
Continuous
 10
2.8585250902950001
 20
9.1264342411099992
 30
0.0
 11
2.8559680450650005
 21
8.6722825500699994
 31
0.0
  0
LINE
  5
51
100
AcDbEntity
100
AcDbLine
  8
0
 62
7
420
16777215
370
-1
 48
1.0
  6
Continuous
 10
3.5109878541050001
 20
8.4296896834999995
 30
0.0
 11
3.8048697447250004
 21
8.7759464248000008
 31
0.0
  0
LINE
  5
52
100
AcDbEntity
100
AcDbLine
  8
0
 62
7
420
16777215
370
-1
 48
1.0
  6
Continuous
 10
2.8559680450650005
 20
8.6722825500699994
 30
0.0
 11
3.5109878541050001
 21
8.4296896834999995
 31
0.0
  0
ARC
  5
53
100
AcDbEntity
  8
0
 62
7
420
16777215
370
-1
 48
1.0
  6
Continuous
100
AcDbCircle
 10
0.0165383450450003
 20
0.0000002370200001
 30
0.0
 40
9.7789999999999999
100
AcDbArc
 50
62.8536957713000035
 51
64.8882139061000061
  0
ARC
  5
54
100
AcDbEntity
  8
0
 62
7
420
16777215
370
-1
 48
1.0
  6
Continuous
100
AcDbCircle
 10
2.5537299227450001
 20
9.1281503533699997
 30
0.0
 40
0.3048
100
AcDbArc
 50
359.6774064520000138
 51
74.4665989970999931
  0
ARC
  5
55
100
AcDbEntity
  8
0
 62
7
420
16777215
370
-1
 48
1.0
  6
Continuous
100
AcDbCircle
 10
4.0372532961550007
 20
8.5787132483300006
 30
0.0
 40
0.3048
100
AcDbArc
 50
64.8882139061000061
 51
139.6774064520000138
  0
LINE
  5
56
100
AcDbEntity
100
AcDbLine
  8
0
 62
7
420
16777215
370
-1
 48
1.0
  6
Continuous
 10
0.9632123314630003
 20
9.5117032735200002
 30
0.0
 11
1.0521276673250002
 21
9.0663333598500007
 31
0.0
  0
LINE
  5
57
100
AcDbEntity
100
AcDbLine
  8
0
 62
7
420
16777215
370
-1
 48
1.0
  6
Continuous
 10
1.7425727614650004
 20
8.9605608628199995
 30
0.0
 11
1.9607379253550004
 21
9.3588876856700001
 31
0.0
  0
LINE
  5
58
100
AcDbEntity
100
AcDbLine
  8
0
 62
7
420
16777215
370
-1
 48
1.0
  6
Continuous
 10
1.0521276673250002
 20
9.0663333598500007
 30
0.0
 11
1.7425727614650004
 21
8.9605608628199995
 31
0.0
  0
ARC
  5
59
100
AcDbEntity
  8
0
 62
7
420
16777215
370
-1
 48
1.0
  6
Continuous
100
AcDbCircle
 10
0.0165383450450003
 20
0.0000002370200001
 30
0.0
 40
9.7789999999999999
100
AcDbArc
 50
74.4665957713000068
 51
76.5011139061000023
  0
ARC
  5
5A
100
AcDbEntity
  8
0
 62
7
420
16777215
370
-1
 48
1.0
  6
Continuous
100
AcDbCircle
 10
0.6643108846900003
 20
9.4520294575299992
 30
0.0
 40
0.3048
100
AcDbArc
 50
11.2903064515999993
 51
86.0794989971000035
  0
ARC
  5
5B
100
AcDbEntity
  8
0
 62
7
420
16777215
370
-1
 48
1.0
  6
Continuous
100
AcDbCircle
 10
2.2280673101250001
 20
9.2124703338499998
 30
0.0
 40
0.3048
100
AcDbArc
 50
76.5011139061000023
 51
151.29030645200001
  0
LINE
  5
5C
100
AcDbEntity
100
AcDbLine
  8
0
 62
7
420
16777215
370
-1
 48
1.0
  6
Continuous
 10
-0.9708573501399997
 20
9.5075622816400003
 30
0.0
 11
-0.7941098354609997
 21
9.0892076318400008
 31
0.0
  0
LINE
  5
5D
100
AcDbEntity
100
AcDbLine
  8
0
 62
7
420
16777215
370
-1
 48
1.0
  6
Continuous
 10
-0.0965063438539997
 20
9.12458584042
 30
0.0
 11
0.0370103907997003
 21
9.5586752069000003
 31
0.0
  0
LINE
  5
5E
100
AcDbEntity
100
AcDbLine
  8
0
 62
7
420
16777215
370
-1
 48
1.0
  6
Continuous
 10
-0.7941098354609997
 20
9.0892076318400008
 30
0.0
 11
-0.0965063438539997
 21
9.12458584042
 31
0.0
  0
ARC
  5
5F
100
AcDbEntity
  8
0
 62
7
420
16777215
370
-1
 48
1.0
  6
Continuous
100
AcDbCircle
 10
0.0165383450450003
 20
0.0000002370200001
 30
0.0
 40
9.7789999999999999
100
AcDbArc
 50
86.0794957713000031
 51
88.1140139060999985
  0
ARC
  5
60
100
AcDbEntity
  8
0
 62
7
420
16777215
370
-1
 48
1.0
  6
Continuous
100
AcDbCircle
 10
-1.2516280225649996
 20
9.3889415890900008
 30
0.0
 40
0.3048
100
AcDbArc
 50
22.9032064515999991
 51
97.6923989970999855
  0
ARC
  5
61
100
AcDbEntity
  8
0
 62
7
420
16777215
370
-1
 48
1.0
  6
Continuous
100
AcDbCircle
 10
0.3283411185560003
 20
9.4690680200100008
 30
0.0
 40
0.3048
100
AcDbArc
 50
88.1140139060999985
 51
162.9032064520000063
  0
LINE
  5
62
100
AcDbEntity
100
AcDbLine
  8
0
 62
7
420
16777215
370
-1
 48
1.0
  6
Continuous
 10
-2.8645029583449997
 20
9.1141807980599996
 30
0.0
 11
-2.6071593248649996
 21
8.7399688911600002
 31
0.0
  0
LINE
  5
63
100
AcDbEntity
100
AcDbLine
  8
0
 62
7
420
16777215
370
-1
 48
1.0
  6
Continuous
 10
-1.9309573888949998
 20
8.9150494181299997
 30
0.0
 11
-1.8875552712449997
 21
9.3671296684400005
 31
0.0
  0
LINE
  5
64
100
AcDbEntity
100
AcDbLine
  8
0
 62
7
420
16777215
370
-1
 48
1.0
  6
Continuous
 10
-2.6071593248649996
 20
8.7399688911600002
 30
0.0
 11
-1.9309573888949998
 21
8.9150494181299997
 31
0.0
  0
ARC
  5
65
100
AcDbEntity
  8
0
 62
7
420
16777215
370
-1
 48
1.0
  6
Continuous
100
AcDbCircle
 10
0.0165383450450003
 20
0.0000002370200001
 30
0.0
 40
9.7789999999999999
100
AcDbArc
 50
97.6923957712999993
 51
99.7269139060999805
  0
ARC
  5
66
100
AcDbEntity
  8
0
 62
7
420
16777215
370
-1
 48
1.0
  6
Continuous
100
AcDbCircle
 10
-3.1156480784849996
 20
8.9414695713499999
 30
0.0
 40
0.3048
100
AcDbArc
 50
34.5161064516000025
 51
109.3052989969999942
  0
ARC
  5
67
100
AcDbEntity
  8
0
 62
7
420
16777215
370
-1
 48
1.0
  6
Continuous
100
AcDbCircle
 10
-1.5841503081349997
 20
9.3380011731899994
 30
0.0
 40
0.3048
100
AcDbArc
 50
99.7269139060999805
 51
174.5161064520000025
  0
LINE
  5
68
100
AcDbEntity
100
AcDbLine
  8
0
 62
7
420
16777215
370
-1
 48
1.0
  6
Continuous
 10
-4.6401984623949994
 20
8.3476638980400004
 30
0.0
 11
-4.3127943828749995
 21
8.0329150049900004
 31
0.0
  0
LINE
  5
69
100
AcDbEntity
100
AcDbLine
  8
0
 62
7
420
16777215
370
-1
 48
1.0
  6
Continuous
 10
-3.6856777739049997
 20
8.3405300369800006
 30
0.0
 11
-3.7341671600849997
 21
8.79209296278
 31
0.0
  0
LINE
  5
6A
100
AcDbEntity
100
AcDbLine
  8
0
 62
7
420
16777215
370
-1
 48
1.0
  6
Continuous
 10
-4.3127943828749995
 20
8.0329150049900004
 30
0.0
 11
-3.6856777739049997
 21
8.3405300369800006
 31
0.0
  0
ARC
  5
6B
100
AcDbEntity
  8
0
 62
7
420
16777215
370
-1
 48
1.0
  6
Continuous
100
AcDbCircle
 10
0.0165383450450003
 20
0.0000002370200001
 30
0.0
 40
9.7789999999999999
100
AcDbArc
 50
109.3052957710000044
 51
111.3398139060000034
  0
ARC
  5
6C
100
AcDbEntity
  8
0
 62
7
420
16777215
370
-1
 48
1.0
  6
Continuous
100
AcDbCircle
 10
-4.8514361251949998
 20
8.1279329511700009
 30
0.0
 40
0.3048
100
AcDbArc
 50
46.1290064515999987
 51
120.9181989970000046
  0
ARC
  5
6D
100
AcDbEntity
  8
0
 62
7
420
16777215
370
-1
 48
1.0
  6
Continuous
100
AcDbCircle
 10
-3.4311093895649996
 20
8.8246356825499994
 30
0.0
 40
0.3048
100
AcDbArc
 50
111.3398139060000034
 51
186.1290064519999987
  0
LINE
  5
6E
100
AcDbEntity
100
AcDbLine
  8
0
 62
7
420
16777215
370
-1
 48
1.0
  6
Continuous
 10
-6.2252467199449999
 20
7.2393928561300003
 30
0.0
 11
-5.8411861484449998
 21
6.9969928264699996
 31
0.0
  0
LINE
  5
6F
100
AcDbEntity
100
AcDbLine
  8
0
 62
7
420
16777215
370
-1
 48
1.0
  6
Continuous
 10
-5.2888290799349997
 20
7.4245485748900002
 30
0.0
 11
-5.4272248098649998
 21
7.8571071471899998
 31
0.0
  0
LINE
  5
70
100
AcDbEntity
100
AcDbLine
  8
0
 62
7
420
16777215
370
-1
 48
1.0
  6
Continuous
 10
-5.8411861484449998
 20
6.9969928264699996
 30
0.0
 11
-5.2888290799349997
 21
7.4245485748900002
 31
0.0
  0
ARC
  5
71
100
AcDbEntity
  8
0
 62
7
420
16777215
370
-1
 48
1.0
  6
Continuous
100
AcDbCircle
 10
0.0165383450450003
 20
0.0000002370200001
 30
0.0
 40
9.7789999999999999
100
AcDbArc
 50
120.918195771000029
 51
122.9527139059999996
  0
ARC
  5
72
100
AcDbEntity
  8
0
 62
7
420
16777215
370
-1
 48
1.0
  6
Continuous
100
AcDbCircle
 10
-6.3879288354749999
 20
6.9816379948999998
 30
0.0
 40
0.3048
100
AcDbArc
 50
57.7419064516000091
 51
132.5310989969999866
  0
ARC
  5
73
100
AcDbEntity
  8
0
 62
7
420
16777215
370
-1
 48
1.0
  6
Continuous
100
AcDbCircle
 10
-5.1369214458150001
 20
7.94998877993
 30
0.0
 40
0.3048
100
AcDbArc
 50
122.9527139059999996
 51
197.7419064519999665
  0
LINE
  5
74
100
AcDbEntity
100
AcDbLine
  8
0
 62
7
420
16777215
370
-1
 48
1.0
  6
Continuous
 10
-7.5547557050449994
 20
5.8347403938999998
 30
0.0
 11
-7.1297621177849999
 21
5.6746131078299999
 31
0.0
  0
LINE
  5
75
100
AcDbEntity
100
AcDbLine
  8
0
 62
7
420
16777215
370
-1
 48
1.0
  6
Continuous
 10
-6.6747781404749995
 20
6.2046053998000001
 30
0.0
 11
-6.897414279855
 21
6.6004506296200001
 31
0.0
  0
LINE
  5
76
100
AcDbEntity
100
AcDbLine
  8
0
 62
7
420
16777215
370
-1
 48
1.0
  6
Continuous
 10
-7.1297621177849999
 20
5.6746131078299999
 30
0.0
 11
-6.6747781404749995
 21
6.2046053998000001
 31
0.0
  0
ARC
  5
77
100
AcDbEntity
  8
0
 62
7
420
16777215
370
-1
 48
1.0
  6
Continuous
100
AcDbCircle
 10
0.0165383450450003
 20
0.0000002370200001
 30
0.0
 40
9.7789999999999999
100
AcDbArc
 50
132.5310957709999968
 51
134.5656139059999816
  0
ARC
  5
78
100
AcDbEntity
  8
0
 62
7
420
16777215
370
-1
 48
1.0
  6
Continuous
100
AcDbCircle
 10
-7.6622220520549993
 20
5.5495141267700001
 30
0.0
 40
0.3048
100
AcDbArc
 50
69.3548064515999982
 51
144.1439989970000113
  0
ARC
  5
79
100
AcDbEntity
  8
0
 62
7
420
16777215
370
-1
 48
1.0
  6
Continuous
100
AcDbCircle
 10
-6.6317503695249993
 20
6.7498685924800004
 30
0.0
 40
0.3048
100
AcDbArc
 50
134.5656139059999816
 51
209.3548064519999912
  0
LINE
  5
7A
100
AcDbEntity
100
AcDbLine
  8
0
 62
7
420
16777215
370
-1
 48
1.0
  6
Continuous
 10
-8.5742951937549989
 20
4.1912131163400002
 30
0.0
 11
-8.1257678684950001
 21
4.1199142001400002
 31
0.0
  0
LINE
  5
7B
100
AcDbEntity
100
AcDbLine
  8
0
 62
7
420
16777215
370
-1
 48
1.0
  6
Continuous
 10
-7.7867840695849999
 20
4.7306451009600003
 30
0.0
 11
-8.0845458737450002
 21
5.0735710470599997
 31
0.0
  0
LINE
  5
7C
100
AcDbEntity
100
AcDbLine
  8
0
 62
7
420
16777215
370
-1
 48
1.0
  6
Continuous
 10
-8.1257678684950001
 20
4.1199142001400002
 30
0.0
 11
-7.7867840695849999
 21
4.7306451009600003
 31
0.0
  0
ARC
  5
7D
100
AcDbEntity
  8
0
 62
7
420
16777215
370
-1
 48
1.0
  6
Continuous
100
AcDbCircle
 10
0.0165383450450003
 20
0.0000002370200001
 30
0.0
 40
9.7789999999999999
100
AcDbArc
 50
144.1439957709999931
 51
146.1785139060000063
  0
ARC
  5
7E
100
AcDbEntity
  8
0
 62
7
420
16777215
370
-1
 48
1.0
  6
Continuous
100
AcDbCircle
 10
-8.6221460898150006
 20
3.8901926337399999
 30
0.0
 40
0.3048
100
AcDbArc
 50
80.9677064515999945
 51
155.7568989970000075
  0
ARC
  5
7F
100
AcDbEntity
  8
0
 62
7
420
16777215
370
-1
 48
1.0
  6
Continuous
100
AcDbCircle
 10
-7.8543977228249995
 20
5.2734081544800002
 30
0.0
 40
0.3048
100
AcDbArc
 50
146.1785139060000063
 51
220.9677064519999874
  0
LINE
  5
80
100
AcDbEntity
100
AcDbLine
  8
0
 62
7
420
16777215
370
-1
 48
1.0
  6
Continuous
 10
-9.2421251427349986
 20
2.37609718606
 30
0.0
 11
-8.7884268307049993
 21
2.3965456241100003
 31
0.0
  0
LINE
  5
81
100
AcDbEntity
100
AcDbLine
  8
0
 62
7
420
16777215
370
-1
 48
1.0
  6
Continuous
 10
-8.5793212390549982
 20
3.0630117528
 30
0.0
 11
-8.9400183115150007
 21
3.3389789944300001
 31
0.0
  0
LINE
  5
82
100
AcDbEntity
100
AcDbLine
  8
0
 62
7
420
16777215
370
-1
 48
1.0
  6
Continuous
 10
-8.7884268307049993
 20
2.3965456241100003
 30
0.0
 11
-8.5793212390549982
 21
3.0630117528
 31
0.0
  0
ARC
  5
83
100
AcDbEntity
  8
0
 62
7
420
16777215
370
-1
 48
1.0
  6
Continuous
100
AcDbCircle
 10
0.0165383450450003
 20
0.0000002370200001
 30
0.0
 40
9.7789999999999999
100
AcDbArc
 50
155.7568957709999893
 51
157.7914139060000025
  0
ARC
  5
84
100
AcDbEntity
  8
0
 62
7
420
16777215
370
-1
 48
1.0
  6
Continuous
100
AcDbCircle
 10
-9.2284015676149984
 20
2.07160629509
 30
0.0
 40
0.3048
100
AcDbArc
 50
92.5806064516000191
 51
167.3697989970000037
  0
ARC
  5
85
100
AcDbEntity
  8
0
 62
7
420
16777215
370
-1
 48
1.0
  6
Continuous
100
AcDbCircle
 10
-8.7548082071050004
 20
3.5810538962800003
 30
0.0
 40
0.3048
100
AcDbArc
 50
157.7914139060000025
 51
232.5806064519999836
  0
LINE
  5
86
100
AcDbEntity
100
AcDbLine
  8
0
 62
7
420
16777215
370
-1
 48
1.0
  6
Continuous
 10
-9.5309045305350004
 20
0.4637036213660001
 30
0.0
 11
-9.0906096836549999
 21
0.575062252678
 31
0.0
  0
LINE
  5
87
100
AcDbEntity
100
AcDbLine
  8
0
 62
7
420
16777215
370
-1
 48
1.0
  6
Continuous
 10
-9.0199431020249996
 20
1.2699784227200002
 30
0.0
 11
-9.4288084704149995
 21
1.4676888348300001
 31
0.0
  0
LINE
  5
88
100
AcDbEntity
100
AcDbLine
  8
0
 62
7
420
16777215
370
-1
 48
1.0
  6
Continuous
 10
-9.0906096836549999
 20
0.575062252678
 30
0.0
 11
-9.0199431020249996
 21
1.2699784227200002
 31
0.0
  0
ARC
  5
89
100
AcDbEntity
  8
0
 62
7
420
16777215
370
-1
 48
1.0
  6
Continuous
100
AcDbCircle
 10
0.0165383450450003
 20
0.0000002370200001
 30
0.0
 40
9.7789999999999999
100
AcDbArc
 50
167.3697957710000139
 51
169.4043139060000271
  0
ARC
  5
8A
100
AcDbEntity
  8
0
 62
7
420
16777215
370
-1
 48
1.0
  6
Continuous
100
AcDbCircle
 10
-9.4561683287149982
 20
0.1682082079760001
 30
0.0
 40
0.3048
100
AcDbArc
 50
104.1935064519999941
 51
178.982698997
  0
ARC
  5
8B
100
AcDbEntity
  8
0
 62
7
420
16777215
370
-1
 48
1.0
  6
Continuous
100
AcDbCircle
 10
-9.2961189317749984
 20
1.74209096167
 30
0.0
 40
0.3048
100
AcDbArc
 50
169.4043139060000271
 51
244.1935064520000083
  0
LINE
  5
8C
100
AcDbEntity
100
AcDbLine
  8
0
 62
7
420
16777215
370
-1
 48
1.0
  6
Continuous
 10
-9.4288107016449985
 20
-1.46767400386
 30
0.0
 11
-9.0199450326949986
 21
-1.2699642122099999
 31
0.0
  0
LINE
  5
8D
100
AcDbEntity
100
AcDbLine
  8
0
 62
7
420
16777215
370
-1
 48
1.0
  6
Continuous
 10
-9.0906105576349994
 20
-0.575047934713
 30
0.0
 11
-9.5309052350149983
 21
-0.4636886351329999
 31
0.0
  0
LINE
  5
8E
100
AcDbEntity
100
AcDbLine
  8
0
 62
7
420
16777215
370
-1
 48
1.0
  6
Continuous
 10
-9.0199450326949986
 20
-1.2699642122099999
 30
0.0
 11
-9.0906105576349994
 21
-0.575047934713
 31
0.0
  0
ARC
  5
8F
100
AcDbEntity
  8
0
 62
7
420
16777215
370
-1
 48
1.0
  6
Continuous
100
AcDbCircle
 10
0.0165383450450003
 20
0.0000002370200001
 30
0.0
 40
9.7789999999999999
100
AcDbArc
 50
178.9826957710000102
 51
181.0172139059999949
  0
ARC
  5
90
100
AcDbEntity
  8
0
 62
7
420
16777215
370
-1
 48
1.0
  6
Continuous
100
AcDbCircle
 10
-9.2961215803049981
 20
-1.7420763294199999
 30
0.0
 40
0.3048
100
AcDbArc
 50
115.8064064520000187
 51
190.5955989969999962
  0
ARC
  5
91
100
AcDbEntity
  8
0
 62
7
420
16777215
370
-1
 48
1.0
  6
Continuous
100
AcDbCircle
 10
-9.4561685844250007
 20
-0.1681933323999999
 30
0.0
 40
0.3048
100
AcDbArc
 50
181.0172139059999949
 51
255.8064064520000045
  0
LINE
  5
92
100
AcDbEntity
100
AcDbLine
  8
0
 62
7
420
16777215
370
-1
 48
1.0
  6
Continuous
 10
-8.9400233870949997
 20
-3.3389649064799998
 30
0.0
 11
-8.5793258953349998
 21
-3.0629982121200001
 31
0.0
  0
LINE
  5
93
100
AcDbEntity
100
AcDbLine
  8
0
 62
7
420
16777215
370
-1
 48
1.0
  6
Continuous
 10
-8.7884304735549996
 20
-2.3965317654599998
 30
0.0
 11
-9.2421287540649999
 21
-2.3760826386999998
 31
0.0
  0
LINE
  5
94
100
AcDbEntity
100
AcDbLine
  8
0
 62
7
420
16777215
370
-1
 48
1.0
  6
Continuous
 10
-8.5793258953349998
 20
-3.0629982121200001
 30
0.0
 11
-8.7884304735549996
 21
-2.3965317654599998
 31
0.0
  0
ARC
  5
95
100
AcDbEntity
  8
0
 62
7
420
16777215
370
-1
 48
1.0
  6
Continuous
100
AcDbCircle
 10
0.0165383450450003
 20
0.0000002370200001
 30
0.0
 40
9.7789999999999999
100
AcDbArc
 50
190.5955957710000064
 51
192.6301139059999912
  0
ARC
  5
96
100
AcDbEntity
  8
0
 62
7
420
16777215
370
-1
 48
1.0
  6
Continuous
100
AcDbCircle
 10
-8.7548136514450015
 20
-3.5810400869899999
 30
0.0
 40
0.3048
100
AcDbArc
 50
127.4193064519999865
 51
202.2084989969999924
  0
ARC
  5
97
100
AcDbEntity
  8
0
 62
7
420
16777215
370
-1
 48
1.0
  6
Continuous
100
AcDbCircle
 10
-9.2284047171050005
 20
-2.07159176579
 30
0.0
 40
0.3048
100
AcDbArc
 50
192.6301139059999912
 51
267.4193064520000576
  0
LINE
  5
98
100
AcDbEntity
100
AcDbLine
  8
0
 62
7
420
16777215
370
-1
 48
1.0
  6
Continuous
 10
-8.084553585894998
 20
-5.0735582594999995
 30
0.0
 11
-7.7867912608449998
 21
-4.7306327650600002
 31
0.0
  0
LINE
  5
99
100
AcDbEntity
100
AcDbLine
  8
0
 62
7
420
16777215
370
-1
 48
1.0
  6
Continuous
 10
-8.1257741310750013
 20
-4.11990134877
 30
0.0
 11
-8.5743015641049993
 21
-4.1911995840199996
 31
0.0
  0
LINE
  5
9A
100
AcDbEntity
100
AcDbLine
  8
0
 62
7
420
16777215
370
-1
 48
1.0
  6
Continuous
 10
-7.7867912608449998
 20
-4.7306327650600002
 30
0.0
 11
-8.1257741310750013
 21
-4.11990134877
 31
0.0
  0
ARC
  5
9B
100
AcDbEntity
  8
0
 62
7
420
16777215
370
-1
 48
1.0
  6
Continuous
100
AcDbCircle
 10
0.0165383450450003
 20
0.0000002370200001
 30
0.0
 40
9.7789999999999999
100
AcDbArc
 50
202.208495771000031
 51
204.2430139059999874
  0
ARC
  5
9C
100
AcDbEntity
  8
0
 62
7
420
16777215
370
-1
 48
1.0
  6
Continuous
100
AcDbCircle
 10
-7.8544057400849994
 20
-5.2733957141100003
 30
0.0
 40
0.3048
100
AcDbArc
 50
139.0322064519999969
 51
213.8213989969999886
  0
ARC
  5
9D
100
AcDbEntity
  8
0
 62
7
420
16777215
370
-1
 48
1.0
  6
Continuous
100
AcDbCircle
 10
-8.6221520041249988
 20
-3.8901790261399998
 30
0.0
 40
0.3048
100
AcDbArc
 50
204.2430139059999874
 51
279.0322064520000254
  0
LINE
  5
9E
100
AcDbEntity
100
AcDbLine
  8
0
 62
7
420
16777215
370
-1
 48
1.0
  6
Continuous
 10
-6.8974243128249997
 20
-6.6004396465599999
 30
0.0
 11
-6.6747875723150001
 21
-6.2045947542899995
 31
0.0
  0
LINE
  5
9F
100
AcDbEntity
100
AcDbLine
  8
0
 62
7
420
16777215
370
-1
 48
1.0
  6
Continuous
 10
-7.1297707437049995
 20
-5.6746017704799998
 30
0.0
 11
-7.5547645736049995
 21
-5.8347284112199995
 31
0.0
  0
LINE
  5
A0
100
AcDbEntity
100
AcDbLine
  8
0
 62
7
420
16777215
370
-1
 48
1.0
  6
Continuous
 10
-6.6747875723150001
 20
-6.2045947542899995
 30
0.0
 11
-7.1297707437049995
 21
-5.6746017704799998
 31
0.0
  0
ARC
  5
A1
100
AcDbEntity
  8
0
 62
7
420
16777215
370
-1
 48
1.0
  6
Continuous
100
AcDbCircle
 10
0.0165383450450003
 20
0.0000002370200001
 30
0.0
 40
9.7789999999999999
100
AcDbArc
 50
213.8213957709999988
 51
215.855913906000012
  0
ARC
  5
A2
100
AcDbEntity
  8
0
 62
7
420
16777215
370
-1
 48
1.0
  6
Continuous
100
AcDbCircle
 10
-6.6317606314749993
 20
-6.7498580109199997
 30
0.0
 40
0.3048
100
AcDbArc
 50
150.6451064519999647
 51
225.4342989970000133
  0
ARC
  5
A3
100
AcDbEntity
  8
0
 62
7
420
16777215
370
-1
 48
1.0
  6
Continuous
100
AcDbCircle
 10
-7.6622304890650001
 20
-5.5495019785499995
 30
0.0
 40
0.3048
100
AcDbArc
 50
215.855913906000012
 51
290.6451064519999932
  0
LINE
  5
A4
100
AcDbEntity
100
AcDbLine
  8
0
 62
7
420
16777215
370
-1
 48
1.0
  6
Continuous
 10
-5.4272367529049994
 20
-7.8570983988699998
 30
0.0
 11
-5.2888403661950001
 21
-7.4245400362099998
 31
0.0
  0
LINE
  5
A5
100
AcDbEntity
100
AcDbLine
  8
0
 62
7
420
16777215
370
-1
 48
1.0
  6
Continuous
 10
-5.8411967845649997
 20
-6.9969834478799999
 30
0.0
 11
-6.225257723635
 21
-7.2393828942600003
 31
0.0
  0
LINE
  5
A6
100
AcDbEntity
100
AcDbLine
  8
0
 62
7
420
16777215
370
-1
 48
1.0
  6
Continuous
 10
-5.2888403661950001
 20
-7.4245400362099998
 30
0.0
 11
-5.8411967845649997
 21
-6.9969834478799999
 31
0.0
  0
ARC
  5
A7
100
AcDbEntity
  8
0
 62
7
420
16777215
370
-1
 48
1.0
  6
Continuous
100
AcDbCircle
 10
0.0165383450450003
 20
0.0000002370200001
 30
0.0
 40
9.7789999999999999
100
AcDbArc
 50
225.4342957709999666
 51
227.4688139060000083
  0
ARC
  5
A8
100
AcDbEntity
  8
0
 62
7
420
16777215
370
-1
 48
1.0
  6
Continuous
100
AcDbCircle
 10
-5.1369335323350001
 20
-7.9499804709899999
 30
0.0
 40
0.3048
100
AcDbArc
 50
162.2580064519999894
 51
237.0471989970000095
  0
ARC
  5
A9
100
AcDbEntity
  8
0
 62
7
420
16777215
370
-1
 48
1.0
  6
Continuous
100
AcDbCircle
 10
-6.3879394497749997
 20
-6.9816277840099996
 30
0.0
 40
0.3048
100
AcDbArc
 50
227.4688139060000083
 51
302.2580064520000747
  0
LINE
  5
AA
100
AcDbEntity
100
AcDbLine
  8
0
 62
7
420
16777215
370
-1
 48
1.0
  6
Continuous
 10
-3.7341805242549997
 20
-8.7920867879499998
 30
0.0
 11
-3.6856904525349998
 21
-8.3405239352899994
 31
0.0
  0
LINE
  5
AB
100
AcDbEntity
100
AcDbLine
  8
0
 62
7
420
16777215
370
-1
 48
1.0
  6
Continuous
 10
-4.312806593735
 20
-8.0329079497099993
 30
0.0
 11
-4.6402111507249995
 21
-8.3476563454099999
 31
0.0
  0
LINE
  5
AC
100
AcDbEntity
100
AcDbLine
  8
0
 62
7
420
16777215
370
-1
 48
1.0
  6
Continuous
 10
-3.6856904525349998
 20
-8.3405239352899994
 30
0.0
 11
-4.312806593735
 21
-8.0329079497099993
 31
0.0
  0
ARC
  5
AD
100
AcDbEntity
  8
0
 62
7
420
16777215
370
-1
 48
1.0
  6
Continuous
100
AcDbCircle
 10
0.0165383450450003
 20
0.0000002370200001
 30
0.0
 40
9.7789999999999999
100
AcDbArc
 50
237.0471957709999913
 51
239.0817139060000045
  0
ARC
  5
AE
100
AcDbEntity
  8
0
 62
7
420
16777215
370
-1
 48
1.0
  6
Continuous
100
AcDbCircle
 10
-3.4311228058249998
 20
-8.8246299669799999
 30
0.0
 40
0.3048
100
AcDbArc
 50
173.8709064520000425
 51
248.6600989970000057
  0
ARC
  5
AF
100
AcDbEntity
  8
0
 62
7
420
16777215
370
-1
 48
1.0
  6
Continuous
100
AcDbCircle
 10
-4.8514484822349999
 20
-8.1279250762400004
 30
0.0
 40
0.3048
100
AcDbArc
 50
239.0817139060000045
 51
313.8709064519999856
  0
LINE
  5
B0
100
AcDbEntity
100
AcDbLine
  8
0
 62
7
420
16777215
370
-1
 48
1.0
  6
Continuous
 10
-1.8875695094149998
 20
-9.3671263004899998
 30
0.0
 11
-1.9309709408249998
 21
-8.9150459838299998
 31
0.0
  0
LINE
  5
B1
100
AcDbEntity
100
AcDbLine
  8
0
 62
7
420
16777215
370
-1
 48
1.0
  6
Continuous
 10
-2.6071726105749997
 20
-8.7399644286299996
 30
0.0
 11
-2.8645168118549997
 21
-9.1141759444799995
 31
0.0
  0
LINE
  5
B2
100
AcDbEntity
100
AcDbLine
  8
0
 62
7
420
16777215
370
-1
 48
1.0
  6
Continuous
 10
-1.9309709408249998
 20
-8.9150459838299998
 30
0.0
 11
-2.6071726105749997
 21
-8.7399644286299996
 31
0.0
  0
ARC
  5
B3
100
AcDbEntity
  8
0
 62
7
420
16777215
370
-1
 48
1.0
  6
Continuous
100
AcDbCircle
 10
0.0165383450450003
 20
0.0000002370200001
 30
0.0
 40
9.7789999999999999
100
AcDbArc
 50
248.6600957709999875
 51
250.6946139060000291
  0
ARC
  5
B4
100
AcDbEntity
  8
0
 62
7
420
16777215
370
-1
 48
1.0
  6
Continuous
100
AcDbCircle
 10
-1.5841645048749997
 20
-9.3379982655900005
 30
0.0
 40
0.3048
100
AcDbArc
 50
185.4838064520000103
 51
260.272998997000002
  0
ARC
  5
B5
100
AcDbEntity
  8
0
 62
7
420
16777215
370
-1
 48
1.0
  6
Continuous
100
AcDbCircle
 10
-3.1156616723549999
 20
-8.9414643353700001
 30
0.0
 40
0.3048
100
AcDbArc
 50
250.6946139060000291
 51
325.4838064519999534
  0
LINE
  5
B6
100
AcDbEntity
100
AcDbLine
  8
0
 62
7
420
16777215
370
-1
 48
1.0
  6
Continuous
 10
0.0369958615516003
 20
-9.5586747643199992
 30
0.0
 11
-0.0965202142769997
 21
-9.1245851946999998
 31
0.0
  0
LINE
  5
B7
100
AcDbEntity
100
AcDbLine
  8
0
 62
7
420
16777215
370
-1
 48
1.0
  6
Continuous
 10
-0.7941236520859997
 20
-9.0892059253399999
 30
0.0
 11
-0.9708718016589997
 21
-9.5075603063899994
 31
0.0
  0
LINE
  5
B8
100
AcDbEntity
100
AcDbLine
  8
0
 62
7
420
16777215
370
-1
 48
1.0
  6
Continuous
 10
-0.0965202142769997
 20
-9.1245851946999998
 30
0.0
 11
-0.7941236520859997
 21
-9.0892059253399999
 31
0.0
  0
ARC
  5
B9
100
AcDbEntity
  8
0
 62
7
420
16777215
370
-1
 48
1.0
  6
Continuous
100
AcDbCircle
 10
0.0165383450450003
 20
0.0000002370200001
 30
0.0
 40
9.7789999999999999
100
AcDbArc
 50
260.2729957710000122
 51
262.3075139060000538
  0
ARC
  5
BA
100
AcDbEntity
  8
0
 62
7
420
16777215
370
-1
 48
1.0
  6
Continuous
100
AcDbCircle
 10
0.3283267225530003
 20
-9.4690680200100008
 30
0.0
 40
0.3048
100
AcDbArc
 50
197.0967064519999781
 51
271.8858989970000266
  0
ARC
  5
BB
100
AcDbEntity
  8
0
 62
7
420
16777215
370
-1
 48
1.0
  6
Continuous
100
AcDbCircle
 10
-1.2516422967549996
 20
-9.3889391870099992
 30
0.0
 40
0.3048
100
AcDbArc
 50
262.3075139060000538
 51
337.0967064519999781
  0
LINE
  5
BC
100
AcDbEntity
100
AcDbLine
  8
0
 62
7
420
16777215
370
-1
 48
1.0
  6
Continuous
 10
1.9607236998550004
 20
-9.3588901671499993
 30
0.0
 11
1.7425591404150003
 21
-8.9605630127100007
 31
0.0
  0
LINE
  5
BD
100
AcDbEntity
100
AcDbLine
  8
0
 62
7
420
16777215
370
-1
 48
1.0
  6
Continuous
 10
1.0521138854350003
 20
-9.0663344598400002
 30
0.0
 11
0.9631978735760003
 21
-9.5117042380800001
 31
0.0
  0
LINE
  5
BE
100
AcDbEntity
100
AcDbLine
  8
0
 62
7
420
16777215
370
-1
 48
1.0
  6
Continuous
 10
1.7425591404150003
 20
-8.9605630127100007
 30
0.0
 11
1.0521138854350003
 21
-9.0663344598400002
 31
0.0
  0
ARC
  5
BF
100
AcDbEntity
  8
0
 62
7
420
16777215
370
-1
 48
1.0
  6
Continuous
100
AcDbCircle
 10
0.0165383450450003
 20
0.0000002370200001
 30
0.0
 40
9.7789999999999999
100
AcDbArc
 50
271.8858957709999231
 51
273.9204139060000216
  0
ARC
  5
C0
100
AcDbEntity
  8
0
 62
7
420
16777215
370
-1
 48
1.0
  6
Continuous
100
AcDbCircle
 10
2.2280533042350004
 20
-9.2124732220399999
 30
0.0
 40
0.3048
100
AcDbArc
 50
208.7096064520000027
 51
283.4987989969999944
  0
ARC
  5
C1
100
AcDbEntity
  8
0
 62
7
420
16777215
370
-1
 48
1.0
  6
Continuous
100
AcDbCircle
 10
0.6642965145900003
 20
-9.4520299682999998
 30
0.0
 40
0.3048
100
AcDbArc
 50
273.9204139060000216
 51
348.7096064520000027
  0
LINE
  5
C2
100
AcDbEntity
100
AcDbLine
  8
0
 62
7
420
16777215
370
-1
 48
1.0
  6
Continuous
 10
3.8048564053550002
 20
-8.7759517093500001
 30
0.0
 11
3.5109750400650004
 21
-8.4296945215699992
 31
0.0
  0
LINE
  5
C3
100
AcDbEntity
100
AcDbLine
  8
0
 62
7
420
16777215
370
-1
 48
1.0
  6
Continuous
 10
2.8559548621350004
 20
-8.6722863921099993
 30
0.0
 11
2.8585112179450003
 21
-9.1264380865699994
 31
0.0
  0
LINE
  5
C4
100
AcDbEntity
100
AcDbLine
  8
0
 62
7
420
16777215
370
-1
 48
1.0
  6
Continuous
 10
3.5109750400650004
 20
-8.4296945215699992
 30
0.0
 11
2.8559548621350004
 21
-8.6722863921099993
 31
0.0
  0
ARC
  5
C5
100
AcDbEntity
  8
0
 62
7
420
16777215
370
-1
 48
1.0
  6
Continuous
100
AcDbCircle
 10
0.0165383450450003
 20
0.0000002370200001
 30
0.0
 40
9.7789999999999999
100
AcDbArc
 50
283.4987957710000046
 51
285.5333139059999894
  0
ARC
  5
C6
100
AcDbEntity
  8
0
 62
7
420
16777215
370
-1
 48
1.0
  6
Continuous
100
AcDbCircle
 10
4.0372402537750007
 20
-8.57871888705
 30
0.0
 40
0.3048
100
AcDbArc
 50
220.3225064519999989
 51
295.1116989970000191
  0
ARC
  5
C7
100
AcDbEntity
  8
0
 62
7
420
16777215
370
-1
 48
1.0
  6
Continuous
100
AcDbCircle
 10
2.5537160450450003
 20
-9.1281537366500007
 30
0.0
 40
0.3048
100
AcDbArc
 50
285.5333139059999894
 51
0.3225064516
  0
LINE
  5
C8
100
AcDbEntity
100
AcDbLine
  8
0
 62
7
420
16777215
370
-1
 48
1.0
  6
Continuous
 10
5.4938950102350006
 20
-7.8337249466600003
 30
0.0
 11
5.1363283700550006
 21
-7.5537135276400003
 31
0.0
  0
LINE
  5
C9
100
AcDbEntity
100
AcDbLine
  8
0
 62
7
420
16777215
370
-1
 48
1.0
  6
Continuous
 10
4.5435498573749999
 20
-7.9231940874099998
 30
0.0
 11
4.6374739233950004
 21
-8.3675346846400007
 31
0.0
  0
LINE
  5
CA
100
AcDbEntity
100
AcDbLine
  8
0
 62
7
420
16777215
370
-1
 48
1.0
  6
Continuous
 10
5.1363283700550006
 20
-7.5537135276400003
 30
0.0
 11
4.5435498573749999
 21
-7.9231940874099998
 31
0.0
  0
ARC
  5
CB
100
AcDbEntity
  8
0
 62
7
420
16777215
370
-1
 48
1.0
  6
Continuous
100
AcDbCircle
 10
0.0165383450450003
 20
0.0000002370200001
 30
0.0
 40
9.7789999999999999
100
AcDbArc
 50
295.1116957709999724
 51
297.1462139060000709
  0
ARC
  5
CC
100
AcDbEntity
  8
0
 62
7
420
16777215
370
-1
 48
1.0
  6
Continuous
100
AcDbCircle
 10
5.6818192858950001
 20
-7.5937509776200001
 30
0.0
 40
0.3048
100
AcDbArc
 50
231.9354064519999952
 51
306.7245989969999869
  0
ARC
  5
CD
100
AcDbEntity
  8
0
 62
7
420
16777215
370
-1
 48
1.0
  6
Continuous
100
AcDbCircle
 10
4.3392632798650004
 20
-8.4305700157099999
 30
0.0
 40
0.3048
100
AcDbArc
 50
297.1462139060000709
 51
11.9354064516000005
  0
LINE
  5
CE
100
AcDbEntity
100
AcDbLine
  8
0
 62
7
420
16777215
370
-1
 48
1.0
  6
Continuous
 10
6.9586901138349999
 20
-6.5707847320899999
 30
0.0
 11
6.5520770109150002
 21
-6.3684827758699996
 31
0.0
  0
LINE
  5
CF
100
AcDbEntity
100
AcDbLine
  8
0
 62
7
420
16777215
370
-1
 48
1.0
  6
Continuous
 10
6.0458085719949999
 20
-6.8497254557199998
 30
0.0
 11
6.2272550880750002
 21
-7.2660636095499997
 31
0.0
  0
LINE
  5
D0
100
AcDbEntity
100
AcDbLine
  8
0
 62
7
420
16777215
370
-1
 48
1.0
  6
Continuous
 10
6.5520770109150002
 20
-6.3684827758699996
 30
0.0
 11
6.0458085719949999
 21
-6.8497254557199998
 31
0.0
  0
ARC
  5
D1
100
AcDbEntity
  8
0
 62
7
420
16777215
370
-1
 48
1.0
  6
Continuous
100
AcDbCircle
 10
0.0165383450450003
 20
0.0000002370200001
 30
0.0
 40
9.7789999999999999
100
AcDbArc
 50
306.7245957709999402
 51
308.7591139059999819
  0
ARC
  5
D2
100
AcDbEntity
  8
0
 62
7
420
16777215
370
-1
 48
1.0
  6
Continuous
100
AcDbCircle
 10
7.0944611790650001
 20
-6.2978941733599996
 30
0.0
 40
0.3048
100
AcDbArc
 50
243.5483064520000198
 51
318.3374989970000115
  0
ARC
  5
D3
100
AcDbEntity
  8
0
 62
7
420
16777215
370
-1
 48
1.0
  6
Continuous
100
AcDbCircle
 10
5.9478377459350007
 20
-7.3878379491699997
 30
0.0
 40
0.3048
100
AcDbArc
 50
308.7591139059999819
 51
23.5483064515999985
  0
LINE
  5
D4
100
AcDbEntity
100
AcDbLine
  8
0
 62
7
420
16777215
370
-1
 48
1.0
  6
Continuous
 10
8.1392728657049993
 20
-5.0388359577799999
 30
0.0
 11
7.700260079035
 21
-4.9225257256499999
 31
0.0
  0
LINE
  5
D5
100
AcDbEntity
100
AcDbLine
  8
0
 62
7
420
16777215
370
-1
 48
1.0
  6
Continuous
 10
7.3012283917950001
 20
-5.4958284046200001
 30
0.0
 11
7.5627689203350004
 21
-5.8671191915399996
 31
0.0
  0
LINE
  5
D6
100
AcDbEntity
100
AcDbLine
  8
0
 62
7
420
16777215
370
-1
 48
1.0
  6
Continuous
 10
7.700260079035
 20
-4.9225257256499999
 30
0.0
 11
7.3012283917950001
 21
-5.4958284046200001
 31
0.0
  0
ARC
  5
D7
100
AcDbEntity
  8
0
 62
7
420
16777215
370
-1
 48
1.0
  6
Continuous
100
AcDbCircle
 10
0.0165383450450003
 20
0.0000002370200001
 30
0.0
 40
9.7789999999999999
100
AcDbArc
 50
318.3374957710000217
 51
320.3720139060000065
  0
ARC
  5
D8
100
AcDbEntity
  8
0
 62
7
420
16777215
370
-1
 48
1.0
  6
Continuous
100
AcDbCircle
 10
8.2173322402250015
 20
-4.74420097471
 30
0.0
 40
0.3048
100
AcDbArc
 50
255.161206452000016
 51
329.9503989969999793
  0
ARC
  5
D9
100
AcDbEntity
  8
0
 62
7
420
16777215
370
-1
 48
1.0
  6
Continuous
100
AcDbCircle
 10
7.3135842520850005
 20
-6.0426470867099997
 30
0.0
 40
0.3048
100
AcDbArc
 50
320.3720139060000065
 51
35.1612064516000018
  0
LINE
  5
DA
100
AcDbEntity
100
AcDbLine
  8
0
 62
7
420
16777215
370
-1
 48
1.0
  6
Continuous
 10
8.9873100960349994
 20
-3.3005967518400001
 30
0.0
 11
8.5338708507349992
 21
-3.2750399957099998
 31
0.0
  0
LINE
  5
DB
100
AcDbEntity
100
AcDbLine
  8
0
 62
7
420
16777215
370
-1
 48
1.0
  6
Continuous
 10
8.258412310275002
 20
-3.91693160777
 30
0.0
 11
8.5893393572549996
 21
-4.22797434776
 31
0.0
  0
LINE
  5
DC
100
AcDbEntity
100
AcDbLine
  8
0
 62
7
420
16777215
370
-1
 48
1.0
  6
Continuous
 10
8.5338708507349992
 20
-3.2750399957099998
 30
0.0
 11
8.258412310275002
 21
-3.91693160777
 31
0.0
  0
ARC
  5
DD
100
AcDbEntity
  8
0
 62
7
420
16777215
370
-1
 48
1.0
  6
Continuous
100
AcDbCircle
 10
0.0165383450450003
 20
0.0000002370200001
 30
0.0
 40
9.7789999999999999
100
AcDbArc
 50
329.9503957709999895
 51
331.9849139059999743
  0
ARC
  5
DE
100
AcDbEntity
  8
0
 62
7
420
16777215
370
-1
 48
1.0
  6
Continuous
100
AcDbCircle
 10
9.0044620216450006
 20
-2.9962797285799998
 30
0.0
 40
0.3048
100
AcDbArc
 50
266.7741064520000123
 51
341.563298997000004
  0
ARC
  5
DF
100
AcDbEntity
  8
0
 62
7
420
16777215
370
-1
 48
1.0
  6
Continuous
100
AcDbCircle
 10
8.3805890068250015
 20
-4.4500696698099995
 30
0.0
 40
0.3048
100
AcDbArc
 50
331.9849139059999743
 51
46.774106451599998
  0
LINE
  5
E0
100
AcDbEntity
100
AcDbLine
  8
0
 62
7
420
16777215
370
-1
 48
1.0
  6
Continuous
 10
9.4680830801950009
 20
-1.4272307921799998
 30
0.0
 11
9.0187812219649999
 21
-1.4934738080799999
 31
0.0
  0
LINE
  5
E1
100
AcDbEntity
100
AcDbLine
  8
0
 62
7
420
16777215
370
-1
 48
1.0
  6
Continuous
 10
8.8781731270549997
 20
-2.17767524976
 30
0.0
 11
9.2649385077850006
 21
-2.4157358235499999
 31
0.0
  0
LINE
  5
E2
100
AcDbEntity
100
AcDbLine
  8
0
 62
7
420
16777215
370
-1
 48
1.0
  6
Continuous
 10
9.0187812219649999
 20
-1.4934738080799999
 30
0.0
 11
8.8781731270549997
 21
-2.17767524976
 31
0.0
  0
ARC
  5
E3
100
AcDbEntity
  8
0
 62
7
420
16777215
370
-1
 48
1.0
  6
Continuous
100
AcDbCircle
 10
0.0165383450450003
 20
0.0000002370200001
 30
0.0
 40
9.7789999999999999
100
AcDbArc
 50
341.5632957710000142
 51
343.597813905999999
  0
ARC
  5
E4
100
AcDbEntity
  8
0
 62
7
420
16777215
370
-1
 48
1.0
  6
Continuous
100
AcDbCircle
 10
9.423625355435
 20
-1.1256904965199999
 30
0.0
 40
0.3048
100
AcDbArc
 50
278.3870064519999801
 51
353.1761989969999718
  0
ARC
  5
E5
100
AcDbEntity
  8
0
 62
7
420
16777215
370
-1
 48
1.0
  6
Continuous
100
AcDbCircle
 10
9.1051687343250016
 20
-2.6753059689200001
 30
0.0
 40
0.3048
100
AcDbArc
 50
343.597813905999999
 51
58.3870064516000085
  0
LINE
  5
E6
100
AcDbEntity
100
AcDbLine
  8
0
 62
7
420
16777215
370
-1
 48
1.0
  6
Continuous
 10
9.5619089266150006
 20
0.5045661411610001
 30
0.0
 11
9.1351389161550003
 21
0.3492353485760001
 31
0.0
  0
LINE
  5
E7
100
AcDbEntity
100
AcDbLine
  8
0
 62
7
420
16777215
370
-1
 48
1.0
  6
Continuous
 10
9.1351377755249992
 20
-0.3492646508099999
 30
0.0
 11
9.5619072786450019
 21
-0.5045968359409999
 31
0.0
  0
LINE
  5
E8
100
AcDbEntity
100
AcDbLine
  8
0
 62
7
420
16777215
370
-1
 48
1.0
  6
Continuous
 10
9.1351389161550003
 20
0.3492353485760001
 30
0.0
 11
9.1351377755249992
 21
-0.3492646508099999
 31
0.0
  0
ARC
  5
E9
100
AcDbEntity
  8
0
 62
7
420
16777215
370
-1
 48
1.0
  6
Continuous
100
AcDbCircle
 10
0.0165383450450003
 20
0.0000002370200001
 30
0.0
 40
9.7789999999999999
100
AcDbArc
 50
353.176195770999982
 51
355.2107139060000236
  0
ARC
  5
EA
100
AcDbEntity
  8
0
 62
7
420
16777215
370
-1
 48
1.0
  6
Continuous
100
AcDbCircle
 10
9.4576616549550003
 20
0.790984620923
 30
0.0
 40
0.3048
100
AcDbArc
 50
289.9999064520000047
 51
4.7890989971
  0
ARC
  5
EB
100
AcDbEntity
  8
0
 62
7
420
16777215
370
-1
 48
1.0
  6
Continuous
100
AcDbCircle
 10
9.4576590718249989
 20
-0.7910149782649999
 30
0.0
 40
0.3048
100
AcDbArc
 50
355.2107139060000236
 51
69.9999064515999976
  0
LINE
  5
EC
100
AcDbEntity
100
AcDbLine
  8
0
 62
7
420
16777215
370
-1
 48
1.0
  6
Continuous
 10
9.2649463962649996
 20
2.4157060985400003
 30
0.0
 11
8.8781802382550019
 21
2.17764678665
 31
0.0
  0
LINE
  5
ED
100
AcDbEntity
100
AcDbLine
  8
0
 62
7
420
16777215
370
-1
 48
1.0
  6
Continuous
 10
9.0187860986050019
 20
1.49344488576
 30
0.0
 11
9.4680877401850019
 21
1.4272004036900001
 31
0.0
  0
LINE
  5
EE
100
AcDbEntity
100
AcDbLine
  8
0
 62
7
420
16777215
370
-1
 48
1.0
  6
Continuous
 10
8.8781802382550019
 20
2.17764678665
 30
0.0
 11
9.0187860986050019
 21
1.49344488576
 31
0.0
  0
ARC
  5
EF
100
AcDbEntity
  8
0
 62
7
420
16777215
370
-1
 48
1.0
  6
Continuous
100
AcDbCircle
 10
0.0165383450450003
 20
0.0000002370200001
 30
0.0
 40
9.7789999999999999
100
AcDbArc
 50
4.7890957713000004
 51
6.8236139061000003
  0
ARC
  5
F0
100
AcDbEntity
  8
0
 62
7
420
16777215
370
-1
 48
1.0
  6
Continuous
100
AcDbCircle
 10
9.1051774708849997
 20
2.6752767626800003
 30
0.0
 40
0.3048
100
AcDbArc
 50
301.6128064519999725
 51
16.4019989971000015
  0
ARC
  5
F1
100
AcDbEntity
  8
0
 62
7
420
16777215
370
-1
 48
1.0
  6
Continuous
100
AcDbCircle
 10
9.4236290314849995
 20
1.1256602503100002
 30
0.0
 40
0.3048
100
AcDbArc
 50
6.8236139061000003
 51
81.6128064515999796
  0
LINE
  5
F2
100
AcDbEntity
100
AcDbLine
  8
0
 62
256
370
-1
 48
1.0
  6
ByLayer
 10
-0.1308563649549997
 20
2.8004997270200001
 30
0.0
 11
0.1639330550450003
 21
2.8004997270200001
 31
0.0
  0
LINE
  5
F3
100
AcDbEntity
100
AcDbLine
  8
0
 62
256
370
-1
 48
1.0
  6
ByLayer
 10
-0.3103396740789997
 20
2.5875061928400003
 30
0.0
 11
-0.1308563649549997
 21
2.8004997270200001
 31
0.0
  0
LINE
  5
F4
100
AcDbEntity
100
AcDbLine
  8
0
 62
256
370
-1
 48
1.0
  6
ByLayer
 10
-0.8226815912739998
 20
2.6758613119799999
 30
0.0
 11
-0.5371535229829997
 21
2.74917245958
 31
0.0
  0
LINE
  5
F5
100
AcDbEntity
100
AcDbLine
  8
0
 62
256
370
-1
 48
1.0
  6
ByLayer
 10
-0.9435567642119997
 20
2.4249236774500003
 30
0.0
 11
-0.8226815912739998
 21
2.6758613119799999
 31
0.0
  0
LINE
  5
F6
100
AcDbEntity
100
AcDbLine
  8
0
 62
256
370
-1
 48
1.0
  6
ByLayer
 10
-1.4617755425549996
 20
2.38308870448
 30
0.0
 11
-1.2034496046049996
 21
2.5251045906500003
 31
0.0
  0
LINE
  5
F7
100
AcDbEntity
100
AcDbLine
  8
0
 62
256
370
-1
 48
1.0
  6
ByLayer
 10
-1.5164475476449997
 20
2.1099743040600001
 30
0.0
 11
-1.4617755425549996
 21
2.38308870448
 31
0.0
  0
LINE
  5
F8
100
AcDbEntity
100
AcDbLine
  8
0
 62
256
370
-1
 48
1.0
  6
ByLayer
 10
-2.0079815954249995
 20
1.9405778841800001
 30
0.0
 11
-1.7930893565549997
 21
2.1423751284999999
 31
0.0
  0
LINE
  5
F9
100
AcDbEntity
100
AcDbLine
  8
0
 62
256
370
-1
 48
1.0
  6
ByLayer
 10
-1.9930151895149999
 20
1.6624475000900001
 30
0.0
 11
-2.0079815954249995
 21
1.9405778841800001
 31
0.0
  0
LINE
  5
FA
100
AcDbEntity
100
AcDbLine
  8
0
 62
256
370
-1
 48
1.0
  6
ByLayer
 10
-2.4269796147749996
 20
1.3761334333600002
 30
0.0
 11
-2.2690235446549996
 21
1.62503237281
 31
0.0
  0
LINE
  5
FB
100
AcDbEntity
100
AcDbLine
  8
0
 62
256
370
-1
 48
1.0
  6
ByLayer
 10
-2.3433151921949995
 20
1.1104630205400001
 30
0.0
 11
-2.4269796147749996
 21
1.3761334333600002
 31
0.0
  0
LINE
  5
FC
100
AcDbEntity
100
AcDbLine
  8
0
 62
256
370
-1
 48
1.0
  6
ByLayer
 10
-2.6924424140749998
 20
0.725221472755
 30
0.0
 11
-2.6013474735249997
 21
1.0055828715800001
 31
0.0
  0
LINE
  5
FD
100
AcDbEntity
100
AcDbLine
  8
0
 62
256
370
-1
 48
1.0
  6
ByLayer
 10
-2.5453369181849999
 20
0.4887040802920001
 30
0.0
 11
-2.6924424140749998
 21
0.725221472755
 31
0.0
  0
LINE
  5
FE
100
AcDbEntity
100
AcDbLine
  8
0
 62
256
370
-1
 48
1.0
  6
ByLayer
 10
-2.7876899893449996
 20
0.0287411947297001
 30
0.0
 11
-2.7691800085049998
 21
0.3229489151480001
 31
0.0
  0
LINE
  5
FF
100
AcDbEntity
100
AcDbLine
  8
0
 62
256
370
-1
 48
1.0
  6
ByLayer
 10
-2.5863865994749995
 20
-0.1637619197499999
 30
0.0
 11
-2.7876899893449996
 21
0.0287411947297001
 31
0.0
  0
LINE
  5
100
100
AcDbEntity
100
AcDbLine
  8
0
 62
256
370
-1
 48
1.0
  6
ByLayer
 10
-2.7067375851349995
 20
-0.6695449833709999
 30
0.0
 11
-2.7619756141749998
 21
-0.3799770944549999
 31
0.0
  0
LINE
  5
101
100
AcDbEntity
100
AcDbLine
  8
0
 62
256
370
-1
 48
1.0
  6
ByLayer
 10
-2.4638849336049997
 20
-0.8059381412079999
 30
0.0
 11
-2.7067375851349995
 21
-0.6695449833709999
 31
0.0
  0
LINE
  5
102
100
AcDbEntity
100
AcDbLine
  8
0
 62
256
370
-1
 48
1.0
  6
ByLayer
 10
-2.4546717387249997
 20
-1.3257611728599998
 30
0.0
 11
-2.5801869691249997
 21
-1.05902773086
 31
0.0
  0
LINE
  5
103
100
AcDbEntity
100
AcDbLine
  8
0
 62
256
370
-1
 48
1.0
  6
ByLayer
 10
-2.1855291507849999
 20
-1.3974742903299999
 30
0.0
 11
-2.4546717387249997
 21
-1.3257611728599998
 31
0.0
  0
LINE
  5
104
100
AcDbEntity
100
AcDbLine
  8
0
 62
256
370
-1
 48
1.0
  6
ByLayer
 10
-2.0473306742749999
 20
-1.8986748971599998
 30
0.0
 11
-2.2352365225049997
 21
-1.6715357452099999
 31
0.0
  0
LINE
  5
105
100
AcDbEntity
100
AcDbLine
  8
0
 62
256
370
-1
 48
1.0
  6
ByLayer
 10
-1.7688093685649997
 20
-1.90120197534
 30
0.0
 11
-2.0473306742749999
 21
-1.8986748971599998
 31
0.0
  0
LINE
  5
106
100
AcDbEntity
100
AcDbLine
  8
0
 62
256
370
-1
 48
1.0
  6
ByLayer
 10
-1.5103091289549997
 20
-2.35228787993
 30
0.0
 11
-1.7487987795049997
 21
-2.1790150063199998
 31
0.0
  0
LINE
  5
107
100
AcDbEntity
100
AcDbLine
  8
0
 62
256
370
-1
 48
1.0
  6
ByLayer
 10
-1.2399096234449998
 20
-2.28547013322
 30
0.0
 11
-1.5103091289549997
 21
-2.35228787993
 31
0.0
  0
LINE
  5
108
100
AcDbEntity
100
AcDbLine
  8
0
 62
256
370
-1
 48
1.0
  6
ByLayer
 10
-0.8773501415029997
 20
-2.6580979492100001
 30
0.0
 11
-1.1514384125049997
 21
-2.54957872584
 31
0.0
  0
LINE
  5
109
100
AcDbEntity
100
AcDbLine
  8
0
 62
256
370
-1
 48
1.0
  6
ByLayer
 10
-0.6320626315739997
 20
-2.5261337823700001
 30
0.0
 11
-0.8773501415029997
 21
-2.6580979492100001
 31
0.0
  0
LINE
  5
10A
100
AcDbEntity
100
AcDbLine
  8
0
 62
256
370
-1
 48
1.0
  6
ByLayer
 10
-0.1882248529449997
 20
-2.7968899336499997
 30
0.0
 11
-0.4806897703189997
 21
-2.7599430224199999
 31
0.0
  0
LINE
  5
10B
100
AcDbEntity
100
AcDbLine
  8
0
 62
256
370
-1
 48
1.0
  6
ByLayer
 10
0.0165383450450003
 20
-2.6080711405999999
 30
0.0
 11
-0.1882248529449997
 21
-2.7968899336499997
 31
0.0
  0
LINE
  5
10C
100
AcDbEntity
100
AcDbLine
  8
0
 62
256
370
-1
 48
1.0
  6
ByLayer
 10
0.5137664604090003
 20
-2.7599430224199999
 30
0.0
 11
0.2213015430350003
 21
-2.7968899336499997
 31
0.0
  0
LINE
  5
10D
100
AcDbEntity
100
AcDbLine
  8
0
 62
256
370
-1
 48
1.0
  6
ByLayer
 10
0.6651393216640002
 20
-2.5261337823700001
 30
0.0
 11
0.5137664604090003
 21
-2.7599430224199999
 31
0.0
  0
LINE
  5
10E
100
AcDbEntity
100
AcDbLine
  8
0
 62
256
370
-1
 48
1.0
  6
ByLayer
 10
1.1845151025950003
 20
-2.54957872584
 30
0.0
 11
0.9104268315930003
 21
-2.6580979492100001
 31
0.0
  0
LINE
  5
10F
100
AcDbEntity
100
AcDbLine
  8
0
 62
256
370
-1
 48
1.0
  6
ByLayer
 10
1.2729863135350004
 20
-2.28547013322
 30
0.0
 11
1.1845151025950003
 21
-2.54957872584
 31
0.0
  0
LINE
  5
110
100
AcDbEntity
100
AcDbLine
  8
0
 62
256
370
-1
 48
1.0
  6
ByLayer
 10
1.7818754695950003
 20
-2.1790150063199998
 30
0.0
 11
1.5433858190450003
 21
-2.35228787993
 31
0.0
  0
LINE
  5
111
100
AcDbEntity
100
AcDbLine
  8
0
 62
256
370
-1
 48
1.0
  6
ByLayer
 10
1.8018860586550003
 20
-1.90120197534
 30
0.0
 11
1.7818754695950003
 21
-2.1790150063199998
 31
0.0
  0
LINE
  5
112
100
AcDbEntity
100
AcDbLine
  8
0
 62
256
370
-1
 48
1.0
  6
ByLayer
 10
2.2683132125950003
 20
-1.6715357452099999
 30
0.0
 11
2.0804073643650005
 21
-1.8986748971599998
 31
0.0
  0
LINE
  5
113
100
AcDbEntity
100
AcDbLine
  8
0
 62
256
370
-1
 48
1.0
  6
ByLayer
 10
2.2186058408750005
 20
-1.3974742903299999
 30
0.0
 11
2.2683132125950003
 21
-1.6715357452099999
 31
0.0
  0
LINE
  5
114
100
AcDbEntity
100
AcDbLine
  8
0
 62
256
370
-1
 48
1.0
  6
ByLayer
 10
2.6132636592150003
 20
-1.05902773086
 30
0.0
 11
2.4877484288150002
 21
-1.3257611728599998
 31
0.0
  0
LINE
  5
115
100
AcDbEntity
100
AcDbLine
  8
0
 62
256
370
-1
 48
1.0
  6
ByLayer
 10
2.4969616236950003
 20
-0.8059381412079999
 30
0.0
 11
2.6132636592150003
 21
-1.05902773086
 31
0.0
  0
LINE
  5
116
100
AcDbEntity
100
AcDbLine
  8
0
 62
256
370
-1
 48
1.0
  6
ByLayer
 10
2.7950523042650004
 20
-0.3799770944549999
 30
0.0
 11
2.7398142752250001
 21
-0.6695449833709999
 31
0.0
  0
LINE
  5
117
100
AcDbEntity
100
AcDbLine
  8
0
 62
256
370
-1
 48
1.0
  6
ByLayer
 10
2.6194632895650001
 20
-0.1637619197499999
 30
0.0
 11
2.7950523042650004
 21
-0.3799770944549999
 31
0.0
  0
LINE
  5
118
100
AcDbEntity
100
AcDbLine
  8
0
 62
256
370
-1
 48
1.0
  6
ByLayer
 10
2.8022566985950004
 20
0.3229489151480001
 30
0.0
 11
2.8207666794350001
 21
0.0287411947297001
 31
0.0
  0
LINE
  5
119
100
AcDbEntity
100
AcDbLine
  8
0
 62
256
370
-1
 48
1.0
  6
ByLayer
 10
2.5784136082750004
 20
0.4887040802920001
 30
0.0
 11
2.8022566985950004
 21
0.3229489151480001
 31
0.0
  0
LINE
  5
11A
100
AcDbEntity
100
AcDbLine
  8
0
 62
256
370
-1
 48
1.0
  6
ByLayer
 10
2.6344241636150003
 20
1.0055828715800001
 30
0.0
 11
2.7255191041650004
 21
0.725221472755
 31
0.0
  0
LINE
  5
11B
100
AcDbEntity
100
AcDbLine
  8
0
 62
256
370
-1
 48
1.0
  6
ByLayer
 10
2.3763918822850001
 20
1.1104630205400001
 30
0.0
 11
2.6344241636150003
 21
1.0055828715800001
 31
0.0
  0
LINE
  5
11C
100
AcDbEntity
100
AcDbLine
  8
0
 62
256
370
-1
 48
1.0
  6
ByLayer
 10
2.3021002347450001
 20
1.62503237281
 30
0.0
 11
2.4600563048650002
 21
1.3761334333600002
 31
0.0
  0
LINE
  5
11D
100
AcDbEntity
100
AcDbLine
  8
0
 62
256
370
-1
 48
1.0
  6
ByLayer
 10
2.0260918796050005
 20
1.6624475000900001
 30
0.0
 11
2.3021002347450001
 21
1.62503237281
 31
0.0
  0
LINE
  5
11E
100
AcDbEntity
100
AcDbLine
  8
0
 62
256
370
-1
 48
1.0
  6
ByLayer
 10
1.8261660466450003
 20
2.1423751284999999
 30
0.0
 11
2.0410582855150001
 21
1.9405778841800001
 31
0.0
  0
LINE
  5
11F
100
AcDbEntity
100
AcDbLine
  8
0
 62
256
370
-1
 48
1.0
  6
ByLayer
 10
1.5495242377350003
 20
2.1099743040600001
 30
0.0
 11
1.8261660466450003
 21
2.1423751284999999
 31
0.0
  0
LINE
  5
120
100
AcDbEntity
100
AcDbLine
  8
0
 62
256
370
-1
 48
1.0
  6
ByLayer
 10
1.2365262946950002
 20
2.5251045906500003
 30
0.0
 11
1.4948522326450002
 21
2.38308870448
 31
0.0
  0
LINE
  5
121
100
AcDbEntity
100
AcDbLine
  8
0
 62
256
370
-1
 48
1.0
  6
ByLayer
 10
0.9766334543020003
 20
2.4249236774500003
 30
0.0
 11
1.2365262946950002
 21
2.5251045906500003
 31
0.0
  0
LINE
  5
122
100
AcDbEntity
100
AcDbLine
  8
0
 62
256
370
-1
 48
1.0
  6
ByLayer
 10
0.5702302130730003
 20
2.74917245958
 30
0.0
 11
0.8557582813640003
 21
2.6758613119799999
 31
0.0
  0
LINE
  5
123
100
AcDbEntity
100
AcDbLine
  8
0
 62
256
370
-1
 48
1.0
  6
ByLayer
 10
0.3434163641690003
 20
2.5875061928400003
 30
0.0
 11
0.5702302130730003
 21
2.74917245958
 31
0.0
  0
LINE
  5
124
100
AcDbEntity
100
AcDbLine
  8
0
 62
256
370
-1
 48
1.0
  6
ByLayer
 10
0.3434163641690003
 20
2.5875061928400003
 30
0.0
 11
0.1639330550450003
 21
2.8004997270200001
 31
0.0
  0
LINE
  5
125
100
AcDbEntity
100
AcDbLine
  8
0
 62
256
370
-1
 48
1.0
  6
ByLayer
 10
-0.3103396740789997
 20
2.5875061928400003
 30
0.0
 11
-0.5371535229829997
 21
2.74917245958
 31
0.0
  0
LINE
  5
126
100
AcDbEntity
100
AcDbLine
  8
0
 62
256
370
-1
 48
1.0
  6
ByLayer
 10
-0.9435567642119997
 20
2.4249236774500003
 30
0.0
 11
-1.2034496046049996
 21
2.5251045906500003
 31
0.0
  0
LINE
  5
127
100
AcDbEntity
100
AcDbLine
  8
0
 62
256
370
-1
 48
1.0
  6
ByLayer
 10
-1.5164475476449997
 20
2.1099743040600001
 30
0.0
 11
-1.7930893565549997
 21
2.1423751284999999
 31
0.0
  0
LINE
  5
128
100
AcDbEntity
100
AcDbLine
  8
0
 62
256
370
-1
 48
1.0
  6
ByLayer
 10
-1.9930151895149999
 20
1.6624475000900001
 30
0.0
 11
-2.2690235446549996
 21
1.62503237281
 31
0.0
  0
LINE
  5
129
100
AcDbEntity
100
AcDbLine
  8
0
 62
256
370
-1
 48
1.0
  6
ByLayer
 10
-2.3433151921949995
 20
1.1104630205400001
 30
0.0
 11
-2.6013474735249997
 21
1.0055828715800001
 31
0.0
  0
LINE
  5
12A
100
AcDbEntity
100
AcDbLine
  8
0
 62
256
370
-1
 48
1.0
  6
ByLayer
 10
-2.5453369181849999
 20
0.4887040802920001
 30
0.0
 11
-2.7691800085049998
 21
0.3229489151480001
 31
0.0
  0
LINE
  5
12B
100
AcDbEntity
100
AcDbLine
  8
0
 62
256
370
-1
 48
1.0
  6
ByLayer
 10
-2.5863865994749995
 20
-0.1637619197499999
 30
0.0
 11
-2.7619756141749998
 21
-0.3799770944549999
 31
0.0
  0
LINE
  5
12C
100
AcDbEntity
100
AcDbLine
  8
0
 62
256
370
-1
 48
1.0
  6
ByLayer
 10
-2.4638849336049997
 20
-0.8059381412079999
 30
0.0
 11
-2.5801869691249997
 21
-1.05902773086
 31
0.0
  0
LINE
  5
12D
100
AcDbEntity
100
AcDbLine
  8
0
 62
256
370
-1
 48
1.0
  6
ByLayer
 10
-2.1855291507849999
 20
-1.3974742903299999
 30
0.0
 11
-2.2352365225049997
 21
-1.6715357452099999
 31
0.0
  0
LINE
  5
12E
100
AcDbEntity
100
AcDbLine
  8
0
 62
256
370
-1
 48
1.0
  6
ByLayer
 10
-1.7688093685649997
 20
-1.90120197534
 30
0.0
 11
-1.7487987795049997
 21
-2.1790150063199998
 31
0.0
  0
LINE
  5
12F
100
AcDbEntity
100
AcDbLine
  8
0
 62
256
370
-1
 48
1.0
  6
ByLayer
 10
-1.2399096234449998
 20
-2.28547013322
 30
0.0
 11
-1.1514384125049997
 21
-2.54957872584
 31
0.0
  0
LINE
  5
130
100
AcDbEntity
100
AcDbLine
  8
0
 62
256
370
-1
 48
1.0
  6
ByLayer
 10
-0.6320626315739997
 20
-2.5261337823700001
 30
0.0
 11
-0.4806897703189997
 21
-2.7599430224199999
 31
0.0
  0
LINE
  5
131
100
AcDbEntity
100
AcDbLine
  8
0
 62
256
370
-1
 48
1.0
  6
ByLayer
 10
0.0165383450450003
 20
-2.6080711405999999
 30
0.0
 11
0.2213015430350003
 21
-2.7968899336499997
 31
0.0
  0
LINE
  5
132
100
AcDbEntity
100
AcDbLine
  8
0
 62
256
370
-1
 48
1.0
  6
ByLayer
 10
0.6651393216640002
 20
-2.5261337823700001
 30
0.0
 11
0.9104268315930003
 21
-2.6580979492100001
 31
0.0
  0
LINE
  5
133
100
AcDbEntity
100
AcDbLine
  8
0
 62
256
370
-1
 48
1.0
  6
ByLayer
 10
1.2729863135350004
 20
-2.28547013322
 30
0.0
 11
1.5433858190450003
 21
-2.35228787993
 31
0.0
  0
LINE
  5
134
100
AcDbEntity
100
AcDbLine
  8
0
 62
256
370
-1
 48
1.0
  6
ByLayer
 10
1.8018860586550003
 20
-1.90120197534
 30
0.0
 11
2.0804073643650005
 21
-1.8986748971599998
 31
0.0
  0
LINE
  5
135
100
AcDbEntity
100
AcDbLine
  8
0
 62
256
370
-1
 48
1.0
  6
ByLayer
 10
2.2186058408750005
 20
-1.3974742903299999
 30
0.0
 11
2.4877484288150002
 21
-1.3257611728599998
 31
0.0
  0
LINE
  5
136
100
AcDbEntity
100
AcDbLine
  8
0
 62
256
370
-1
 48
1.0
  6
ByLayer
 10
2.4969616236950003
 20
-0.8059381412079999
 30
0.0
 11
2.7398142752250001
 21
-0.6695449833709999
 31
0.0
  0
LINE
  5
137
100
AcDbEntity
100
AcDbLine
  8
0
 62
256
370
-1
 48
1.0
  6
ByLayer
 10
2.6194632895650001
 20
-0.1637619197499999
 30
0.0
 11
2.8207666794350001
 21
0.0287411947297001
 31
0.0
  0
LINE
  5
138
100
AcDbEntity
100
AcDbLine
  8
0
 62
256
370
-1
 48
1.0
  6
ByLayer
 10
2.5784136082750004
 20
0.4887040802920001
 30
0.0
 11
2.7255191041650004
 21
0.725221472755
 31
0.0
  0
LINE
  5
139
100
AcDbEntity
100
AcDbLine
  8
0
 62
256
370
-1
 48
1.0
  6
ByLayer
 10
2.3763918822850001
 20
1.1104630205400001
 30
0.0
 11
2.4600563048650002
 21
1.3761334333600002
 31
0.0
  0
LINE
  5
13A
100
AcDbEntity
100
AcDbLine
  8
0
 62
256
370
-1
 48
1.0
  6
ByLayer
 10
2.0260918796050005
 20
1.6624475000900001
 30
0.0
 11
2.0410582855150001
 21
1.9405778841800001
 31
0.0
  0
LINE
  5
13B
100
AcDbEntity
100
AcDbLine
  8
0
 62
256
370
-1
 48
1.0
  6
ByLayer
 10
1.5495242377350003
 20
2.1099743040600001
 30
0.0
 11
1.4948522326450002
 21
2.38308870448
 31
0.0
  0
LINE
  5
13C
100
AcDbEntity
100
AcDbLine
  8
0
 62
256
370
-1
 48
1.0
  6
ByLayer
 10
0.9766334543020003
 20
2.4249236774500003
 30
0.0
 11
0.8557582813640003
 21
2.6758613119799999
 31
0.0
  0
ENDSEC
  0
SECTION
  2
OBJECTS
  0
DICTIONARY
  5
C
100
AcDbDictionary
280
0
281
1
  3
ACAD_GROUP
350
D
  3
ACAD_LAYOUT
350
1A
  3
ACAD_MLINESTYLE
350
17
  3
ACAD_PLOTSETTINGS
350
19
  3
ACAD_PLOTSTYLENAME
350
E
  3
AcDbVariableDictionary
350
13D
  3
QCAD_OBJECTS
350
13E
  0
DICTIONARY
  5
D
100
AcDbDictionary
280
0
281
1
  0
ACDBDICTIONARYWDFLT
  5
E
100
AcDbDictionary
281
1
  3
Normal
350
F
100
AcDbDictionaryWithDefault
340
F
  0
ACDBPLACEHOLDER
  5
F
  0
DICTIONARY
  5
17
100
AcDbDictionary
280
0
281
1
  3
Standard
350
18
  0
MLINESTYLE
  5
18
100
AcDbMlineStyle
  2
STANDARD
 70
0
  3

 62
256
 51
90.0
 52
90.0
 71
2
 49
0.5
 62
256
  6
BYLAYER
 49
-0.5
 62
256
  6
BYLAYER
  0
DICTIONARY
  5
19
100
AcDbDictionary
280
0
281
1
  0
DICTIONARY
  5
1A
100
AcDbDictionary
281
1
  3
Layout1
350
1E
  3
Layout2
350
26
  3
Model
350
22
  0
LAYOUT
  5
1E
100
AcDbPlotSettings
  1

  2
none_device
  4

  6

 40
0.0
 41
0.0
 42
0.0
 43
0.0
 44
0.0
 45
0.0
 46
0.0
 47
0.0
 48
0.0
 49
0.0
140
0.0
141
0.0
142
1.0
143
1.0
 70
688
 72
0
 73
0
 74
5
  7

 75
16
147
1.0
148
0.0
149
0.0
100
AcDbLayout
  1
Layout1
 70
1
 71
1
 10
0.0
 20
0.0
 11
420.0
 21
297.0
 12
0.0
 22
0.0
 32
0.0
 14
100000000000000000000.0
 24
100000000000000000000.0
 34
100000000000000000000.0
 15
-100000000000000000000.0
 25
-100000000000000000000.0
 35
-100000000000000000000.0
146
0.0
 13
0.0
 23
0.0
 33
0.0
 16
1.0
 26
0.0
 36
0.0
 17
0.0
 27
1.0
 37
0.0
 76
0
330
1B
  0
LAYOUT
  5
22
100
AcDbPlotSettings
  1

  2
none_device
  4

  6

 40
0.0
 41
0.0
 42
0.0
 43
0.0
 44
0.0
 45
0.0
 46
0.0
 47
0.0
 48
0.0
 49
0.0
140
0.0
141
0.0
142
1.0
143
1.0
 70
1712
 72
0
 73
0
 74
0
  7

 75
0
147
1.0
148
0.0
149
0.0
100
AcDbLayout
  1
Model
 70
1
 71
0
 10
0.0
 20
0.0
 11
12.0
 21
9.0
 12
0.0
 22
0.0
 32
0.0
 14
0.0
 24
0.0
 34
0.0
 15
0.0
 25
0.0
 35
0.0
146
0.0
 13
0.0
 23
0.0
 33
0.0
 16
1.0
 26
0.0
 36
0.0
 17
0.0
 27
1.0
 37
0.0
 76
0
330
1F
  0
LAYOUT
  5
26
100
AcDbPlotSettings
  1

  2
none_device
  4

  6

 40
0.0
 41
0.0
 42
0.0
 43
0.0
 44
0.0
 45
0.0
 46
0.0
 47
0.0
 48
0.0
 49
0.0
140
0.0
141
0.0
142
1.0
143
1.0
 70
688
 72
0
 73
0
 74
5
  7

 75
16
147
1.0
148
0.0
149
0.0
100
AcDbLayout
  1
Layout2
 70
1
 71
2
 10
0.0
 20
0.0
 11
12.0
 21
9.0
 12
0.0
 22
0.0
 32
0.0
 14
0.0
 24
0.0
 34
0.0
 15
0.0
 25
0.0
 35
0.0
146
0.0
 13
0.0
 23
0.0
 33
0.0
 16
1.0
 26
0.0
 36
0.0
 17
0.0
 27
1.0
 37
0.0
 76
0
330
23
  0
DICTIONARY
  5
13D
100
AcDbDictionary
281
1
  3
DIMASSOC
350
140
  3
HIDETEXT
350
13F
  0
DICTIONARYVAR
  5
13F
100
DictionaryVariables
280
0
  1
2
  0
DICTIONARYVAR
  5
140
100
DictionaryVariables
280
0
  1
1
  0
DICTIONARY
  5
13E
100
AcDbDictionary
281
1
  3
Grid/DisplayGrid00
350
141
  3
Grid/DisplayGrid01
350
142
  3
Grid/DisplayGrid02
350
143
  3
Grid/DisplayGrid03
350
144
  3
Grid/GridSpacingX00
350
145
  3
Grid/GridSpacingX01
350
146
  3
Grid/GridSpacingX02
350
147
  3
Grid/GridSpacingX03
350
148
  3
Grid/GridSpacingY00
350
149
  3
Grid/GridSpacingY01
350
14A
  3
Grid/GridSpacingY02
350
14B
  3
Grid/GridSpacingY03
350
14C
  3
Grid/IsometricGrid00
350
14D
  3
Grid/IsometricGrid01
350
14E
  3
Grid/IsometricGrid02
350
14F
  3
Grid/IsometricGrid03
350
150
  3
Grid/IsometricProjection00
350
151
  3
Grid/IsometricProjection01
350
152
  3
Grid/IsometricProjection02
350
153
  3
Grid/IsometricProjection03
350
154
  3
Grid/MetaGridSpacingX00
350
155
  3
Grid/MetaGridSpacingX01
350
156
  3
Grid/MetaGridSpacingX02
350
157
  3
Grid/MetaGridSpacingX03
350
158
  3
Grid/MetaGridSpacingY00
350
159
  3
Grid/MetaGridSpacingY01
350
15A
  3
Grid/MetaGridSpacingY02
350
15B
  3
Grid/MetaGridSpacingY03
350
15C
  3
MultiPageSettings/Columns
350
15D
  3
MultiPageSettings/GlueMarginsBottom
350
15E
  3
MultiPageSettings/GlueMarginsLeft
350
15F
  3
MultiPageSettings/GlueMarginsRight
350
160
  3
MultiPageSettings/GlueMarginsTop
350
161
  3
MultiPageSettings/PrintCropMarks
350
162
  3
MultiPageSettings/Rows
350
163
  3
PageSettings/OffsetX
350
164
  3
PageSettings/OffsetY
350
165
  3
PageSettings/PageOrientation
350
166
  3
PageSettings/PaperHeight
350
167
  3
PageSettings/PaperWidth
350
168
  3
PageSettings/Scale
350
169
  3
PageSettings/ShowPaperBorders
350
16A
  3
UnitSettings/PaperUnit
350
16B
  0
XRECORD
  5
141
330
13E
100
AcDbXrecord
280
1
290
1
  0
XRECORD
  5
142
330
13E
100
AcDbXrecord
280
1
290
1
  0
XRECORD
  5
143
330
13E
100
AcDbXrecord
280
1
290
1
  0
XRECORD
  5
144
330
13E
100
AcDbXrecord
280
1
290
1
  0
XRECORD
  5
145
330
13E
100
AcDbXrecord
280
1
1000
auto
  0
XRECORD
  5
146
330
13E
100
AcDbXrecord
280
1
1000
auto
  0
XRECORD
  5
147
330
13E
100
AcDbXrecord
280
1
1000
auto
  0
XRECORD
  5
148
330
13E
100
AcDbXrecord
280
1
1000
auto
  0
XRECORD
  5
149
330
13E
100
AcDbXrecord
280
1
1000
auto
  0
XRECORD
  5
14A
330
13E
100
AcDbXrecord
280
1
1000
auto
  0
XRECORD
  5
14B
330
13E
100
AcDbXrecord
280
1
1000
auto
  0
XRECORD
  5
14C
330
13E
100
AcDbXrecord
280
1
1000
auto
  0
XRECORD
  5
14D
330
13E
100
AcDbXrecord
280
1
290
0
  0
XRECORD
  5
14E
330
13E
100
AcDbXrecord
280
1
290
0
  0
XRECORD
  5
14F
330
13E
100
AcDbXrecord
280
1
290
0
  0
XRECORD
  5
150
330
13E
100
AcDbXrecord
280
1
290
0
  0
XRECORD
  5
151
330
13E
100
AcDbXrecord
280
1
 90
0
  0
XRECORD
  5
152
330
13E
100
AcDbXrecord
280
1
 90
0
  0
XRECORD
  5
153
330
13E
100
AcDbXrecord
280
1
 90
0
  0
XRECORD
  5
154
330
13E
100
AcDbXrecord
280
1
 90
0
  0
XRECORD
  5
155
330
13E
100
AcDbXrecord
280
1
1000
auto
  0
XRECORD
  5
156
330
13E
100
AcDbXrecord
280
1
1000
auto
  0
XRECORD
  5
157
330
13E
100
AcDbXrecord
280
1
1000
auto
  0
XRECORD
  5
158
330
13E
100
AcDbXrecord
280
1
1000
auto
  0
XRECORD
  5
159
330
13E
100
AcDbXrecord
280
1
1000
auto
  0
XRECORD
  5
15A
330
13E
100
AcDbXrecord
280
1
1000
auto
  0
XRECORD
  5
15B
330
13E
100
AcDbXrecord
280
1
1000
auto
  0
XRECORD
  5
15C
330
13E
100
AcDbXrecord
280
1
1000
auto
  0
XRECORD
  5
15D
330
13E
100
AcDbXrecord
280
1
 90
1
  0
XRECORD
  5
15E
330
13E
100
AcDbXrecord
280
1
 40
10.0
  0
XRECORD
  5
15F
330
13E
100
AcDbXrecord
280
1
 40
10.0
  0
XRECORD
  5
160
330
13E
100
AcDbXrecord
280
1
 40
10.0
  0
XRECORD
  5
161
330
13E
100
AcDbXrecord
280
1
 40
10.0
  0
XRECORD
  5
162
330
13E
100
AcDbXrecord
280
1
290
0
  0
XRECORD
  5
163
330
13E
100
AcDbXrecord
280
1
 90
1
  0
XRECORD
  5
164
330
13E
100
AcDbXrecord
280
1
 40
0.0
  0
XRECORD
  5
165
330
13E
100
AcDbXrecord
280
1
 40
0.0
  0
XRECORD
  5
166
330
13E
100
AcDbXrecord
280
1
1000
Portrait
  0
XRECORD
  5
167
330
13E
100
AcDbXrecord
280
1
 40
297.0
  0
XRECORD
  5
168
330
13E
100
AcDbXrecord
280
1
 40
210.0
  0
XRECORD
  5
169
330
13E
100
AcDbXrecord
280
1
1000
1:1
  0
XRECORD
  5
16A
330
13E
100
AcDbXrecord
280
1
290
1
  0
XRECORD
  5
16B
330
13E
100
AcDbXrecord
280
1
 90
4
  0
ENDSEC
  0
EOF
