999
dxflib 3.7.0.0
  0
SECTION
  2
HEADER
  9
$ACADVER
  1
AC1015
  9
$HANDSEED
  5
FFFF
  9
$DIMADEC
 70
0
  9
$DIMASZ
 40
2.5
  9
$DIMAUNIT
 70
0
  9
$DIMAZIN
 70
2
  9
$DIMDEC
 70
4
  9
$DIMEXE
 40
1.25
  9
$DIMEXO
 40
0.625
  9
$DIMGAP
 40
0.625
  9
$DIMLUNIT
 70
2
  9
$DIMSCALE
 40
1.0
  9
$DIMTSZ
 40
0.0
  9
$DIMTXT
 40
2.5
  9
$DIMZIN
 70
8
  9
$DWGCODEPAGE
  3
ANSI_1252
  9
$INSUNITS
 70
4
  0
ENDSEC
  0
SECTION
  2
TABLES
  0
TABLE
  2
VPORT
  5
8
100
AcDbSymbolTable
 70
1
  0
VPORT
  5
30
100
AcDbSymbolTableRecord
100
AcDbViewportTableRecord
  2
*Active
 70
0
 10
0.0
 20
0.0
 11
1.0
 21
1.0
 12
286.3055555555554861
 22
148.5
 13
0.0
 23
0.0
 14
10.0
 24
10.0
 15
10.0
 25
10.0
 16
0.0
 26
0.0
 36
1.0
 17
0.0
 27
0.0
 37
0.0
 40
297.0
 41
1.92798353909465
 42
50.0
 43
0.0
 44
0.0
 50
0.0
 51
0.0
 71
0
 72
100
 73
1
 74
3
 75
1
 76
1
 77
0
 78
0
281
0
 65
1
110
0.0
120
0.0
130
0.0
111
1.0
121
0.0
131
0.0
112
0.0
122
1.0
132
0.0
 79
0
146
0.0
  0
ENDTAB
  0
TABLE
  2
LTYPE
  5
5
100
AcDbSymbolTable
 70
3
  0
LTYPE
  5
16
100
AcDbSymbolTableRecord
100
AcDbLinetypeTableRecord
  2
Continuous
 70
0
  3
Solid line
 72
65
 73
0
 40
0.0
  0
LTYPE
  5
15
100
AcDbSymbolTableRecord
100
AcDbLinetypeTableRecord
  2
ByLayer
 70
0
  3

 72
65
 73
0
 40
0.0
  0
LTYPE
  5
14
100
AcDbSymbolTableRecord
100
AcDbLinetypeTableRecord
  2
BYBLOCK
 70
0
  3

 72
65
 73
0
 40
0.0
  0
ENDTAB
  0
TABLE
  2
LAYER
  5
2
100
AcDbSymbolTable
 70
7
  0
LAYER
  5
31
100
AcDbSymbolTableRecord
100
AcDbLayerTableRecord
  2
base
 70
0
 62
94
420
32768
  6
Continuous
370
25
390
F
  0
LAYER
  5
32
100
AcDbSymbolTableRecord
100
AcDbLayerTableRecord
  2
servo
 70
0
 62
4
420
65535
  6
Continuous
370
25
390
F
  0
LAYER
  5
33
100
AcDbSymbolTableRecord
100
AcDbLayerTableRecord
  2
pulley
 70
0
 62
6
420
16711935
  6
Continuous
370
25
390
F
  0
LAYER
  5
34
100
AcDbSymbolTableRecord
100
AcDbLayerTableRecord
  2
side
 70
0
 62
2
420
16776960
  6
Continuous
370
25
390
F
  0
LAYER
  5
35
100
AcDbSymbolTableRecord
100
AcDbLayerTableRecord
  2
rods
 70
0
 62
4
420
65535
  6
Continuous
370
25
390
F
  0
LAYER
  5
36
100
AcDbSymbolTableRecord
100
AcDbLayerTableRecord
  2
rollers
 70
0
 62
6
420
16711935
  6
Continuous
370
25
390
F
  0
LAYER
  5
10
100
AcDbSymbolTableRecord
100
AcDbLayerTableRecord
  2
0
 70
0
 62
7
420
16777215
  6
Continuous
370
25
390
F
  0
ENDTAB
  0
TABLE
  2
STYLE
  5
3
100
AcDbSymbolTable
 70
1
  0
STYLE
  5
37
100
AcDbSymbolTableRecord
100
AcDbTextStyleTableRecord
  2
Standard
 70
0
 40
0.0
 41
1.0
 50
0.0
 71
0
 42
2.5
  3

  4

1001
ACAD
1000
txt
1071
0
  0
ENDTAB
  0
TABLE
  2
VIEW
  5
6
100
AcDbSymbolTable
 70
0
  0
ENDTAB
  0
TABLE
  2
UCS
  5
7
100
AcDbSymbolTable
 70
0
  0
ENDTAB
  0
TABLE
  2
APPID
  5
9
100
AcDbSymbolTable
 70
1
  0
APPID
  5
12
100
AcDbSymbolTableRecord
100
AcDbRegAppTableRecord
  2
ACAD
 70
0
  0
APPID
  5
38
100
AcDbSymbolTableRecord
100
AcDbRegAppTableRecord
  2
QCAD
 70
0
  0
ENDTAB
  0
TABLE
  2
DIMSTYLE
  5
A
100
AcDbSymbolTable
 70
1
100
AcDbDimStyleTable
 71
0
  0
DIMSTYLE
105
27
100
AcDbSymbolTableRecord
100
AcDbDimStyleTableRecord
  2
Standard
 41
2.5
 42
0.625
 43
3.75
 44
1.25
 70
0
 73
0
 74
0
 77
1
 78
8
140
2.5
141
2.5
143
0.03937007874016
147
0.625
171
3
172
1
271
2
272
2
274
3
278
44
283
0
284
8
340
37
  0
ENDTAB
  0
TABLE
  2
BLOCK_RECORD
  5
1
100
AcDbSymbolTable
 70
1
  0
BLOCK_RECORD
  5
1F
100
AcDbSymbolTableRecord
100
AcDbBlockTableRecord
  2
*Model_Space
340
22
  0
BLOCK_RECORD
  5
1B
100
AcDbSymbolTableRecord
100
AcDbBlockTableRecord
  2
*Paper_Space
340
1E
  0
BLOCK_RECORD
  5
23
100
AcDbSymbolTableRecord
100
AcDbBlockTableRecord
  2
*Paper_Space0
340
26
  0
ENDTAB
  0
ENDSEC
  0
SECTION
  2
BLOCKS
  0
BLOCK
  5
20
100
AcDbEntity
  8
0
100
AcDbBlockBegin
  2
*Model_Space
 70
0
 10
0.0
 20
0.0
 30
0.0
  3
*Model_Space
  1

  0
ENDBLK
  5
21
100
AcDbEntity
  8
0
100
AcDbBlockEnd
  0
BLOCK
  5
1C
100
AcDbEntity
 67
1
  8
0
100
AcDbBlockBegin
  2
*Paper_Space
 70
0
 10
0.0
 20
0.0
 30
0.0
  3
*Paper_Space
  1

  0
ENDBLK
  5
1D
100
AcDbEntity
 67
1
  8
0
100
AcDbBlockEnd
  0
BLOCK
  5
24
100
AcDbEntity
  8
0
100
AcDbBlockBegin
  2
*Paper_Space0
 70
0
 10
0.0
 20
0.0
 30
0.0
  3
*Paper_Space0
  1

  0
ENDBLK
  5
25
100
AcDbEntity
  8
0
100
AcDbBlockEnd
  0
ENDSEC
  0
SECTION
  2
ENTITIES
  0
CIRCLE
  5
39
100
AcDbEntity
100
AcDbCircle
  8
servo
 62
256
370
-1
 48
1.0
  6
ByLayer
 10
-5.085
 20
0.0
 30
0.0
 40
2.1899999999999999
  0
CIRCLE
  5
3A
100
AcDbEntity
100
AcDbCircle
  8
servo
 62
256
370
-1
 48
1.0
  6
ByLayer
 10
5.085
 20
0.0
 30
0.0
 40
2.1899999999999999
  0
CIRCLE
  5
3B
100
AcDbEntity
100
AcDbCircle
  8
servo
 62
256
370
-1
 48
1.0
  6
ByLayer
 10
-5.0849999999999973
 20
47.259999999999998
 30
0.0
 40
2.1899999999999999
  0
CIRCLE
  5
3C
100
AcDbEntity
100
AcDbCircle
  8
servo
 62
256
370
-1
 48
1.0
  6
ByLayer
 10
5.0850000000000026
 20
47.259999999999998
 30
0.0
 40
2.1899999999999999
  0
CIRCLE
  5
3D
100
AcDbEntity
100
AcDbCircle
  8
servo
 62
256
370
-1
 48
1.0
  6
ByLayer
 10
0.0000000000000018
 20
33.7899999999999991
 30
0.0
 40
2.1899999999999999
  0
LINE
  5
3E
100
AcDbEntity
100
AcDbLine
  8
servo
 62
256
370
-1
 48
1.0
  6
ByLayer
 10
-9.9100000000000001
 20
3.2400000000000002
 30
0.0
 11
9.9100000000000001
 21
3.2400000000000002
 31
0.0
  0
LINE
  5
3F
100
AcDbEntity
100
AcDbLine
  8
servo
 62
256
370
-1
 48
1.0
  6
ByLayer
 10
-9.9100000000000001
 20
44.019999999999996
 30
0.0
 11
9.9100000000000001
 21
44.019999999999996
 31
0.0
  0
LINE
  5
40
100
AcDbEntity
100
AcDbLine
  8
servo
 62
256
370
-1
 48
1.0
  6
ByLayer
 10
-9.9100000000000001
 20
44.019999999999996
 30
0.0
 11
-9.9100000000000001
 21
3.2400000000000002
 31
0.0
  0
LINE
  5
41
100
AcDbEntity
100
AcDbLine
  8
servo
 62
256
370
-1
 48
1.0
  6
ByLayer
 10
9.9100000000000001
 20
44.019999999999996
 30
0.0
 11
9.9100000000000001
 21
3.2400000000000002
 31
0.0
  0
LINE
  5
42
100
AcDbEntity
100
AcDbLine
  8
servo
 62
256
370
-1
 48
1.0
  6
ByLayer
 10
-9.9100000000000001
 20
50.5
 30
0.0
 11
9.9100000000000001
 21
50.5
 31
0.0
  0
LINE
  5
43
100
AcDbEntity
100
AcDbLine
  8
servo
 62
256
370
-1
 48
1.0
  6
ByLayer
 10
-9.9100000000000001
 20
-3.2400000000000002
 30
0.0
 11
9.9100000000000001
 21
-3.2400000000000002
 31
0.0
  0
LINE
  5
44
100
AcDbEntity
100
AcDbLine
  8
servo
 62
256
370
-1
 48
1.0
  6
ByLayer
 10
-9.9100000000000001
 20
50.5
 30
0.0
 11
-9.9100000000000001
 21
44.019999999999996
 31
0.0
  0
LINE
  5
45
100
AcDbEntity
100
AcDbLine
  8
servo
 62
256
370
-1
 48
1.0
  6
ByLayer
 10
9.9100000000000001
 20
44.019999999999996
 30
0.0
 11
9.9100000000000001
 21
50.5
 31
0.0
  0
LINE
  5
46
100
AcDbEntity
100
AcDbLine
  8
servo
 62
256
370
-1
 48
1.0
  6
ByLayer
 10
-9.9100000000000001
 20
-3.2400000000000002
 30
0.0
 11
-9.9100000000000001
 21
3.2400000000000002
 31
0.0
  0
LINE
  5
47
100
AcDbEntity
100
AcDbLine
  8
servo
 62
256
370
-1
 48
1.0
  6
ByLayer
 10
9.9100000000000001
 20
-3.2400000000000002
 30
0.0
 11
9.9100000000000001
 21
3.2400000000000002
 31
0.0
  0
LINE
  5
48
100
AcDbEntity
100
AcDbLine
  8
base
 62
256
370
-1
 48
1.0
  6
ByLayer
 10
-13.9099999999999966
 20
51.3000000000000043
 30
0.0
 11
13.9100000000000001
 21
51.3000000000000043
 31
0.0
  0
LINE
  5
49
100
AcDbEntity
100
AcDbLine
  8
base
 62
256
370
-1
 48
1.0
  6
ByLayer
 10
-13.9099999999999966
 20
-4.04
 30
0.0
 11
13.9100000000000001
 21
-4.04
 31
0.0
  0
LINE
  5
4A
100
AcDbEntity
100
AcDbLine
  8
base
 62
256
370
-1
 48
1.0
  6
ByLayer
 10
-10.4100000000000019
 20
44.519999999999996
 30
0.0
 11
10.4100000000000001
 21
44.519999999999996
 31
0.0
  0
LINE
  5
4B
100
AcDbEntity
100
AcDbLine
  8
base
 62
256
370
-1
 48
1.0
  6
ByLayer
 10
-10.4100000000000001
 20
44.519999999999996
 30
0.0
 11
-10.4100000000000001
 21
2.7399999999999949
 31
0.0
  0
LINE
  5
4C
100
AcDbEntity
100
AcDbLine
  8
base
 62
256
370
-1
 48
1.0
  6
ByLayer
 10
10.4100000000000001
 20
44.519999999999996
 30
0.0
 11
10.4100000000000001
 21
2.7399999999999949
 31
0.0
  0
LINE
  5
4D
100
AcDbEntity
100
AcDbLine
  8
base
 62
256
370
-1
 48
1.0
  6
ByLayer
 10
-10.4100000000000019
 20
2.7400000000000002
 30
0.0
 11
10.4100000000000001
 21
2.7400000000000002
 31
0.0
  0
CIRCLE
  5
4E
100
AcDbEntity
100
AcDbCircle
  8
base
 62
256
370
-1
 48
1.0
  6
ByLayer
 10
-5.0849999999999973
 20
47.259999999999998
 30
0.0
 40
1.5
  0
CIRCLE
  5
4F
100
AcDbEntity
100
AcDbCircle
  8
base
 62
256
370
-1
 48
1.0
  6
ByLayer
 10
5.0850000000000026
 20
47.259999999999998
 30
0.0
 40
1.5
  0
CIRCLE
  5
50
100
AcDbEntity
100
AcDbCircle
  8
base
 62
256
370
-1
 48
1.0
  6
ByLayer
 10
-5.085
 20
0.0
 30
0.0
 40
1.5
  0
CIRCLE
  5
51
100
AcDbEntity
100
AcDbCircle
  8
base
 62
256
370
-1
 48
1.0
  6
ByLayer
 10
5.085
 20
0.0
 30
0.0
 40
1.5
  0
LINE
  5
52
100
AcDbEntity
100
AcDbLine
  8
pulley
 62
256
370
-1
 48
1.0
  6
ByLayer
 10
8.5893457841050012
 20
38.0179617912399976
 30
0.0
 11
8.2584182646050035
 21
37.7069195532800023
 31
0.0
  0
LINE
  5
53
100
AcDbEntity
100
AcDbLine
  8
pulley
 62
256
370
-1
 48
1.0
  6
ByLayer
 10
9.2649423170850032
 20
36.2057217174799959
 30
0.0
 11
8.8781765602650022
 21
35.9676617541799999
 31
0.0
  0
LINE
  5
54
100
AcDbEntity
100
AcDbLine
  8
pulley
 62
256
370
-1
 48
1.0
  6
ByLayer
 10
8.5338758290050034
 20
37.0650275223599976
 30
0.0
 11
8.9873151126250033
 21
37.0905835901199978
 31
0.0
  0
LINE
  5
55
100
AcDbEntity
100
AcDbLine
  8
pulley
 62
256
370
-1
 48
1.0
  6
ByLayer
 10
9.0187835764850011
 20
35.2834600898199966
 30
0.0
 11
9.4680853296450014
 21
35.2172163665799971
 31
0.0
  0
LINE
  5
56
100
AcDbEntity
100
AcDbLine
  8
pulley
 62
256
370
-1
 48
1.0
  6
ByLayer
 10
8.2584182646050035
 20
37.7069195532800023
 30
0.0
 11
8.5338758290050034
 21
37.0650275223599976
 31
0.0
  0
LINE
  5
57
100
AcDbEntity
100
AcDbLine
  8
pulley
 62
256
370
-1
 48
1.0
  6
ByLayer
 10
8.8781765602650022
 20
35.9676617541799999
 30
0.0
 11
9.0187835764850011
 21
35.2834600898199966
 31
0.0
  0
ARC
  5
58
100
AcDbEntity
  8
pulley
 62
256
370
-1
 48
1.0
  6
ByLayer
100
AcDbCircle
 10
0.0165383450450021
 20
33.7900002370199957
 30
0.0
 40
9.7789999999999999
100
AcDbArc
 50
16.4020957713000008
 51
18.4366139060999998
  0
ARC
  5
59
100
AcDbEntity
  8
pulley
 62
256
370
-1
 48
1.0
  6
ByLayer
100
AcDbCircle
 10
8.3805957723450017
 20
38.2400574278199983
 30
0.0
 40
0.3048
100
AcDbArc
 50
313.2258064519999721
 51
28.0149989971000011
  0
ARC
  5
5A
100
AcDbEntity
  8
pulley
 62
256
370
-1
 48
1.0
  6
ByLayer
100
AcDbCircle
 10
9.4236271305250003
 20
34.9156761390799986
 30
0.0
 40
0.3048
100
AcDbArc
 50
6.8237106802999996
 51
81.6129032257999967
  0
ARC
  5
5B
100
AcDbEntity
  8
pulley
 62
256
370
-1
 48
1.0
  6
ByLayer
100
AcDbCircle
 10
9.1051729515850024
 20
36.465292112740002
 30
0.0
 40
0.3048
100
AcDbArc
 50
301.6129032260000145
 51
16.4020957713000008
  0
ARC
  5
5C
100
AcDbEntity
  8
pulley
 62
256
370
-1
 48
1.0
  6
ByLayer
100
AcDbCircle
 10
9.0044665769250027
 20
36.7862665381000014
 30
0.0
 40
0.3048
100
AcDbArc
 50
18.4366139060999998
 51
93.2258064515999791
  0
LINE
  5
5D
100
AcDbEntity
100
AcDbLine
  8
pulley
 62
256
370
-1
 48
1.0
  6
ByLayer
 10
7.562777838665002
 20
39.657108195470002
 30
0.0
 11
7.3012367462150021
 21
39.2858178051899998
 31
0.0
  0
LINE
  5
5E
100
AcDbEntity
100
AcDbLine
  8
pulley
 62
256
370
-1
 48
1.0
  6
ByLayer
 10
7.7002675616850018
 20
38.7125145194499964
 30
0.0
 11
8.1392805244650024
 21
38.8288240850200026
 31
0.0
  0
LINE
  5
5F
100
AcDbEntity
100
AcDbLine
  8
pulley
 62
256
370
-1
 48
1.0
  6
ByLayer
 10
7.3012367462150021
 20
39.2858178051899998
 30
0.0
 11
7.7002675616850018
 21
38.7125145194499964
 31
0.0
  0
ARC
  5
60
100
AcDbEntity
  8
pulley
 62
256
370
-1
 48
1.0
  6
ByLayer
100
AcDbCircle
 10
0.0165383450450021
 20
33.7900002370199957
 30
0.0
 40
9.7789999999999999
100
AcDbArc
 50
28.0149957712999971
 51
30.0495139060999996
  0
ARC
  5
61
100
AcDbEntity
  8
pulley
 62
256
370
-1
 48
1.0
  6
ByLayer
100
AcDbCircle
 10
7.3135934388250021
 20
39.8326364669200004
 30
0.0
 40
0.3048
100
AcDbArc
 50
324.8387064519999967
 51
39.6278989970999973
  0
ARC
  5
62
100
AcDbEntity
  8
pulley
 62
256
370
-1
 48
1.0
  6
ByLayer
100
AcDbCircle
 10
8.2173394529050032
 20
38.5341889809199998
 30
0.0
 40
0.3048
100
AcDbArc
 50
30.0495139060999996
 51
104.8387064519999967
  0
LINE
  5
63
100
AcDbEntity
100
AcDbLine
  8
pulley
 62
256
370
-1
 48
1.0
  6
ByLayer
 10
6.2272661327550018
 20
41.0560546435100022
 30
0.0
 11
6.0458189844750017
 21
40.6397167646900002
 31
0.0
  0
LINE
  5
64
100
AcDbEntity
100
AcDbLine
  8
pulley
 62
256
370
-1
 48
1.0
  6
ByLayer
 10
6.5520866916050018
 20
40.1584733150099993
 30
0.0
 11
6.958700101215002
 21
40.3607746537599965
 31
0.0
  0
LINE
  5
65
100
AcDbEntity
100
AcDbLine
  8
pulley
 62
256
370
-1
 48
1.0
  6
ByLayer
 10
6.0458189844750017
 20
40.6397167646900002
 30
0.0
 11
6.5520866916050018
 21
40.1584733150099993
 31
0.0
  0
ARC
  5
66
100
AcDbEntity
  8
pulley
 62
256
370
-1
 48
1.0
  6
ByLayer
100
AcDbCircle
 10
0.0165383450450021
 20
33.7900002370199957
 30
0.0
 40
9.7789999999999999
100
AcDbArc
 50
39.6278957712999969
 51
41.6624139061000065
  0
ARC
  5
67
100
AcDbEntity
  8
pulley
 62
256
370
-1
 48
1.0
  6
ByLayer
100
AcDbCircle
 10
5.9478489778050019
 20
41.1778294057499963
 30
0.0
 40
0.3048
100
AcDbArc
 50
336.4516064520000214
 51
51.2407989971000077
  0
ARC
  5
68
100
AcDbEntity
  8
pulley
 62
256
370
-1
 48
1.0
  6
ByLayer
100
AcDbCircle
 10
7.0944707538550018
 20
40.0878838866799967
 30
0.0
 40
0.3048
100
AcDbArc
 50
41.6624139061000065
 51
116.4516064520000072
  0
LINE
  5
69
100
AcDbEntity
100
AcDbLine
  8
pulley
 62
256
370
-1
 48
1.0
  6
ByLayer
 10
4.6374866422650021
 20
42.1575281351300006
 30
0.0
 11
4.5435619016150017
 21
41.7131876800100017
 31
0.0
  0
LINE
  5
6A
100
AcDbEntity
100
AcDbLine
  8
pulley
 62
256
370
-1
 48
1.0
  6
ByLayer
 10
5.1363398524650021
 20
41.3437062188599995
 30
0.0
 11
5.4939069173450017
 21
41.6237170947899955
 31
0.0
  0
LINE
  5
6B
100
AcDbEntity
100
AcDbLine
  8
pulley
 62
256
370
-1
 48
1.0
  6
ByLayer
 10
4.5435619016150017
 20
41.7131876800100017
 30
0.0
 11
5.1363398524650021
 21
41.3437062188599995
 31
0.0
  0
ARC
  5
6C
100
AcDbEntity
  8
pulley
 62
256
370
-1
 48
1.0
  6
ByLayer
100
AcDbCircle
 10
0.0165383450450021
 20
33.7900002370199957
 30
0.0
 40
9.7789999999999999
100
AcDbArc
 50
51.2407957713000002
 51
53.2753139060999956
  0
ARC
  5
6D
100
AcDbEntity
  8
pulley
 62
256
370
-1
 48
1.0
  6
ByLayer
100
AcDbCircle
 10
4.3392760970150022
 20
42.220563917829999
 30
0.0
 40
0.3048
100
AcDbArc
 50
348.0645064519999892
 51
62.8536989970999826
  0
ARC
  5
6E
100
AcDbEntity
  8
pulley
 62
256
370
-1
 48
1.0
  6
ByLayer
100
AcDbCircle
 10
5.6818308308050023
 20
41.3837428386099972
 30
0.0
 40
0.3048
100
AcDbArc
 50
53.2753139060999956
 51
128.0645064519999892
  0
LINE
  5
6F
100
AcDbEntity
100
AcDbLine
  8
pulley
 62
256
370
-1
 48
1.0
  6
ByLayer
 10
2.8585250902950019
 20
42.9164342411099966
 30
0.0
 11
2.8559680450650022
 21
42.4622825500700003
 31
0.0
  0
LINE
  5
70
100
AcDbEntity
100
AcDbLine
  8
pulley
 62
256
370
-1
 48
1.0
  6
ByLayer
 10
3.5109878541050019
 20
42.2196896835000004
 30
0.0
 11
3.8048697447250022
 21
42.5659464248000035
 31
0.0
  0
LINE
  5
71
100
AcDbEntity
100
AcDbLine
  8
pulley
 62
256
370
-1
 48
1.0
  6
ByLayer
 10
2.8559680450650022
 20
42.4622825500700003
 30
0.0
 11
3.5109878541050019
 21
42.2196896835000004
 31
0.0
  0
ARC
  5
72
100
AcDbEntity
  8
pulley
 62
256
370
-1
 48
1.0
  6
ByLayer
100
AcDbCircle
 10
0.0165383450450021
 20
33.7900002370199957
 30
0.0
 40
9.7789999999999999
100
AcDbArc
 50
62.8536957713000035
 51
64.8882139061000061
  0
ARC
  5
73
100
AcDbEntity
  8
pulley
 62
256
370
-1
 48
1.0
  6
ByLayer
100
AcDbCircle
 10
2.5537299227450019
 20
42.9181503533699953
 30
0.0
 40
0.3048
100
AcDbArc
 50
359.6774064520000138
 51
74.4665989970999931
  0
ARC
  5
74
100
AcDbEntity
  8
pulley
 62
256
370
-1
 48
1.0
  6
ByLayer
100
AcDbCircle
 10
4.0372532961550025
 20
42.3687132483299962
 30
0.0
 40
0.3048
100
AcDbArc
 50
64.8882139061000061
 51
139.6774064520000138
  0
LINE
  5
75
100
AcDbEntity
100
AcDbLine
  8
pulley
 62
256
370
-1
 48
1.0
  6
ByLayer
 10
0.9632123314630021
 20
43.3017032735199976
 30
0.0
 11
1.052127667325002
 21
42.856333359849998
 31
0.0
  0
LINE
  5
76
100
AcDbEntity
100
AcDbLine
  8
pulley
 62
256
370
-1
 48
1.0
  6
ByLayer
 10
1.7425727614650022
 20
42.7505608628199951
 30
0.0
 11
1.9607379253550021
 21
43.1488876856699974
 31
0.0
  0
LINE
  5
77
100
AcDbEntity
100
AcDbLine
  8
pulley
 62
256
370
-1
 48
1.0
  6
ByLayer
 10
1.052127667325002
 20
42.856333359849998
 30
0.0
 11
1.7425727614650022
 21
42.7505608628199951
 31
0.0
  0
ARC
  5
78
100
AcDbEntity
  8
pulley
 62
256
370
-1
 48
1.0
  6
ByLayer
100
AcDbCircle
 10
0.0165383450450021
 20
33.7900002370199957
 30
0.0
 40
9.7789999999999999
100
AcDbArc
 50
74.4665957713000068
 51
76.5011139061000023
  0
ARC
  5
79
100
AcDbEntity
  8
pulley
 62
256
370
-1
 48
1.0
  6
ByLayer
100
AcDbCircle
 10
0.6643108846900021
 20
43.2420294575299948
 30
0.0
 40
0.3048
100
AcDbArc
 50
11.2903064515999993
 51
86.0794989971000035
  0
ARC
  5
7A
100
AcDbEntity
  8
pulley
 62
256
370
-1
 48
1.0
  6
ByLayer
100
AcDbCircle
 10
2.2280673101250019
 20
43.002470333849999
 30
0.0
 40
0.3048
100
AcDbArc
 50
76.5011139061000023
 51
151.29030645200001
  0
LINE
  5
7B
100
AcDbEntity
100
AcDbLine
  8
pulley
 62
256
370
-1
 48
1.0
  6
ByLayer
 10
-0.970857350139998
 20
43.2975622816399977
 30
0.0
 11
-0.7941098354609979
 21
42.8792076318400035
 31
0.0
  0
LINE
  5
7C
100
AcDbEntity
100
AcDbLine
  8
pulley
 62
256
370
-1
 48
1.0
  6
ByLayer
 10
-0.0965063438539979
 20
42.9145858404200027
 30
0.0
 11
0.0370103907997021
 21
43.3486752068999976
 31
0.0
  0
LINE
  5
7D
100
AcDbEntity
100
AcDbLine
  8
pulley
 62
256
370
-1
 48
1.0
  6
ByLayer
 10
-0.7941098354609979
 20
42.8792076318400035
 30
0.0
 11
-0.0965063438539979
 21
42.9145858404200027
 31
0.0
  0
ARC
  5
7E
100
AcDbEntity
  8
pulley
 62
256
370
-1
 48
1.0
  6
ByLayer
100
AcDbCircle
 10
0.0165383450450021
 20
33.7900002370199957
 30
0.0
 40
9.7789999999999999
100
AcDbArc
 50
86.0794957713000031
 51
88.1140139060999985
  0
ARC
  5
7F
100
AcDbEntity
  8
pulley
 62
256
370
-1
 48
1.0
  6
ByLayer
100
AcDbCircle
 10
-1.2516280225649978
 20
43.1789415890900017
 30
0.0
 40
0.3048
100
AcDbArc
 50
22.9032064515999991
 51
97.6923989970999855
  0
ARC
  5
80
100
AcDbEntity
  8
pulley
 62
256
370
-1
 48
1.0
  6
ByLayer
100
AcDbCircle
 10
0.3283411185560021
 20
43.2590680200099982
 30
0.0
 40
0.3048
100
AcDbArc
 50
88.1140139060999985
 51
162.9032064520000063
  0
LINE
  5
81
100
AcDbEntity
100
AcDbLine
  8
pulley
 62
256
370
-1
 48
1.0
  6
ByLayer
 10
-2.8645029583449979
 20
42.904180798059997
 30
0.0
 11
-2.6071593248649978
 21
42.5299688911599958
 31
0.0
  0
LINE
  5
82
100
AcDbEntity
100
AcDbLine
  8
pulley
 62
256
370
-1
 48
1.0
  6
ByLayer
 10
-1.930957388894998
 20
42.7050494181300024
 30
0.0
 11
-1.8875552712449979
 21
43.1571296684399996
 31
0.0
  0
LINE
  5
83
100
AcDbEntity
100
AcDbLine
  8
pulley
 62
256
370
-1
 48
1.0
  6
ByLayer
 10
-2.6071593248649978
 20
42.5299688911599958
 30
0.0
 11
-1.930957388894998
 21
42.7050494181300024
 31
0.0
  0
ARC
  5
84
100
AcDbEntity
  8
pulley
 62
256
370
-1
 48
1.0
  6
ByLayer
100
AcDbCircle
 10
0.0165383450450021
 20
33.7900002370199957
 30
0.0
 40
9.7789999999999999
100
AcDbArc
 50
97.6923957712999993
 51
99.7269139060999805
  0
ARC
  5
85
100
AcDbEntity
  8
pulley
 62
256
370
-1
 48
1.0
  6
ByLayer
100
AcDbCircle
 10
-3.1156480784849978
 20
42.7314695713499972
 30
0.0
 40
0.3048
100
AcDbArc
 50
34.5161064516000025
 51
109.3052989969999942
  0
ARC
  5
86
100
AcDbEntity
  8
pulley
 62
256
370
-1
 48
1.0
  6
ByLayer
100
AcDbCircle
 10
-1.5841503081349979
 20
43.1280011731900004
 30
0.0
 40
0.3048
100
AcDbArc
 50
99.7269139060999805
 51
174.5161064520000025
  0
LINE
  5
87
100
AcDbEntity
100
AcDbLine
  8
pulley
 62
256
370
-1
 48
1.0
  6
ByLayer
 10
-4.6401984623949977
 20
42.1376638980400031
 30
0.0
 11
-4.3127943828749977
 21
41.8229150049900014
 31
0.0
  0
LINE
  5
88
100
AcDbEntity
100
AcDbLine
  8
pulley
 62
256
370
-1
 48
1.0
  6
ByLayer
 10
-3.685677773904998
 20
42.130530036979998
 30
0.0
 11
-3.7341671600849979
 21
42.5820929627799956
 31
0.0
  0
LINE
  5
89
100
AcDbEntity
100
AcDbLine
  8
pulley
 62
256
370
-1
 48
1.0
  6
ByLayer
 10
-4.3127943828749977
 20
41.8229150049900014
 30
0.0
 11
-3.685677773904998
 21
42.130530036979998
 31
0.0
  0
ARC
  5
8A
100
AcDbEntity
  8
pulley
 62
256
370
-1
 48
1.0
  6
ByLayer
100
AcDbCircle
 10
0.0165383450450021
 20
33.7900002370199957
 30
0.0
 40
9.7789999999999999
100
AcDbArc
 50
109.3052957710000044
 51
111.3398139060000034
  0
ARC
  5
8B
100
AcDbEntity
  8
pulley
 62
256
370
-1
 48
1.0
  6
ByLayer
100
AcDbCircle
 10
-4.851436125194998
 20
41.9179329511700018
 30
0.0
 40
0.3048
100
AcDbArc
 50
46.1290064515999987
 51
120.9181989970000046
  0
ARC
  5
8C
100
AcDbEntity
  8
pulley
 62
256
370
-1
 48
1.0
  6
ByLayer
100
AcDbCircle
 10
-3.4311093895649978
 20
42.6146356825500021
 30
0.0
 40
0.3048
100
AcDbArc
 50
111.3398139060000034
 51
186.1290064519999987
  0
LINE
  5
8D
100
AcDbEntity
100
AcDbLine
  8
pulley
 62
256
370
-1
 48
1.0
  6
ByLayer
 10
-6.2252467199449981
 20
41.0293928561300021
 30
0.0
 11
-5.8411861484449981
 21
40.7869928264699979
 31
0.0
  0
LINE
  5
8E
100
AcDbEntity
100
AcDbLine
  8
pulley
 62
256
370
-1
 48
1.0
  6
ByLayer
 10
-5.288829079934998
 20
41.2145485748900029
 30
0.0
 11
-5.427224809864998
 21
41.647107147189999
 31
0.0
  0
LINE
  5
8F
100
AcDbEntity
100
AcDbLine
  8
pulley
 62
256
370
-1
 48
1.0
  6
ByLayer
 10
-5.8411861484449981
 20
40.7869928264699979
 30
0.0
 11
-5.288829079934998
 21
41.2145485748900029
 31
0.0
  0
ARC
  5
90
100
AcDbEntity
  8
pulley
 62
256
370
-1
 48
1.0
  6
ByLayer
100
AcDbCircle
 10
0.0165383450450021
 20
33.7900002370199957
 30
0.0
 40
9.7789999999999999
100
AcDbArc
 50
120.918195771000029
 51
122.9527139059999996
  0
ARC
  5
91
100
AcDbEntity
  8
pulley
 62
256
370
-1
 48
1.0
  6
ByLayer
100
AcDbCircle
 10
-6.3879288354749981
 20
40.7716379948999972
 30
0.0
 40
0.3048
100
AcDbArc
 50
57.7419064516000091
 51
132.5310989969999866
  0
ARC
  5
92
100
AcDbEntity
  8
pulley
 62
256
370
-1
 48
1.0
  6
ByLayer
100
AcDbCircle
 10
-5.1369214458149983
 20
41.7399887799300018
 30
0.0
 40
0.3048
100
AcDbArc
 50
122.9527139059999996
 51
197.7419064519999665
  0
LINE
  5
93
100
AcDbEntity
100
AcDbLine
  8
pulley
 62
256
370
-1
 48
1.0
  6
ByLayer
 10
-7.5547557050449976
 20
39.624740393899998
 30
0.0
 11
-7.1297621177849981
 21
39.4646131078299973
 31
0.0
  0
LINE
  5
94
100
AcDbEntity
100
AcDbLine
  8
pulley
 62
256
370
-1
 48
1.0
  6
ByLayer
 10
-6.6747781404749977
 20
39.9946053998000011
 30
0.0
 11
-6.8974142798549982
 21
40.3904506296199983
 31
0.0
  0
LINE
  5
95
100
AcDbEntity
100
AcDbLine
  8
pulley
 62
256
370
-1
 48
1.0
  6
ByLayer
 10
-7.1297621177849981
 20
39.4646131078299973
 30
0.0
 11
-6.6747781404749977
 21
39.9946053998000011
 31
0.0
  0
ARC
  5
96
100
AcDbEntity
  8
pulley
 62
256
370
-1
 48
1.0
  6
ByLayer
100
AcDbCircle
 10
0.0165383450450021
 20
33.7900002370199957
 30
0.0
 40
9.7789999999999999
100
AcDbArc
 50
132.5310957709999968
 51
134.5656139059999816
  0
ARC
  5
97
100
AcDbEntity
  8
pulley
 62
256
370
-1
 48
1.0
  6
ByLayer
100
AcDbCircle
 10
-7.6622220520549975
 20
39.3395141267699984
 30
0.0
 40
0.3048
100
AcDbArc
 50
69.3548064515999982
 51
144.1439989970000113
  0
ARC
  5
98
100
AcDbEntity
  8
pulley
 62
256
370
-1
 48
1.0
  6
ByLayer
100
AcDbCircle
 10
-6.6317503695249975
 20
40.5398685924799977
 30
0.0
 40
0.3048
100
AcDbArc
 50
134.5656139059999816
 51
209.3548064519999912
  0
LINE
  5
99
100
AcDbEntity
100
AcDbLine
  8
pulley
 62
256
370
-1
 48
1.0
  6
ByLayer
 10
-8.5742951937549972
 20
37.9812131163400011
 30
0.0
 11
-8.1257678684949983
 21
37.9099142001400011
 31
0.0
  0
LINE
  5
9A
100
AcDbEntity
100
AcDbLine
  8
pulley
 62
256
370
-1
 48
1.0
  6
ByLayer
 10
-7.7867840695849981
 20
38.5206451009599959
 30
0.0
 11
-8.0845458737449984
 21
38.8635710470599989
 31
0.0
  0
LINE
  5
9B
100
AcDbEntity
100
AcDbLine
  8
pulley
 62
256
370
-1
 48
1.0
  6
ByLayer
 10
-8.1257678684949983
 20
37.9099142001400011
 30
0.0
 11
-7.7867840695849981
 21
38.5206451009599959
 31
0.0
  0
ARC
  5
9C
100
AcDbEntity
  8
pulley
 62
256
370
-1
 48
1.0
  6
ByLayer
100
AcDbCircle
 10
0.0165383450450021
 20
33.7900002370199957
 30
0.0
 40
9.7789999999999999
100
AcDbArc
 50
144.1439957709999931
 51
146.1785139060000063
  0
ARC
  5
9D
100
AcDbEntity
  8
pulley
 62
256
370
-1
 48
1.0
  6
ByLayer
100
AcDbCircle
 10
-8.6221460898149989
 20
37.6801926337399991
 30
0.0
 40
0.3048
100
AcDbArc
 50
80.9677064515999945
 51
155.7568989970000075
  0
ARC
  5
9E
100
AcDbEntity
  8
pulley
 62
256
370
-1
 48
1.0
  6
ByLayer
100
AcDbCircle
 10
-7.8543977228249977
 20
39.0634081544800011
 30
0.0
 40
0.3048
100
AcDbArc
 50
146.1785139060000063
 51
220.9677064519999874
  0
LINE
  5
9F
100
AcDbEntity
100
AcDbLine
  8
pulley
 62
256
370
-1
 48
1.0
  6
ByLayer
 10
-9.2421251427349969
 20
36.16609718606
 30
0.0
 11
-8.7884268307049975
 21
36.1865456241099963
 31
0.0
  0
LINE
  5
A0
100
AcDbEntity
100
AcDbLine
  8
pulley
 62
256
370
-1
 48
1.0
  6
ByLayer
 10
-8.5793212390549964
 20
36.8530117528000005
 30
0.0
 11
-8.9400183115149989
 21
37.1289789944299997
 31
0.0
  0
LINE
  5
A1
100
AcDbEntity
100
AcDbLine
  8
pulley
 62
256
370
-1
 48
1.0
  6
ByLayer
 10
-8.7884268307049975
 20
36.1865456241099963
 30
0.0
 11
-8.5793212390549964
 21
36.8530117528000005
 31
0.0
  0
ARC
  5
A2
100
AcDbEntity
  8
pulley
 62
256
370
-1
 48
1.0
  6
ByLayer
100
AcDbCircle
 10
0.0165383450450021
 20
33.7900002370199957
 30
0.0
 40
9.7789999999999999
100
AcDbArc
 50
155.7568957709999893
 51
157.7914139060000025
  0
ARC
  5
A3
100
AcDbEntity
  8
pulley
 62
256
370
-1
 48
1.0
  6
ByLayer
100
AcDbCircle
 10
-9.2284015676149966
 20
35.8616062950899988
 30
0.0
 40
0.3048
100
AcDbArc
 50
92.5806064516000191
 51
167.3697989970000037
  0
ARC
  5
A4
100
AcDbEntity
  8
pulley
 62
256
370
-1
 48
1.0
  6
ByLayer
100
AcDbCircle
 10
-8.7548082071049986
 20
37.371053896280003
 30
0.0
 40
0.3048
100
AcDbArc
 50
157.7914139060000025
 51
232.5806064519999836
  0
LINE
  5
A5
100
AcDbEntity
100
AcDbLine
  8
pulley
 62
256
370
-1
 48
1.0
  6
ByLayer
 10
-9.5309045305349986
 20
34.2537036213660002
 30
0.0
 11
-9.0906096836549981
 21
34.3650622526780012
 31
0.0
  0
LINE
  5
A6
100
AcDbEntity
100
AcDbLine
  8
pulley
 62
256
370
-1
 48
1.0
  6
ByLayer
 10
-9.0199431020249978
 20
35.0599784227200004
 30
0.0
 11
-9.4288084704149977
 21
35.2576888348299988
 31
0.0
  0
LINE
  5
A7
100
AcDbEntity
100
AcDbLine
  8
pulley
 62
256
370
-1
 48
1.0
  6
ByLayer
 10
-9.0906096836549981
 20
34.3650622526780012
 30
0.0
 11
-9.0199431020249978
 21
35.0599784227200004
 31
0.0
  0
ARC
  5
A8
100
AcDbEntity
  8
pulley
 62
256
370
-1
 48
1.0
  6
ByLayer
100
AcDbCircle
 10
0.0165383450450021
 20
33.7900002370199957
 30
0.0
 40
9.7789999999999999
100
AcDbArc
 50
167.3697957710000139
 51
169.4043139060000271
  0
ARC
  5
A9
100
AcDbEntity
  8
pulley
 62
256
370
-1
 48
1.0
  6
ByLayer
100
AcDbCircle
 10
-9.4561683287149965
 20
33.9582082079759999
 30
0.0
 40
0.3048
100
AcDbArc
 50
104.1935064519999941
 51
178.982698997
  0
ARC
  5
AA
100
AcDbEntity
  8
pulley
 62
256
370
-1
 48
1.0
  6
ByLayer
100
AcDbCircle
 10
-9.2961189317749966
 20
35.5320909616700007
 30
0.0
 40
0.3048
100
AcDbArc
 50
169.4043139060000271
 51
244.1935064520000083
  0
LINE
  5
AB
100
AcDbEntity
100
AcDbLine
  8
pulley
 62
256
370
-1
 48
1.0
  6
ByLayer
 10
-9.4288107016449967
 20
32.3223259961400018
 30
0.0
 11
-9.0199450326949968
 21
32.5200357877900004
 31
0.0
  0
LINE
  5
AC
100
AcDbEntity
100
AcDbLine
  8
pulley
 62
256
370
-1
 48
1.0
  6
ByLayer
 10
-9.0906105576349976
 20
33.2149520652870009
 30
0.0
 11
-9.5309052350149965
 21
33.3263113648669957
 31
0.0
  0
LINE
  5
AD
100
AcDbEntity
100
AcDbLine
  8
pulley
 62
256
370
-1
 48
1.0
  6
ByLayer
 10
-9.0199450326949968
 20
32.5200357877900004
 30
0.0
 11
-9.0906105576349976
 21
33.2149520652870009
 31
0.0
  0
ARC
  5
AE
100
AcDbEntity
  8
pulley
 62
256
370
-1
 48
1.0
  6
ByLayer
100
AcDbCircle
 10
0.0165383450450021
 20
33.7900002370199957
 30
0.0
 40
9.7789999999999999
100
AcDbArc
 50
178.9826957710000102
 51
181.0172139059999949
  0
ARC
  5
AF
100
AcDbEntity
  8
pulley
 62
256
370
-1
 48
1.0
  6
ByLayer
100
AcDbCircle
 10
-9.2961215803049964
 20
32.0479236705799977
 30
0.0
 40
0.3048
100
AcDbArc
 50
115.8064064520000187
 51
190.5955989969999962
  0
ARC
  5
B0
100
AcDbEntity
  8
pulley
 62
256
370
-1
 48
1.0
  6
ByLayer
100
AcDbCircle
 10
-9.456168584424999
 20
33.6218066675999978
 30
0.0
 40
0.3048
100
AcDbArc
 50
181.0172139059999949
 51
255.8064064520000045
  0
LINE
  5
B1
100
AcDbEntity
100
AcDbLine
  8
pulley
 62
256
370
-1
 48
1.0
  6
ByLayer
 10
-8.9400233870949979
 20
30.451035093519998
 30
0.0
 11
-8.579325895334998
 21
30.727001787879999
 31
0.0
  0
LINE
  5
B2
100
AcDbEntity
100
AcDbLine
  8
pulley
 62
256
370
-1
 48
1.0
  6
ByLayer
 10
-8.7884304735549978
 20
31.3934682345399985
 30
0.0
 11
-9.2421287540649981
 21
31.4139173613000011
 31
0.0
  0
LINE
  5
B3
100
AcDbEntity
100
AcDbLine
  8
pulley
 62
256
370
-1
 48
1.0
  6
ByLayer
 10
-8.579325895334998
 20
30.727001787879999
 30
0.0
 11
-8.7884304735549978
 21
31.3934682345399985
 31
0.0
  0
ARC
  5
B4
100
AcDbEntity
  8
pulley
 62
256
370
-1
 48
1.0
  6
ByLayer
100
AcDbCircle
 10
0.0165383450450021
 20
33.7900002370199957
 30
0.0
 40
9.7789999999999999
100
AcDbArc
 50
190.5955957710000064
 51
192.6301139059999912
  0
ARC
  5
B5
100
AcDbEntity
  8
pulley
 62
256
370
-1
 48
1.0
  6
ByLayer
100
AcDbCircle
 10
-8.7548136514449997
 20
30.2089599130099984
 30
0.0
 40
0.3048
100
AcDbArc
 50
127.4193064519999865
 51
202.2084989969999924
  0
ARC
  5
B6
100
AcDbEntity
  8
pulley
 62
256
370
-1
 48
1.0
  6
ByLayer
100
AcDbCircle
 10
-9.2284047171049988
 20
31.7184082342099991
 30
0.0
 40
0.3048
100
AcDbArc
 50
192.6301139059999912
 51
267.4193064520000576
  0
LINE
  5
B7
100
AcDbEntity
100
AcDbLine
  8
pulley
 62
256
370
-1
 48
1.0
  6
ByLayer
 10
-8.0845535858949962
 20
28.7164417404999988
 30
0.0
 11
-7.7867912608449981
 21
29.0593672349399981
 31
0.0
  0
LINE
  5
B8
100
AcDbEntity
100
AcDbLine
  8
pulley
 62
256
370
-1
 48
1.0
  6
ByLayer
 10
-8.1257741310749996
 20
29.6700986512299991
 30
0.0
 11
-8.5743015641049976
 21
29.5988004159800013
 31
0.0
  0
LINE
  5
B9
100
AcDbEntity
100
AcDbLine
  8
pulley
 62
256
370
-1
 48
1.0
  6
ByLayer
 10
-7.7867912608449981
 20
29.0593672349399981
 30
0.0
 11
-8.1257741310749996
 21
29.6700986512299991
 31
0.0
  0
ARC
  5
BA
100
AcDbEntity
  8
pulley
 62
256
370
-1
 48
1.0
  6
ByLayer
100
AcDbCircle
 10
0.0165383450450021
 20
33.7900002370199957
 30
0.0
 40
9.7789999999999999
100
AcDbArc
 50
202.208495771000031
 51
204.2430139059999874
  0
ARC
  5
BB
100
AcDbEntity
  8
pulley
 62
256
370
-1
 48
1.0
  6
ByLayer
100
AcDbCircle
 10
-7.8544057400849976
 20
28.5166042858899971
 30
0.0
 40
0.3048
100
AcDbArc
 50
139.0322064519999969
 51
213.8213989969999886
  0
ARC
  5
BC
100
AcDbEntity
  8
pulley
 62
256
370
-1
 48
1.0
  6
ByLayer
100
AcDbCircle
 10
-8.622152004124997
 20
29.8998209738599989
 30
0.0
 40
0.3048
100
AcDbArc
 50
204.2430139059999874
 51
279.0322064520000254
  0
LINE
  5
BD
100
AcDbEntity
100
AcDbLine
  8
pulley
 62
256
370
-1
 48
1.0
  6
ByLayer
 10
-6.8974243128249979
 20
27.189560353440001
 30
0.0
 11
-6.6747875723149983
 21
27.5854052457099996
 31
0.0
  0
LINE
  5
BE
100
AcDbEntity
100
AcDbLine
  8
pulley
 62
256
370
-1
 48
1.0
  6
ByLayer
 10
-7.1297707437049977
 20
28.1153982295200002
 30
0.0
 11
-7.5547645736049978
 21
27.9552715887800005
 31
0.0
  0
LINE
  5
BF
100
AcDbEntity
100
AcDbLine
  8
pulley
 62
256
370
-1
 48
1.0
  6
ByLayer
 10
-6.6747875723149983
 20
27.5854052457099996
 30
0.0
 11
-7.1297707437049977
 21
28.1153982295200002
 31
0.0
  0
ARC
  5
C0
100
AcDbEntity
  8
pulley
 62
256
370
-1
 48
1.0
  6
ByLayer
100
AcDbCircle
 10
0.0165383450450021
 20
33.7900002370199957
 30
0.0
 40
9.7789999999999999
100
AcDbArc
 50
213.8213957709999988
 51
215.855913906000012
  0
ARC
  5
C1
100
AcDbEntity
  8
pulley
 62
256
370
-1
 48
1.0
  6
ByLayer
100
AcDbCircle
 10
-6.6317606314749975
 20
27.0401419890799986
 30
0.0
 40
0.3048
100
AcDbArc
 50
150.6451064519999647
 51
225.4342989970000133
  0
ARC
  5
C2
100
AcDbEntity
  8
pulley
 62
256
370
-1
 48
1.0
  6
ByLayer
100
AcDbCircle
 10
-7.6622304890649984
 20
28.2404980214500014
 30
0.0
 40
0.3048
100
AcDbArc
 50
215.855913906000012
 51
290.6451064519999932
  0
LINE
  5
C3
100
AcDbEntity
100
AcDbLine
  8
pulley
 62
256
370
-1
 48
1.0
  6
ByLayer
 10
-5.4272367529049976
 20
25.9329016011299984
 30
0.0
 11
-5.2888403661949983
 21
26.3654599637899985
 31
0.0
  0
LINE
  5
C4
100
AcDbEntity
100
AcDbLine
  8
pulley
 62
256
370
-1
 48
1.0
  6
ByLayer
 10
-5.8411967845649979
 20
26.793016552120001
 30
0.0
 11
-6.2252577236349982
 21
26.5506171057399989
 31
0.0
  0
LINE
  5
C5
100
AcDbEntity
100
AcDbLine
  8
pulley
 62
256
370
-1
 48
1.0
  6
ByLayer
 10
-5.2888403661949983
 20
26.3654599637899985
 30
0.0
 11
-5.8411967845649979
 21
26.793016552120001
 31
0.0
  0
ARC
  5
C6
100
AcDbEntity
  8
pulley
 62
256
370
-1
 48
1.0
  6
ByLayer
100
AcDbCircle
 10
0.0165383450450021
 20
33.7900002370199957
 30
0.0
 40
9.7789999999999999
100
AcDbArc
 50
225.4342957709999666
 51
227.4688139060000083
  0
ARC
  5
C7
100
AcDbEntity
  8
pulley
 62
256
370
-1
 48
1.0
  6
ByLayer
100
AcDbCircle
 10
-5.1369335323349983
 20
25.8400195290100001
 30
0.0
 40
0.3048
100
AcDbArc
 50
162.2580064519999894
 51
237.0471989970000095
  0
ARC
  5
C8
100
AcDbEntity
  8
pulley
 62
256
370
-1
 48
1.0
  6
ByLayer
100
AcDbCircle
 10
-6.3879394497749979
 20
26.8083722159899978
 30
0.0
 40
0.3048
100
AcDbArc
 50
227.4688139060000083
 51
302.2580064520000747
  0
LINE
  5
C9
100
AcDbEntity
100
AcDbLine
  8
pulley
 62
256
370
-1
 48
1.0
  6
ByLayer
 10
-3.7341805242549979
 20
24.9979132120500012
 30
0.0
 11
-3.6856904525349981
 21
25.449476064709998
 31
0.0
  0
LINE
  5
CA
100
AcDbEntity
100
AcDbLine
  8
pulley
 62
256
370
-1
 48
1.0
  6
ByLayer
 10
-4.3128065937349982
 20
25.757092050289998
 30
0.0
 11
-4.6402111507249977
 21
25.4423436545899975
 31
0.0
  0
LINE
  5
CB
100
AcDbEntity
100
AcDbLine
  8
pulley
 62
256
370
-1
 48
1.0
  6
ByLayer
 10
-3.6856904525349981
 20
25.449476064709998
 30
0.0
 11
-4.3128065937349982
 21
25.757092050289998
 31
0.0
  0
ARC
  5
CC
100
AcDbEntity
  8
pulley
 62
256
370
-1
 48
1.0
  6
ByLayer
100
AcDbCircle
 10
0.0165383450450021
 20
33.7900002370199957
 30
0.0
 40
9.7789999999999999
100
AcDbArc
 50
237.0471957709999913
 51
239.0817139060000045
  0
ARC
  5
CD
100
AcDbEntity
  8
pulley
 62
256
370
-1
 48
1.0
  6
ByLayer
100
AcDbCircle
 10
-3.4311228058249981
 20
24.965370033020001
 30
0.0
 40
0.3048
100
AcDbArc
 50
173.8709064520000425
 51
248.6600989970000057
  0
ARC
  5
CE
100
AcDbEntity
  8
pulley
 62
256
370
-1
 48
1.0
  6
ByLayer
100
AcDbCircle
 10
-4.8514484822349981
 20
25.6620749237599988
 30
0.0
 40
0.3048
100
AcDbArc
 50
239.0817139060000045
 51
313.8709064519999856
  0
LINE
  5
CF
100
AcDbEntity
100
AcDbLine
  8
pulley
 62
256
370
-1
 48
1.0
  6
ByLayer
 10
-1.887569509414998
 20
24.4228736995099993
 30
0.0
 11
-1.930970940824998
 21
24.8749540161700011
 31
0.0
  0
LINE
  5
D0
100
AcDbEntity
100
AcDbLine
  8
pulley
 62
256
370
-1
 48
1.0
  6
ByLayer
 10
-2.6071726105749979
 20
25.0500355713699996
 30
0.0
 11
-2.864516811854998
 21
24.6758240555199997
 31
0.0
  0
LINE
  5
D1
100
AcDbEntity
100
AcDbLine
  8
pulley
 62
256
370
-1
 48
1.0
  6
ByLayer
 10
-1.930970940824998
 20
24.8749540161700011
 30
0.0
 11
-2.6071726105749979
 21
25.0500355713699996
 31
0.0
  0
ARC
  5
D2
100
AcDbEntity
  8
pulley
 62
256
370
-1
 48
1.0
  6
ByLayer
100
AcDbCircle
 10
0.0165383450450021
 20
33.7900002370199957
 30
0.0
 40
9.7789999999999999
100
AcDbArc
 50
248.6600957709999875
 51
250.6946139060000291
  0
ARC
  5
D3
100
AcDbEntity
  8
pulley
 62
256
370
-1
 48
1.0
  6
ByLayer
100
AcDbCircle
 10
-1.5841645048749979
 20
24.4520017344099969
 30
0.0
 40
0.3048
100
AcDbArc
 50
185.4838064520000103
 51
260.272998997000002
  0
ARC
  5
D4
100
AcDbEntity
  8
pulley
 62
256
370
-1
 48
1.0
  6
ByLayer
100
AcDbCircle
 10
-3.1156616723549981
 20
24.8485356646299991
 30
0.0
 40
0.3048
100
AcDbArc
 50
250.6946139060000291
 51
325.4838064519999534
  0
LINE
  5
D5
100
AcDbEntity
100
AcDbLine
  8
pulley
 62
256
370
-1
 48
1.0
  6
ByLayer
 10
0.0369958615516021
 20
24.23132523568
 30
0.0
 11
-0.0965202142769979
 21
24.6654148052999993
 31
0.0
  0
LINE
  5
D6
100
AcDbEntity
100
AcDbLine
  8
pulley
 62
256
370
-1
 48
1.0
  6
ByLayer
 10
-0.7941236520859979
 20
24.7007940746599992
 30
0.0
 11
-0.9708718016589979
 21
24.2824396936100015
 31
0.0
  0
LINE
  5
D7
100
AcDbEntity
100
AcDbLine
  8
pulley
 62
256
370
-1
 48
1.0
  6
ByLayer
 10
-0.0965202142769979
 20
24.6654148052999993
 30
0.0
 11
-0.7941236520859979
 21
24.7007940746599992
 31
0.0
  0
ARC
  5
D8
100
AcDbEntity
  8
pulley
 62
256
370
-1
 48
1.0
  6
ByLayer
100
AcDbCircle
 10
0.0165383450450021
 20
33.7900002370199957
 30
0.0
 40
9.7789999999999999
100
AcDbArc
 50
260.2729957710000122
 51
262.3075139060000538
  0
ARC
  5
D9
100
AcDbEntity
  8
pulley
 62
256
370
-1
 48
1.0
  6
ByLayer
100
AcDbCircle
 10
0.328326722553002
 20
24.3209319799900001
 30
0.0
 40
0.3048
100
AcDbArc
 50
197.0967064519999781
 51
271.8858989970000266
  0
ARC
  5
DA
100
AcDbEntity
  8
pulley
 62
256
370
-1
 48
1.0
  6
ByLayer
100
AcDbCircle
 10
-1.2516422967549978
 20
24.40106081299
 30
0.0
 40
0.3048
100
AcDbArc
 50
262.3075139060000538
 51
337.0967064519999781
  0
LINE
  5
DB
100
AcDbEntity
100
AcDbLine
  8
pulley
 62
256
370
-1
 48
1.0
  6
ByLayer
 10
1.9607236998550022
 20
24.431109832849998
 30
0.0
 11
1.742559140415002
 21
24.8294369872899985
 31
0.0
  0
LINE
  5
DC
100
AcDbEntity
100
AcDbLine
  8
pulley
 62
256
370
-1
 48
1.0
  6
ByLayer
 10
1.0521138854350021
 20
24.723665540159999
 30
0.0
 11
0.9631978735760021
 21
24.2782957619199991
 31
0.0
  0
LINE
  5
DD
100
AcDbEntity
100
AcDbLine
  8
pulley
 62
256
370
-1
 48
1.0
  6
ByLayer
 10
1.742559140415002
 20
24.8294369872899985
 30
0.0
 11
1.0521138854350021
 21
24.723665540159999
 31
0.0
  0
ARC
  5
DE
100
AcDbEntity
  8
pulley
 62
256
370
-1
 48
1.0
  6
ByLayer
100
AcDbCircle
 10
0.0165383450450021
 20
33.7900002370199957
 30
0.0
 40
9.7789999999999999
100
AcDbArc
 50
271.8858957709999231
 51
273.9204139060000216
  0
ARC
  5
DF
100
AcDbEntity
  8
pulley
 62
256
370
-1
 48
1.0
  6
ByLayer
100
AcDbCircle
 10
2.2280533042350021
 20
24.5775267779599993
 30
0.0
 40
0.3048
100
AcDbArc
 50
208.7096064520000027
 51
283.4987989969999944
  0
ARC
  5
E0
100
AcDbEntity
  8
pulley
 62
256
370
-1
 48
1.0
  6
ByLayer
100
AcDbCircle
 10
0.6642965145900021
 20
24.3379700316999994
 30
0.0
 40
0.3048
100
AcDbArc
 50
273.9204139060000216
 51
348.7096064520000027
  0
LINE
  5
E1
100
AcDbEntity
100
AcDbLine
  8
pulley
 62
256
370
-1
 48
1.0
  6
ByLayer
 10
3.804856405355002
 20
25.014048290649999
 30
0.0
 11
3.5109750400650022
 21
25.3603054784299999
 31
0.0
  0
LINE
  5
E2
100
AcDbEntity
100
AcDbLine
  8
pulley
 62
256
370
-1
 48
1.0
  6
ByLayer
 10
2.8559548621350022
 20
25.1177136078899998
 30
0.0
 11
2.8585112179450021
 21
24.6635619134300015
 31
0.0
  0
LINE
  5
E3
100
AcDbEntity
100
AcDbLine
  8
pulley
 62
256
370
-1
 48
1.0
  6
ByLayer
 10
3.5109750400650022
 20
25.3603054784299999
 30
0.0
 11
2.8559548621350022
 21
25.1177136078899998
 31
0.0
  0
ARC
  5
E4
100
AcDbEntity
  8
pulley
 62
256
370
-1
 48
1.0
  6
ByLayer
100
AcDbCircle
 10
0.0165383450450021
 20
33.7900002370199957
 30
0.0
 40
9.7789999999999999
100
AcDbArc
 50
283.4987957710000046
 51
285.5333139059999894
  0
ARC
  5
E5
100
AcDbEntity
  8
pulley
 62
256
370
-1
 48
1.0
  6
ByLayer
100
AcDbCircle
 10
4.0372402537750025
 20
25.2112811129499974
 30
0.0
 40
0.3048
100
AcDbArc
 50
220.3225064519999989
 51
295.1116989970000191
  0
ARC
  5
E6
100
AcDbEntity
  8
pulley
 62
256
370
-1
 48
1.0
  6
ByLayer
100
AcDbCircle
 10
2.553716045045002
 20
24.6618462633500002
 30
0.0
 40
0.3048
100
AcDbArc
 50
285.5333139059999894
 51
0.3225064516
  0
LINE
  5
E7
100
AcDbEntity
100
AcDbLine
  8
pulley
 62
256
370
-1
 48
1.0
  6
ByLayer
 10
5.4938950102350024
 20
25.9562750533400006
 30
0.0
 11
5.1363283700550024
 21
26.2362864723599998
 31
0.0
  0
LINE
  5
E8
100
AcDbEntity
100
AcDbLine
  8
pulley
 62
256
370
-1
 48
1.0
  6
ByLayer
 10
4.5435498573750017
 20
25.8668059125899994
 30
0.0
 11
4.6374739233950022
 21
25.4224653153600002
 31
0.0
  0
LINE
  5
E9
100
AcDbEntity
100
AcDbLine
  8
pulley
 62
256
370
-1
 48
1.0
  6
ByLayer
 10
5.1363283700550024
 20
26.2362864723599998
 30
0.0
 11
4.5435498573750017
 21
25.8668059125899994
 31
0.0
  0
ARC
  5
EA
100
AcDbEntity
  8
pulley
 62
256
370
-1
 48
1.0
  6
ByLayer
100
AcDbCircle
 10
0.0165383450450021
 20
33.7900002370199957
 30
0.0
 40
9.7789999999999999
100
AcDbArc
 50
295.1116957709999724
 51
297.1462139060000709
  0
ARC
  5
EB
100
AcDbEntity
  8
pulley
 62
256
370
-1
 48
1.0
  6
ByLayer
100
AcDbCircle
 10
5.6818192858950018
 20
26.1962490223799982
 30
0.0
 40
0.3048
100
AcDbArc
 50
231.9354064519999952
 51
306.7245989969999869
  0
ARC
  5
EC
100
AcDbEntity
  8
pulley
 62
256
370
-1
 48
1.0
  6
ByLayer
100
AcDbCircle
 10
4.3392632798650022
 20
25.3594299842899993
 30
0.0
 40
0.3048
100
AcDbArc
 50
297.1462139060000709
 51
11.9354064516000005
  0
LINE
  5
ED
100
AcDbEntity
100
AcDbLine
  8
pulley
 62
256
370
-1
 48
1.0
  6
ByLayer
 10
6.9586901138350017
 20
27.2192152679099983
 30
0.0
 11
6.5520770109150019
 21
27.4215172241299996
 31
0.0
  0
LINE
  5
EE
100
AcDbEntity
100
AcDbLine
  8
pulley
 62
256
370
-1
 48
1.0
  6
ByLayer
 10
6.0458085719950017
 20
26.9402745442800011
 30
0.0
 11
6.2272550880750019
 21
26.5239363904500003
 31
0.0
  0
LINE
  5
EF
100
AcDbEntity
100
AcDbLine
  8
pulley
 62
256
370
-1
 48
1.0
  6
ByLayer
 10
6.5520770109150019
 20
27.4215172241299996
 30
0.0
 11
6.0458085719950017
 21
26.9402745442800011
 31
0.0
  0
ARC
  5
F0
100
AcDbEntity
  8
pulley
 62
256
370
-1
 48
1.0
  6
ByLayer
100
AcDbCircle
 10
0.0165383450450021
 20
33.7900002370199957
 30
0.0
 40
9.7789999999999999
100
AcDbArc
 50
306.7245957709999402
 51
308.7591139059999819
  0
ARC
  5
F1
100
AcDbEntity
  8
pulley
 62
256
370
-1
 48
1.0
  6
ByLayer
100
AcDbCircle
 10
7.0944611790650018
 20
27.4921058266399996
 30
0.0
 40
0.3048
100
AcDbArc
 50
243.5483064520000198
 51
318.3374989970000115
  0
ARC
  5
F2
100
AcDbEntity
  8
pulley
 62
256
370
-1
 48
1.0
  6
ByLayer
100
AcDbCircle
 10
5.9478377459350025
 20
26.4021620508300003
 30
0.0
 40
0.3048
100
AcDbArc
 50
308.7591139059999819
 51
23.5483064515999985
  0
LINE
  5
F3
100
AcDbEntity
100
AcDbLine
  8
pulley
 62
256
370
-1
 48
1.0
  6
ByLayer
 10
8.1392728657050011
 20
28.7511640422199974
 30
0.0
 11
7.7002600790350018
 21
28.8674742743499984
 31
0.0
  0
LINE
  5
F4
100
AcDbEntity
100
AcDbLine
  8
pulley
 62
256
370
-1
 48
1.0
  6
ByLayer
 10
7.3012283917950018
 20
28.2941715953799999
 30
0.0
 11
7.5627689203350021
 21
27.9228808084600004
 31
0.0
  0
LINE
  5
F5
100
AcDbEntity
100
AcDbLine
  8
pulley
 62
256
370
-1
 48
1.0
  6
ByLayer
 10
7.7002600790350018
 20
28.8674742743499984
 30
0.0
 11
7.3012283917950018
 21
28.2941715953799999
 31
0.0
  0
ARC
  5
F6
100
AcDbEntity
  8
pulley
 62
256
370
-1
 48
1.0
  6
ByLayer
100
AcDbCircle
 10
0.0165383450450021
 20
33.7900002370199957
 30
0.0
 40
9.7789999999999999
100
AcDbArc
 50
318.3374957710000217
 51
320.3720139060000065
  0
ARC
  5
F7
100
AcDbEntity
  8
pulley
 62
256
370
-1
 48
1.0
  6
ByLayer
100
AcDbCircle
 10
8.2173322402250033
 20
29.0457990252899982
 30
0.0
 40
0.3048
100
AcDbArc
 50
255.161206452000016
 51
329.9503989969999793
  0
ARC
  5
F8
100
AcDbEntity
  8
pulley
 62
256
370
-1
 48
1.0
  6
ByLayer
100
AcDbCircle
 10
7.3135842520850023
 20
27.7473529132900012
 30
0.0
 40
0.3048
100
AcDbArc
 50
320.3720139060000065
 51
35.1612064516000018
  0
LINE
  5
F9
100
AcDbEntity
100
AcDbLine
  8
pulley
 62
256
370
-1
 48
1.0
  6
ByLayer
 10
8.9873100960350012
 20
30.4894032481599986
 30
0.0
 11
8.533870850735001
 21
30.5149600042899998
 31
0.0
  0
LINE
  5
FA
100
AcDbEntity
100
AcDbLine
  8
pulley
 62
256
370
-1
 48
1.0
  6
ByLayer
 10
8.2584123102750038
 20
29.8730683922299995
 30
0.0
 11
8.5893393572550014
 21
29.5620256522399991
 31
0.0
  0
LINE
  5
FB
100
AcDbEntity
100
AcDbLine
  8
pulley
 62
256
370
-1
 48
1.0
  6
ByLayer
 10
8.533870850735001
 20
30.5149600042899998
 30
0.0
 11
8.2584123102750038
 21
29.8730683922299995
 31
0.0
  0
ARC
  5
FC
100
AcDbEntity
  8
pulley
 62
256
370
-1
 48
1.0
  6
ByLayer
100
AcDbCircle
 10
0.0165383450450021
 20
33.7900002370199957
 30
0.0
 40
9.7789999999999999
100
AcDbArc
 50
329.9503957709999895
 51
331.9849139059999743
  0
ARC
  5
FD
100
AcDbEntity
  8
pulley
 62
256
370
-1
 48
1.0
  6
ByLayer
100
AcDbCircle
 10
9.0044620216450024
 20
30.7937202714199998
 30
0.0
 40
0.3048
100
AcDbArc
 50
266.7741064520000123
 51
341.563298997000004
  0
ARC
  5
FE
100
AcDbEntity
  8
pulley
 62
256
370
-1
 48
1.0
  6
ByLayer
100
AcDbCircle
 10
8.3805890068250033
 20
29.3399303301900005
 30
0.0
 40
0.3048
100
AcDbArc
 50
331.9849139059999743
 51
46.774106451599998
  0
LINE
  5
FF
100
AcDbEntity
100
AcDbLine
  8
pulley
 62
256
370
-1
 48
1.0
  6
ByLayer
 10
9.4680830801950027
 20
32.3627692078200013
 30
0.0
 11
9.0187812219650016
 21
32.2965261919200017
 31
0.0
  0
LINE
  5
100
100
AcDbEntity
100
AcDbLine
  8
pulley
 62
256
370
-1
 48
1.0
  6
ByLayer
 10
8.8781731270550015
 20
31.6123247502399991
 30
0.0
 11
9.2649385077850024
 21
31.3742641764499979
 31
0.0
  0
LINE
  5
101
100
AcDbEntity
100
AcDbLine
  8
pulley
 62
256
370
-1
 48
1.0
  6
ByLayer
 10
9.0187812219650016
 20
32.2965261919200017
 30
0.0
 11
8.8781731270550015
 21
31.6123247502399991
 31
0.0
  0
ARC
  5
102
100
AcDbEntity
  8
pulley
 62
256
370
-1
 48
1.0
  6
ByLayer
100
AcDbCircle
 10
0.0165383450450021
 20
33.7900002370199957
 30
0.0
 40
9.7789999999999999
100
AcDbArc
 50
341.5632957710000142
 51
343.597813905999999
  0
ARC
  5
103
100
AcDbEntity
  8
pulley
 62
256
370
-1
 48
1.0
  6
ByLayer
100
AcDbCircle
 10
9.4236253554350018
 20
32.6643095034799984
 30
0.0
 40
0.3048
100
AcDbArc
 50
278.3870064519999801
 51
353.1761989969999718
  0
ARC
  5
104
100
AcDbEntity
  8
pulley
 62
256
370
-1
 48
1.0
  6
ByLayer
100
AcDbCircle
 10
9.1051687343250034
 20
31.1146940310799991
 30
0.0
 40
0.3048
100
AcDbArc
 50
343.597813905999999
 51
58.3870064516000085
  0
LINE
  5
105
100
AcDbEntity
100
AcDbLine
  8
pulley
 62
256
370
-1
 48
1.0
  6
ByLayer
 10
9.5619089266150024
 20
34.294566141160999
 30
0.0
 11
9.1351389161550021
 21
34.1392353485760012
 31
0.0
  0
LINE
  5
106
100
AcDbEntity
100
AcDbLine
  8
pulley
 62
256
370
-1
 48
1.0
  6
ByLayer
 10
9.1351377755250009
 20
33.4407353491899997
 30
0.0
 11
9.5619072786450037
 21
33.285403164058998
 31
0.0
  0
LINE
  5
107
100
AcDbEntity
100
AcDbLine
  8
pulley
 62
256
370
-1
 48
1.0
  6
ByLayer
 10
9.1351389161550021
 20
34.1392353485760012
 30
0.0
 11
9.1351377755250009
 21
33.4407353491899997
 31
0.0
  0
ARC
  5
108
100
AcDbEntity
  8
pulley
 62
256
370
-1
 48
1.0
  6
ByLayer
100
AcDbCircle
 10
0.0165383450450021
 20
33.7900002370199957
 30
0.0
 40
9.7789999999999999
100
AcDbArc
 50
353.176195770999982
 51
355.2107139060000236
  0
ARC
  5
109
100
AcDbEntity
  8
pulley
 62
256
370
-1
 48
1.0
  6
ByLayer
100
AcDbCircle
 10
9.4576616549550021
 20
34.5809846209229974
 30
0.0
 40
0.3048
100
AcDbArc
 50
289.9999064520000047
 51
4.7890989971
  0
ARC
  5
10A
100
AcDbEntity
  8
pulley
 62
256
370
-1
 48
1.0
  6
ByLayer
100
AcDbCircle
 10
9.4576590718250007
 20
32.9989850217350025
 30
0.0
 40
0.3048
100
AcDbArc
 50
355.2107139060000236
 51
69.9999064515999976
  0
LINE
  5
10B
100
AcDbEntity
100
AcDbLine
  8
pulley
 62
256
370
-1
 48
1.0
  6
ByLayer
 10
9.2649463962650014
 20
36.2057060985399985
 30
0.0
 11
8.8781802382550037
 21
35.9676467866500005
 31
0.0
  0
LINE
  5
10C
100
AcDbEntity
100
AcDbLine
  8
pulley
 62
256
370
-1
 48
1.0
  6
ByLayer
 10
9.0187860986050037
 20
35.283444885759998
 30
0.0
 11
9.4680877401850037
 21
35.2172004036900006
 31
0.0
  0
LINE
  5
10D
100
AcDbEntity
100
AcDbLine
  8
pulley
 62
256
370
-1
 48
1.0
  6
ByLayer
 10
8.8781802382550037
 20
35.9676467866500005
 30
0.0
 11
9.0187860986050037
 21
35.283444885759998
 31
0.0
  0
ARC
  5
10E
100
AcDbEntity
  8
pulley
 62
256
370
-1
 48
1.0
  6
ByLayer
100
AcDbCircle
 10
0.0165383450450021
 20
33.7900002370199957
 30
0.0
 40
9.7789999999999999
100
AcDbArc
 50
4.7890957713000004
 51
6.8236139061000003
  0
ARC
  5
10F
100
AcDbEntity
  8
pulley
 62
256
370
-1
 48
1.0
  6
ByLayer
100
AcDbCircle
 10
9.1051774708850015
 20
36.4652767626799985
 30
0.0
 40
0.3048
100
AcDbArc
 50
301.6128064519999725
 51
16.4019989971000015
  0
ARC
  5
110
100
AcDbEntity
  8
pulley
 62
256
370
-1
 48
1.0
  6
ByLayer
100
AcDbCircle
 10
9.4236290314850013
 20
34.9156602503099975
 30
0.0
 40
0.3048
100
AcDbArc
 50
6.8236139061000003
 51
81.6128064515999796
  0
LINE
  5
111
100
AcDbEntity
100
AcDbLine
  8
pulley
 62
256
370
-1
 48
1.0
  6
ByLayer
 10
-0.1308563649549979
 20
36.5904997270200028
 30
0.0
 11
0.1639330550450021
 21
36.5904997270200028
 31
0.0
  0
LINE
  5
112
100
AcDbEntity
100
AcDbLine
  8
pulley
 62
256
370
-1
 48
1.0
  6
ByLayer
 10
-0.3103396740789979
 20
36.3775061928400021
 30
0.0
 11
-0.1308563649549979
 21
36.5904997270200028
 31
0.0
  0
LINE
  5
113
100
AcDbEntity
100
AcDbLine
  8
pulley
 62
256
370
-1
 48
1.0
  6
ByLayer
 10
-0.822681591273998
 20
36.4658613119799995
 30
0.0
 11
-0.5371535229829979
 21
36.5391724595800014
 31
0.0
  0
LINE
  5
114
100
AcDbEntity
100
AcDbLine
  8
pulley
 62
256
370
-1
 48
1.0
  6
ByLayer
 10
-0.943556764211998
 20
36.2149236774500025
 30
0.0
 11
-0.822681591273998
 21
36.4658613119799995
 31
0.0
  0
LINE
  5
115
100
AcDbEntity
100
AcDbLine
  8
pulley
 62
256
370
-1
 48
1.0
  6
ByLayer
 10
-1.4617755425549979
 20
36.1730887044800014
 30
0.0
 11
-1.2034496046049978
 21
36.3151045906500016
 31
0.0
  0
LINE
  5
116
100
AcDbEntity
100
AcDbLine
  8
pulley
 62
256
370
-1
 48
1.0
  6
ByLayer
 10
-1.5164475476449979
 20
35.8999743040600023
 30
0.0
 11
-1.4617755425549979
 21
36.1730887044800014
 31
0.0
  0
LINE
  5
117
100
AcDbEntity
100
AcDbLine
  8
pulley
 62
256
370
-1
 48
1.0
  6
ByLayer
 10
-2.0079815954249978
 20
35.7305778841800006
 30
0.0
 11
-1.7930893565549979
 21
35.9323751284999986
 31
0.0
  0
LINE
  5
118
100
AcDbEntity
100
AcDbLine
  8
pulley
 62
256
370
-1
 48
1.0
  6
ByLayer
 10
-1.9930151895149981
 20
35.4524475000900026
 30
0.0
 11
-2.0079815954249978
 21
35.7305778841800006
 31
0.0
  0
LINE
  5
119
100
AcDbEntity
100
AcDbLine
  8
pulley
 62
256
370
-1
 48
1.0
  6
ByLayer
 10
-2.4269796147749978
 20
35.1661334333600024
 30
0.0
 11
-2.2690235446549978
 21
35.4150323728099963
 31
0.0
  0
LINE
  5
11A
100
AcDbEntity
100
AcDbLine
  8
pulley
 62
256
370
-1
 48
1.0
  6
ByLayer
 10
-2.3433151921949977
 20
34.9004630205400019
 30
0.0
 11
-2.4269796147749978
 21
35.1661334333600024
 31
0.0
  0
LINE
  5
11B
100
AcDbEntity
100
AcDbLine
  8
pulley
 62
256
370
-1
 48
1.0
  6
ByLayer
 10
-2.6924424140749981
 20
34.5152214727550017
 30
0.0
 11
-2.601347473524998
 21
34.7955828715800024
 31
0.0
  0
LINE
  5
11C
100
AcDbEntity
100
AcDbLine
  8
pulley
 62
256
370
-1
 48
1.0
  6
ByLayer
 10
-2.5453369181849981
 20
34.2787040802920018
 30
0.0
 11
-2.6924424140749981
 21
34.5152214727550017
 31
0.0
  0
LINE
  5
11D
100
AcDbEntity
100
AcDbLine
  8
pulley
 62
256
370
-1
 48
1.0
  6
ByLayer
 10
-2.7876899893449978
 20
33.8187411947296965
 30
0.0
 11
-2.769180008504998
 21
34.1129489151479959
 31
0.0
  0
LINE
  5
11E
100
AcDbEntity
100
AcDbLine
  8
pulley
 62
256
370
-1
 48
1.0
  6
ByLayer
 10
-2.5863865994749977
 20
33.6262380802499976
 30
0.0
 11
-2.7876899893449978
 21
33.8187411947296965
 31
0.0
  0
LINE
  5
11F
100
AcDbEntity
100
AcDbLine
  8
pulley
 62
256
370
-1
 48
1.0
  6
ByLayer
 10
-2.7067375851349977
 20
33.1204550166290019
 30
0.0
 11
-2.761975614174998
 21
33.4100229055449987
 31
0.0
  0
LINE
  5
120
100
AcDbEntity
100
AcDbLine
  8
pulley
 62
256
370
-1
 48
1.0
  6
ByLayer
 10
-2.4638849336049979
 20
32.9840618587919963
 30
0.0
 11
-2.7067375851349977
 21
33.1204550166290019
 31
0.0
  0
LINE
  5
121
100
AcDbEntity
100
AcDbLine
  8
pulley
 62
256
370
-1
 48
1.0
  6
ByLayer
 10
-2.4546717387249979
 20
32.4642388271400009
 30
0.0
 11
-2.5801869691249979
 21
32.7309722691399969
 31
0.0
  0
LINE
  5
122
100
AcDbEntity
100
AcDbLine
  8
pulley
 62
256
370
-1
 48
1.0
  6
ByLayer
 10
-2.1855291507849981
 20
32.3925257096699966
 30
0.0
 11
-2.4546717387249979
 21
32.4642388271400009
 31
0.0
  0
LINE
  5
123
100
AcDbEntity
100
AcDbLine
  8
pulley
 62
256
370
-1
 48
1.0
  6
ByLayer
 10
-2.0473306742749982
 20
31.8913251028399998
 30
0.0
 11
-2.2352365225049979
 21
32.1184642547899983
 31
0.0
  0
LINE
  5
124
100
AcDbEntity
100
AcDbLine
  8
pulley
 62
256
370
-1
 48
1.0
  6
ByLayer
 10
-1.7688093685649979
 20
31.888798024659998
 30
0.0
 11
-2.0473306742749982
 21
31.8913251028399998
 31
0.0
  0
LINE
  5
125
100
AcDbEntity
100
AcDbLine
  8
pulley
 62
256
370
-1
 48
1.0
  6
ByLayer
 10
-1.5103091289549979
 20
31.4377121200699996
 30
0.0
 11
-1.748798779504998
 21
31.6109849936799989
 31
0.0
  0
LINE
  5
126
100
AcDbEntity
100
AcDbLine
  8
pulley
 62
256
370
-1
 48
1.0
  6
ByLayer
 10
-1.239909623444998
 20
31.5045298667800004
 30
0.0
 11
-1.5103091289549979
 21
31.4377121200699996
 31
0.0
  0
LINE
  5
127
100
AcDbEntity
100
AcDbLine
  8
pulley
 62
256
370
-1
 48
1.0
  6
ByLayer
 10
-0.8773501415029979
 20
31.1319020507899999
 30
0.0
 11
-1.1514384125049979
 21
31.2404212741599991
 31
0.0
  0
LINE
  5
128
100
AcDbEntity
100
AcDbLine
  8
pulley
 62
256
370
-1
 48
1.0
  6
ByLayer
 10
-0.6320626315739979
 20
31.2638662176299995
 30
0.0
 11
-0.8773501415029979
 21
31.1319020507899999
 31
0.0
  0
LINE
  5
129
100
AcDbEntity
100
AcDbLine
  8
pulley
 62
256
370
-1
 48
1.0
  6
ByLayer
 10
-0.1882248529449979
 20
30.993110066349999
 30
0.0
 11
-0.480689770318998
 21
31.0300569775799993
 31
0.0
  0
LINE
  5
12A
100
AcDbEntity
100
AcDbLine
  8
pulley
 62
256
370
-1
 48
1.0
  6
ByLayer
 10
0.0165383450450021
 20
31.1819288593999993
 30
0.0
 11
-0.1882248529449979
 21
30.993110066349999
 31
0.0
  0
LINE
  5
12B
100
AcDbEntity
100
AcDbLine
  8
pulley
 62
256
370
-1
 48
1.0
  6
ByLayer
 10
0.5137664604090021
 20
31.0300569775799993
 30
0.0
 11
0.2213015430350021
 21
30.993110066349999
 31
0.0
  0
LINE
  5
12C
100
AcDbEntity
100
AcDbLine
  8
pulley
 62
256
370
-1
 48
1.0
  6
ByLayer
 10
0.665139321664002
 20
31.2638662176299995
 30
0.0
 11
0.5137664604090021
 21
31.0300569775799993
 31
0.0
  0
LINE
  5
12D
100
AcDbEntity
100
AcDbLine
  8
pulley
 62
256
370
-1
 48
1.0
  6
ByLayer
 10
1.184515102595002
 20
31.2404212741599991
 30
0.0
 11
0.9104268315930021
 21
31.1319020507899999
 31
0.0
  0
LINE
  5
12E
100
AcDbEntity
100
AcDbLine
  8
pulley
 62
256
370
-1
 48
1.0
  6
ByLayer
 10
1.2729863135350021
 20
31.5045298667800004
 30
0.0
 11
1.184515102595002
 21
31.2404212741599991
 31
0.0
  0
LINE
  5
12F
100
AcDbEntity
100
AcDbLine
  8
pulley
 62
256
370
-1
 48
1.0
  6
ByLayer
 10
1.7818754695950021
 20
31.6109849936799989
 30
0.0
 11
1.543385819045002
 21
31.4377121200699996
 31
0.0
  0
LINE
  5
130
100
AcDbEntity
100
AcDbLine
  8
pulley
 62
256
370
-1
 48
1.0
  6
ByLayer
 10
1.8018860586550021
 20
31.888798024659998
 30
0.0
 11
1.7818754695950021
 21
31.6109849936799989
 31
0.0
  0
LINE
  5
131
100
AcDbEntity
100
AcDbLine
  8
pulley
 62
256
370
-1
 48
1.0
  6
ByLayer
 10
2.2683132125950021
 20
32.1184642547899983
 30
0.0
 11
2.0804073643650023
 21
31.8913251028399998
 31
0.0
  0
LINE
  5
132
100
AcDbEntity
100
AcDbLine
  8
pulley
 62
256
370
-1
 48
1.0
  6
ByLayer
 10
2.2186058408750022
 20
32.3925257096699966
 30
0.0
 11
2.2683132125950021
 21
32.1184642547899983
 31
0.0
  0
LINE
  5
133
100
AcDbEntity
100
AcDbLine
  8
pulley
 62
256
370
-1
 48
1.0
  6
ByLayer
 10
2.613263659215002
 20
32.7309722691399969
 30
0.0
 11
2.487748428815002
 21
32.4642388271400009
 31
0.0
  0
LINE
  5
134
100
AcDbEntity
100
AcDbLine
  8
pulley
 62
256
370
-1
 48
1.0
  6
ByLayer
 10
2.4969616236950021
 20
32.9840618587919963
 30
0.0
 11
2.613263659215002
 21
32.7309722691399969
 31
0.0
  0
LINE
  5
135
100
AcDbEntity
100
AcDbLine
  8
pulley
 62
256
370
-1
 48
1.0
  6
ByLayer
 10
2.7950523042650022
 20
33.4100229055449987
 30
0.0
 11
2.7398142752250019
 21
33.1204550166290019
 31
0.0
  0
LINE
  5
136
100
AcDbEntity
100
AcDbLine
  8
pulley
 62
256
370
-1
 48
1.0
  6
ByLayer
 10
2.6194632895650019
 20
33.6262380802499976
 30
0.0
 11
2.7950523042650022
 21
33.4100229055449987
 31
0.0
  0
LINE
  5
137
100
AcDbEntity
100
AcDbLine
  8
pulley
 62
256
370
-1
 48
1.0
  6
ByLayer
 10
2.8022566985950021
 20
34.1129489151479959
 30
0.0
 11
2.8207666794350019
 21
33.8187411947296965
 31
0.0
  0
LINE
  5
138
100
AcDbEntity
100
AcDbLine
  8
pulley
 62
256
370
-1
 48
1.0
  6
ByLayer
 10
2.5784136082750022
 20
34.2787040802920018
 30
0.0
 11
2.8022566985950021
 21
34.1129489151479959
 31
0.0
  0
LINE
  5
139
100
AcDbEntity
100
AcDbLine
  8
pulley
 62
256
370
-1
 48
1.0
  6
ByLayer
 10
2.6344241636150021
 20
34.7955828715800024
 30
0.0
 11
2.7255191041650022
 21
34.5152214727550017
 31
0.0
  0
LINE
  5
13A
100
AcDbEntity
100
AcDbLine
  8
pulley
 62
256
370
-1
 48
1.0
  6
ByLayer
 10
2.3763918822850019
 20
34.9004630205400019
 30
0.0
 11
2.6344241636150021
 21
34.7955828715800024
 31
0.0
  0
LINE
  5
13B
100
AcDbEntity
100
AcDbLine
  8
pulley
 62
256
370
-1
 48
1.0
  6
ByLayer
 10
2.3021002347450019
 20
35.4150323728099963
 30
0.0
 11
2.4600563048650019
 21
35.1661334333600024
 31
0.0
  0
LINE
  5
13C
100
AcDbEntity
100
AcDbLine
  8
pulley
 62
256
370
-1
 48
1.0
  6
ByLayer
 10
2.0260918796050023
 20
35.4524475000900026
 30
0.0
 11
2.3021002347450019
 21
35.4150323728099963
 31
0.0
  0
LINE
  5
13D
100
AcDbEntity
100
AcDbLine
  8
pulley
 62
256
370
-1
 48
1.0
  6
ByLayer
 10
1.826166046645002
 20
35.9323751284999986
 30
0.0
 11
2.0410582855150019
 21
35.7305778841800006
 31
0.0
  0
LINE
  5
13E
100
AcDbEntity
100
AcDbLine
  8
pulley
 62
256
370
-1
 48
1.0
  6
ByLayer
 10
1.549524237735002
 20
35.8999743040600023
 30
0.0
 11
1.826166046645002
 21
35.9323751284999986
 31
0.0
  0
LINE
  5
13F
100
AcDbEntity
100
AcDbLine
  8
pulley
 62
256
370
-1
 48
1.0
  6
ByLayer
 10
1.236526294695002
 20
36.3151045906500016
 30
0.0
 11
1.494852232645002
 21
36.1730887044800014
 31
0.0
  0
LINE
  5
140
100
AcDbEntity
100
AcDbLine
  8
pulley
 62
256
370
-1
 48
1.0
  6
ByLayer
 10
0.9766334543020021
 20
36.2149236774500025
 30
0.0
 11
1.236526294695002
 21
36.3151045906500016
 31
0.0
  0
LINE
  5
141
100
AcDbEntity
100
AcDbLine
  8
pulley
 62
256
370
-1
 48
1.0
  6
ByLayer
 10
0.570230213073002
 20
36.5391724595800014
 30
0.0
 11
0.8557582813640021
 21
36.4658613119799995
 31
0.0
  0
LINE
  5
142
100
AcDbEntity
100
AcDbLine
  8
pulley
 62
256
370
-1
 48
1.0
  6
ByLayer
 10
0.3434163641690021
 20
36.3775061928400021
 30
0.0
 11
0.570230213073002
 21
36.5391724595800014
 31
0.0
  0
LINE
  5
143
100
AcDbEntity
100
AcDbLine
  8
pulley
 62
256
370
-1
 48
1.0
  6
ByLayer
 10
0.3434163641690021
 20
36.3775061928400021
 30
0.0
 11
0.1639330550450021
 21
36.5904997270200028
 31
0.0
  0
LINE
  5
144
100
AcDbEntity
100
AcDbLine
  8
pulley
 62
256
370
-1
 48
1.0
  6
ByLayer
 10
-0.3103396740789979
 20
36.3775061928400021
 30
0.0
 11
-0.5371535229829979
 21
36.5391724595800014
 31
0.0
  0
LINE
  5
145
100
AcDbEntity
100
AcDbLine
  8
pulley
 62
256
370
-1
 48
1.0
  6
ByLayer
 10
-0.943556764211998
 20
36.2149236774500025
 30
0.0
 11
-1.2034496046049978
 21
36.3151045906500016
 31
0.0
  0
LINE
  5
146
100
AcDbEntity
100
AcDbLine
  8
pulley
 62
256
370
-1
 48
1.0
  6
ByLayer
 10
-1.5164475476449979
 20
35.8999743040600023
 30
0.0
 11
-1.7930893565549979
 21
35.9323751284999986
 31
0.0
  0
LINE
  5
147
100
AcDbEntity
100
AcDbLine
  8
pulley
 62
256
370
-1
 48
1.0
  6
ByLayer
 10
-1.9930151895149981
 20
35.4524475000900026
 30
0.0
 11
-2.2690235446549978
 21
35.4150323728099963
 31
0.0
  0
LINE
  5
148
100
AcDbEntity
100
AcDbLine
  8
pulley
 62
256
370
-1
 48
1.0
  6
ByLayer
 10
-2.3433151921949977
 20
34.9004630205400019
 30
0.0
 11
-2.601347473524998
 21
34.7955828715800024
 31
0.0
  0
LINE
  5
149
100
AcDbEntity
100
AcDbLine
  8
pulley
 62
256
370
-1
 48
1.0
  6
ByLayer
 10
-2.5453369181849981
 20
34.2787040802920018
 30
0.0
 11
-2.769180008504998
 21
34.1129489151479959
 31
0.0
  0
LINE
  5
14A
100
AcDbEntity
100
AcDbLine
  8
pulley
 62
256
370
-1
 48
1.0
  6
ByLayer
 10
-2.5863865994749977
 20
33.6262380802499976
 30
0.0
 11
-2.761975614174998
 21
33.4100229055449987
 31
0.0
  0
LINE
  5
14B
100
AcDbEntity
100
AcDbLine
  8
pulley
 62
256
370
-1
 48
1.0
  6
ByLayer
 10
-2.4638849336049979
 20
32.9840618587919963
 30
0.0
 11
-2.5801869691249979
 21
32.7309722691399969
 31
0.0
  0
LINE
  5
14C
100
AcDbEntity
100
AcDbLine
  8
pulley
 62
256
370
-1
 48
1.0
  6
ByLayer
 10
-2.1855291507849981
 20
32.3925257096699966
 30
0.0
 11
-2.2352365225049979
 21
32.1184642547899983
 31
0.0
  0
LINE
  5
14D
100
AcDbEntity
100
AcDbLine
  8
pulley
 62
256
370
-1
 48
1.0
  6
ByLayer
 10
-1.7688093685649979
 20
31.888798024659998
 30
0.0
 11
-1.748798779504998
 21
31.6109849936799989
 31
0.0
  0
LINE
  5
14E
100
AcDbEntity
100
AcDbLine
  8
pulley
 62
256
370
-1
 48
1.0
  6
ByLayer
 10
-1.239909623444998
 20
31.5045298667800004
 30
0.0
 11
-1.1514384125049979
 21
31.2404212741599991
 31
0.0
  0
LINE
  5
14F
100
AcDbEntity
100
AcDbLine
  8
pulley
 62
256
370
-1
 48
1.0
  6
ByLayer
 10
-0.6320626315739979
 20
31.2638662176299995
 30
0.0
 11
-0.480689770318998
 21
31.0300569775799993
 31
0.0
  0
LINE
  5
150
100
AcDbEntity
100
AcDbLine
  8
pulley
 62
256
370
-1
 48
1.0
  6
ByLayer
 10
0.0165383450450021
 20
31.1819288593999993
 30
0.0
 11
0.2213015430350021
 21
30.993110066349999
 31
0.0
  0
LINE
  5
151
100
AcDbEntity
100
AcDbLine
  8
pulley
 62
256
370
-1
 48
1.0
  6
ByLayer
 10
0.665139321664002
 20
31.2638662176299995
 30
0.0
 11
0.9104268315930021
 21
31.1319020507899999
 31
0.0
  0
LINE
  5
152
100
AcDbEntity
100
AcDbLine
  8
pulley
 62
256
370
-1
 48
1.0
  6
ByLayer
 10
1.2729863135350021
 20
31.5045298667800004
 30
0.0
 11
1.543385819045002
 21
31.4377121200699996
 31
0.0
  0
LINE
  5
153
100
AcDbEntity
100
AcDbLine
  8
pulley
 62
256
370
-1
 48
1.0
  6
ByLayer
 10
1.8018860586550021
 20
31.888798024659998
 30
0.0
 11
2.0804073643650023
 21
31.8913251028399998
 31
0.0
  0
LINE
  5
154
100
AcDbEntity
100
AcDbLine
  8
pulley
 62
256
370
-1
 48
1.0
  6
ByLayer
 10
2.2186058408750022
 20
32.3925257096699966
 30
0.0
 11
2.487748428815002
 21
32.4642388271400009
 31
0.0
  0
LINE
  5
155
100
AcDbEntity
100
AcDbLine
  8
pulley
 62
256
370
-1
 48
1.0
  6
ByLayer
 10
2.4969616236950021
 20
32.9840618587919963
 30
0.0
 11
2.7398142752250019
 21
33.1204550166290019
 31
0.0
  0
LINE
  5
156
100
AcDbEntity
100
AcDbLine
  8
pulley
 62
256
370
-1
 48
1.0
  6
ByLayer
 10
2.6194632895650019
 20
33.6262380802499976
 30
0.0
 11
2.8207666794350019
 21
33.8187411947296965
 31
0.0
  0
LINE
  5
157
100
AcDbEntity
100
AcDbLine
  8
pulley
 62
256
370
-1
 48
1.0
  6
ByLayer
 10
2.5784136082750022
 20
34.2787040802920018
 30
0.0
 11
2.7255191041650022
 21
34.5152214727550017
 31
0.0
  0
LINE
  5
158
100
AcDbEntity
100
AcDbLine
  8
pulley
 62
256
370
-1
 48
1.0
  6
ByLayer
 10
2.3763918822850019
 20
34.9004630205400019
 30
0.0
 11
2.4600563048650019
 21
35.1661334333600024
 31
0.0
  0
LINE
  5
159
100
AcDbEntity
100
AcDbLine
  8
pulley
 62
256
370
-1
 48
1.0
  6
ByLayer
 10
2.0260918796050023
 20
35.4524475000900026
 30
0.0
 11
2.0410582855150019
 21
35.7305778841800006
 31
0.0
  0
LINE
  5
15A
100
AcDbEntity
100
AcDbLine
  8
pulley
 62
256
370
-1
 48
1.0
  6
ByLayer
 10
1.549524237735002
 20
35.8999743040600023
 30
0.0
 11
1.494852232645002
 21
36.1730887044800014
 31
0.0
  0
LINE
  5
15B
100
AcDbEntity
100
AcDbLine
  8
pulley
 62
256
370
-1
 48
1.0
  6
ByLayer
 10
0.9766334543020021
 20
36.2149236774500025
 30
0.0
 11
0.8557582813640021
 21
36.4658613119799995
 31
0.0
  0
CIRCLE
  5
15C
100
AcDbEntity
100
AcDbCircle
  8
rollers
 62
256
370
-1
 48
1.0
  6
ByLayer
 10
12.1600000000000001
 20
42.9683766619925294
 30
0.0
 40
3.0
  0
CIRCLE
  5
15D
100
AcDbEntity
100
AcDbCircle
  8
rollers
 62
256
370
-1
 48
1.0
  6
ByLayer
 10
12.1600000000000001
 20
42.9683766619925294
 30
0.0
 40
1.0
  0
CIRCLE
  5
15E
100
AcDbEntity
100
AcDbCircle
  8
rollers
 62
256
370
-1
 48
1.0
  6
ByLayer
 10
12.1599999999999966
 20
24.6116233380074689
 30
0.0
 40
3.0
  0
CIRCLE
  5
15F
100
AcDbEntity
100
AcDbCircle
  8
rollers
 62
256
370
-1
 48
1.0
  6
ByLayer
 10
12.1599999999999966
 20
24.6116233380074689
 30
0.0
 40
1.0
  0
CIRCLE
  5
160
100
AcDbEntity
100
AcDbCircle
  8
rollers
 62
256
370
-1
 48
1.0
  6
ByLayer
 10
-12.1600000000000001
 20
42.9683766619925294
 30
0.0
 40
3.0
  0
CIRCLE
  5
161
100
AcDbEntity
100
AcDbCircle
  8
rollers
 62
256
370
-1
 48
1.0
  6
ByLayer
 10
-12.1600000000000001
 20
42.9683766619925294
 30
0.0
 40
1.0
  0
CIRCLE
  5
162
100
AcDbEntity
100
AcDbCircle
  8
rollers
 62
256
370
-1
 48
1.0
  6
ByLayer
 10
-12.159999999999993
 20
24.6116233380074689
 30
0.0
 40
3.0
  0
CIRCLE
  5
163
100
AcDbEntity
100
AcDbCircle
  8
rollers
 62
256
370
-1
 48
1.0
  6
ByLayer
 10
-12.159999999999993
 20
24.6116233380074689
 30
0.0
 40
1.0
  0
LINE
  5
164
100
AcDbEntity
100
AcDbLine
  8
side
 62
256
370
-1
 48
1.0
  6
ByLayer
 10
-20.0000000000000071
 20
16.2800233380074673
 30
0.0
 11
-20.0
 21
51.2999999999999972
 31
0.0
  0
LINE
  5
165
100
AcDbEntity
100
AcDbLine
  8
rollers
 62
256
370
-1
 48
1.0
  6
ByLayer
 10
-30.0
 20
39.968376661992508
 30
0.0
 11
-35.0
 21
39.968376661992508
 31
0.0
  0
LINE
  5
166
100
AcDbEntity
100
AcDbLine
  8
rollers
 62
256
370
-1
 48
1.0
  6
ByLayer
 10
-30.0000000000000071
 20
45.968376661992508
 30
0.0
 11
-35.0
 21
45.968376661992508
 31
0.0
  0
LINE
  5
167
100
AcDbEntity
100
AcDbLine
  8
rollers
 62
256
370
-1
 48
1.0
  6
ByLayer
 10
-35.0
 20
39.968376661992508
 30
0.0
 11
-35.0
 21
45.968376661992508
 31
0.0
  0
LINE
  5
168
100
AcDbEntity
100
AcDbLine
  8
rollers
 62
256
370
-1
 48
1.0
  6
ByLayer
 10
-30.0000000000000071
 20
45.968376661992508
 30
0.0
 11
-30.0
 21
39.968376661992508
 31
0.0
  0
LINE
  5
169
100
AcDbEntity
100
AcDbLine
  8
rollers
 62
256
370
-1
 48
1.0
  6
ByLayer
 10
-30.0000000000000142
 20
21.6116233380074618
 30
0.0
 11
-35.0
 21
21.6116233380074654
 31
0.0
  0
LINE
  5
16A
100
AcDbEntity
100
AcDbLine
  8
rollers
 62
256
370
-1
 48
1.0
  6
ByLayer
 10
-30.0000000000000036
 20
27.6116233380074583
 30
0.0
 11
-35.0
 21
27.6116233380074547
 31
0.0
  0
LINE
  5
16B
100
AcDbEntity
100
AcDbLine
  8
rollers
 62
256
370
-1
 48
1.0
  6
ByLayer
 10
-35.0
 20
21.6116233380074654
 30
0.0
 11
-35.0
 21
27.6116233380074547
 31
0.0
  0
LINE
  5
16C
100
AcDbEntity
100
AcDbLine
  8
rollers
 62
256
370
-1
 48
1.0
  6
ByLayer
 10
-30.0000000000000036
 20
27.6116233380074583
 30
0.0
 11
-30.0000000000000142
 21
21.6116233380074618
 31
0.0
  0
LINE
  5
16D
100
AcDbEntity
100
AcDbLine
  8
rollers
 62
256
370
-1
 48
1.0
  6
ByLayer
 10
-35.0000000000000071
 20
23.6116233380074583
 30
0.0
 11
-30.0000000000000036
 21
23.6116233380074618
 31
0.0
  0
LINE
  5
16E
100
AcDbEntity
100
AcDbLine
  8
rollers
 62
256
370
-1
 48
1.0
  6
ByLayer
 10
-35.0000000000000213
 20
25.6116233380074618
 30
0.0
 11
-29.9999999999999929
 21
25.6116233380074547
 31
0.0
  0
LINE
  5
16F
100
AcDbEntity
100
AcDbLine
  8
rollers
 62
256
370
-1
 48
1.0
  6
ByLayer
 10
-35.0
 20
41.968376661992508
 30
0.0
 11
-30.0
 21
41.968376661992508
 31
0.0
  0
LINE
  5
170
100
AcDbEntity
100
AcDbLine
  8
rollers
 62
256
370
-1
 48
1.0
  6
ByLayer
 10
-35.0
 20
43.968376661992508
 30
0.0
 11
-30.0
 21
43.968376661992508
 31
0.0
  0
LINE
  5
171
100
AcDbEntity
100
AcDbLine
  8
side
 62
256
370
-1
 48
1.0
  6
ByLayer
 10
-29.7000000000000099
 20
46.968376661992508
 30
0.0
 11
-29.699999999999978
 21
20.6116233380074547
 31
0.0
  0
LINE
  5
172
100
AcDbEntity
100
AcDbLine
  8
side
 62
256
370
-1
 48
1.0
  6
ByLayer
 10
-29.699999999999978
 20
20.6116233380074547
 30
0.0
 11
-35.3000000000000043
 21
20.6116233380074583
 31
0.0
  0
LINE
  5
173
100
AcDbEntity
100
AcDbLine
  8
side
 62
256
370
-1
 48
1.0
  6
ByLayer
 10
-29.7000000000000099
 20
46.968376661992508
 30
0.0
 11
-35.3000000000000114
 21
46.968376661992508
 31
0.0
  0
CIRCLE
  5
174
100
AcDbEntity
100
AcDbCircle
  8
rods
 62
256
370
-1
 48
1.0
  6
ByLayer
 10
-25.0000000000000071
 20
33.7899999999999849
 30
0.0
 40
2.5
  0
CIRCLE
  5
175
100
AcDbEntity
100
AcDbCircle
  8
rods
 62
256
370
-1
 48
1.0
  6
ByLayer
 10
-40.0000000000000142
 20
33.7899999999999849
 30
0.0
 40
2.5
  0
LINE
  5
176
100
AcDbEntity
100
AcDbLine
  8
side
 62
256
370
-1
 48
1.0
  6
ByLayer
 10
-35.3000000000000043
 20
20.6116233380074583
 30
0.0
 11
-35.3000000000000114
 21
46.968376661992508
 31
0.0
  0
LINE
  5
177
100
AcDbEntity
100
AcDbLine
  8
side
 62
256
370
-1
 48
1.0
  6
ByLayer
 10
-35.3000000000000114
 20
51.2999999999999972
 30
0.0
 11
-20.0
 21
51.2999999999999972
 31
0.0
  0
LINE
  5
178
100
AcDbEntity
100
AcDbLine
  8
side
 62
256
370
-1
 48
1.0
  6
ByLayer
 10
-20.0000000000000071
 20
16.2800233380074602
 30
0.0
 11
-35.3000000000000256
 21
16.2800233380074673
 31
0.0
  0
ARC
  5
179
100
AcDbEntity
  8
side
 62
256
370
-1
 48
1.0
  6
ByLayer
100
AcDbCircle
 10
-24.3458921983768626
 20
33.7900116690037251
 30
0.0
 40
20.6541078016264485
100
AcDbArc
 50
122.0297660580422701
 51
237.9702339419577584
  0
CIRCLE
  5
17A
100
AcDbEntity
100
AcDbCircle
  8
rods
 62
256
370
-1
 48
1.0
  6
ByLayer
 10
40.0000000000000142
 20
33.789999999999992
 30
0.0
 40
2.5
  0
LINE
  5
17B
100
AcDbEntity
100
AcDbLine
  8
side
 62
256
370
-1
 48
1.0
  6
ByLayer
 10
35.3000000000000043
 20
20.6116233380074618
 30
0.0
 11
35.3000000000000185
 21
46.9683766619924867
 31
0.0
  0
LINE
  5
17C
100
AcDbEntity
100
AcDbLine
  8
side
 62
256
370
-1
 48
1.0
  6
ByLayer
 10
20.0000000000000071
 20
16.2800233380074673
 30
0.0
 11
20.0000000000000071
 21
51.2999999999999829
 31
0.0
  0
LINE
  5
17D
100
AcDbEntity
100
AcDbLine
  8
side
 62
256
370
-1
 48
1.0
  6
ByLayer
 10
35.3000000000000185
 20
51.2999999999999829
 30
0.0
 11
20.0000000000000071
 21
51.2999999999999829
 31
0.0
  0
LINE
  5
17E
100
AcDbEntity
100
AcDbLine
  8
side
 62
256
370
-1
 48
1.0
  6
ByLayer
 10
20.0000000000000142
 20
16.2800233380074637
 30
0.0
 11
35.3000000000000256
 21
16.2800233380074708
 31
0.0
  0
ARC
  5
17F
100
AcDbEntity
  8
side
 62
256
370
-1
 48
1.0
  6
ByLayer
100
AcDbCircle
 10
24.3458921983768661
 20
33.7900116655730187
 30
0.0
 40
20.6541078016264485
100
AcDbArc
 50
302.0297660580422416
 51
57.9702339419577299
  0
LINE
  5
180
100
AcDbEntity
100
AcDbLine
  8
rollers
 62
256
370
-1
 48
1.0
  6
ByLayer
 10
30.0
 20
39.968376661992508
 30
0.0
 11
35.0
 21
39.9683766619924725
 31
0.0
  0
LINE
  5
181
100
AcDbEntity
100
AcDbLine
  8
rollers
 62
256
370
-1
 48
1.0
  6
ByLayer
 10
30.0000000000000142
 20
45.968376661992508
 30
0.0
 11
35.0
 21
45.968376661992508
 31
0.0
  0
LINE
  5
182
100
AcDbEntity
100
AcDbLine
  8
rollers
 62
256
370
-1
 48
1.0
  6
ByLayer
 10
35.0
 20
39.9683766619924725
 30
0.0
 11
35.0
 21
45.968376661992508
 31
0.0
  0
LINE
  5
183
100
AcDbEntity
100
AcDbLine
  8
rollers
 62
256
370
-1
 48
1.0
  6
ByLayer
 10
30.0000000000000142
 20
45.968376661992508
 30
0.0
 11
30.0
 21
39.968376661992508
 31
0.0
  0
LINE
  5
184
100
AcDbEntity
100
AcDbLine
  8
rollers
 62
256
370
-1
 48
1.0
  6
ByLayer
 10
30.0000000000000071
 20
21.6116233380074405
 30
0.0
 11
35.0
 21
21.6116233380074725
 31
0.0
  0
LINE
  5
185
100
AcDbEntity
100
AcDbLine
  8
rollers
 62
256
370
-1
 48
1.0
  6
ByLayer
 10
30.0000000000000071
 20
27.6116233380074476
 30
0.0
 11
35.0
 21
27.6116233380074725
 31
0.0
  0
LINE
  5
186
100
AcDbEntity
100
AcDbLine
  8
rollers
 62
256
370
-1
 48
1.0
  6
ByLayer
 10
35.0
 20
21.6116233380074725
 30
0.0
 11
35.0
 21
27.6116233380074725
 31
0.0
  0
LINE
  5
187
100
AcDbEntity
100
AcDbLine
  8
rollers
 62
256
370
-1
 48
1.0
  6
ByLayer
 10
30.0000000000000071
 20
27.6116233380074476
 30
0.0
 11
30.0000000000000071
 21
21.6116233380074405
 31
0.0
  0
LINE
  5
188
100
AcDbEntity
100
AcDbLine
  8
rollers
 62
256
370
-1
 48
1.0
  6
ByLayer
 10
35.0
 20
23.6116233380074405
 30
0.0
 11
30.0000000000000071
 21
23.6116233380074689
 31
0.0
  0
LINE
  5
189
100
AcDbEntity
100
AcDbLine
  8
rollers
 62
256
370
-1
 48
1.0
  6
ByLayer
 10
35.0000000000000142
 20
25.6116233380074441
 30
0.0
 11
30.0
 21
25.611623338007476
 31
0.0
  0
LINE
  5
18A
100
AcDbEntity
100
AcDbLine
  8
rollers
 62
256
370
-1
 48
1.0
  6
ByLayer
 10
35.0000000000000071
 20
41.9683766619924654
 30
0.0
 11
30.0
 21
41.968376661992508
 31
0.0
  0
LINE
  5
18B
100
AcDbEntity
100
AcDbLine
  8
rollers
 62
256
370
-1
 48
1.0
  6
ByLayer
 10
35.0000000000000071
 20
43.9683766619924725
 30
0.0
 11
30.0
 21
43.968376661992508
 31
0.0
  0
LINE
  5
18C
100
AcDbEntity
100
AcDbLine
  8
side
 62
256
370
-1
 48
1.0
  6
ByLayer
 10
29.7000000000000171
 20
46.9683766619925152
 30
0.0
 11
29.6999999999999815
 21
20.6116233380074476
 31
0.0
  0
LINE
  5
18D
100
AcDbEntity
100
AcDbLine
  8
side
 62
256
370
-1
 48
1.0
  6
ByLayer
 10
29.6999999999999815
 20
20.6116233380074476
 30
0.0
 11
35.3000000000000043
 21
20.6116233380074618
 31
0.0
  0
LINE
  5
18E
100
AcDbEntity
100
AcDbLine
  8
side
 62
256
370
-1
 48
1.0
  6
ByLayer
 10
29.7000000000000171
 20
46.9683766619925152
 30
0.0
 11
35.3000000000000185
 21
46.9683766619924867
 31
0.0
  0
CIRCLE
  5
18F
100
AcDbEntity
100
AcDbCircle
  8
rods
 62
256
370
-1
 48
1.0
  6
ByLayer
 10
25.0000000000000071
 20
33.789999999999992
 30
0.0
 40
2.5
  0
LINE
  5
190
100
AcDbEntity
100
AcDbLine
  8
base
 62
256
370
-1
 48
1.0
  6
ByLayer
 10
13.9100000000000001
 20
51.3000000000000114
 30
0.0
 11
13.9100000000000001
 21
-4.039999999999992
 31
0.0
  0
LINE
  5
191
100
AcDbEntity
100
AcDbLine
  8
base
 62
256
370
-1
 48
1.0
  6
ByLayer
 10
-13.9100000000000001
 20
51.3000000000000114
 30
0.0
 11
-13.9100000000000001
 21
-4.039999999999992
 31
0.0
  0
ENDSEC
  0
SECTION
  2
OBJECTS
  0
DICTIONARY
  5
C
100
AcDbDictionary
280
0
281
1
  3
ACAD_GROUP
350
D
  3
ACAD_LAYOUT
350
1A
  3
ACAD_MLINESTYLE
350
17
  3
ACAD_PLOTSETTINGS
350
19
  3
ACAD_PLOTSTYLENAME
350
E
  3
AcDbVariableDictionary
350
192
  3
QCAD_OBJECTS
350
193
  0
DICTIONARY
  5
D
100
AcDbDictionary
280
0
281
1
  0
ACDBDICTIONARYWDFLT
  5
E
100
AcDbDictionary
281
1
  3
Normal
350
F
100
AcDbDictionaryWithDefault
340
F
  0
ACDBPLACEHOLDER
  5
F
  0
DICTIONARY
  5
17
100
AcDbDictionary
280
0
281
1
  3
Standard
350
18
  0
MLINESTYLE
  5
18
100
AcDbMlineStyle
  2
STANDARD
 70
0
  3

 62
256
 51
90.0
 52
90.0
 71
2
 49
0.5
 62
256
  6
BYLAYER
 49
-0.5
 62
256
  6
BYLAYER
  0
DICTIONARY
  5
19
100
AcDbDictionary
280
0
281
1
  0
DICTIONARY
  5
1A
100
AcDbDictionary
281
1
  3
Layout1
350
1E
  3
Layout2
350
26
  3
Model
350
22
  0
LAYOUT
  5
1E
100
AcDbPlotSettings
  1

  2
none_device
  4

  6

 40
0.0
 41
0.0
 42
0.0
 43
0.0
 44
0.0
 45
0.0
 46
0.0
 47
0.0
 48
0.0
 49
0.0
140
0.0
141
0.0
142
1.0
143
1.0
 70
688
 72
0
 73
0
 74
5
  7

 75
16
147
1.0
148
0.0
149
0.0
100
AcDbLayout
  1
Layout1
 70
1
 71
1
 10
0.0
 20
0.0
 11
420.0
 21
297.0
 12
0.0
 22
0.0
 32
0.0
 14
100000000000000000000.0
 24
100000000000000000000.0
 34
100000000000000000000.0
 15
-100000000000000000000.0
 25
-100000000000000000000.0
 35
-100000000000000000000.0
146
0.0
 13
0.0
 23
0.0
 33
0.0
 16
1.0
 26
0.0
 36
0.0
 17
0.0
 27
1.0
 37
0.0
 76
0
330
1B
  0
LAYOUT
  5
22
100
AcDbPlotSettings
  1

  2
none_device
  4

  6

 40
0.0
 41
0.0
 42
0.0
 43
0.0
 44
0.0
 45
0.0
 46
0.0
 47
0.0
 48
0.0
 49
0.0
140
0.0
141
0.0
142
1.0
143
1.0
 70
1712
 72
0
 73
0
 74
0
  7

 75
0
147
1.0
148
0.0
149
0.0
100
AcDbLayout
  1
Model
 70
1
 71
0
 10
0.0
 20
0.0
 11
12.0
 21
9.0
 12
0.0
 22
0.0
 32
0.0
 14
0.0
 24
0.0
 34
0.0
 15
0.0
 25
0.0
 35
0.0
146
0.0
 13
0.0
 23
0.0
 33
0.0
 16
1.0
 26
0.0
 36
0.0
 17
0.0
 27
1.0
 37
0.0
 76
0
330
1F
  0
LAYOUT
  5
26
100
AcDbPlotSettings
  1

  2
none_device
  4

  6

 40
0.0
 41
0.0
 42
0.0
 43
0.0
 44
0.0
 45
0.0
 46
0.0
 47
0.0
 48
0.0
 49
0.0
140
0.0
141
0.0
142
1.0
143
1.0
 70
688
 72
0
 73
0
 74
5
  7

 75
16
147
1.0
148
0.0
149
0.0
100
AcDbLayout
  1
Layout2
 70
1
 71
2
 10
0.0
 20
0.0
 11
12.0
 21
9.0
 12
0.0
 22
0.0
 32
0.0
 14
0.0
 24
0.0
 34
0.0
 15
0.0
 25
0.0
 35
0.0
146
0.0
 13
0.0
 23
0.0
 33
0.0
 16
1.0
 26
0.0
 36
0.0
 17
0.0
 27
1.0
 37
0.0
 76
0
330
23
  0
DICTIONARY
  5
192
100
AcDbDictionary
281
1
  3
DIMASSOC
350
195
  3
HIDETEXT
350
194
  0
DICTIONARYVAR
  5
194
100
DictionaryVariables
280
0
  1
2
  0
DICTIONARYVAR
  5
195
100
DictionaryVariables
280
0
  1
1
  0
DICTIONARY
  5
193
100
AcDbDictionary
281
1
  3
Grid/DisplayGrid00
350
196
  3
Grid/DisplayGrid01
350
197
  3
Grid/DisplayGrid02
350
198
  3
Grid/DisplayGrid03
350
199
  3
Grid/GridSpacingX00
350
19A
  3
Grid/GridSpacingX01
350
19B
  3
Grid/GridSpacingX02
350
19C
  3
Grid/GridSpacingX03
350
19D
  3
Grid/GridSpacingY00
350
19E
  3
Grid/GridSpacingY01
350
19F
  3
Grid/GridSpacingY02
350
1A0
  3
Grid/GridSpacingY03
350
1A1
  3
Grid/IsometricGrid00
350
1A2
  3
Grid/IsometricGrid01
350
1A3
  3
Grid/IsometricGrid02
350
1A4
  3
Grid/IsometricGrid03
350
1A5
  3
Grid/IsometricProjection00
350
1A6
  3
Grid/IsometricProjection01
350
1A7
  3
Grid/IsometricProjection02
350
1A8
  3
Grid/IsometricProjection03
350
1A9
  3
Grid/MetaGridSpacingX00
350
1AA
  3
Grid/MetaGridSpacingX01
350
1AB
  3
Grid/MetaGridSpacingX02
350
1AC
  3
Grid/MetaGridSpacingX03
350
1AD
  3
Grid/MetaGridSpacingY00
350
1AE
  3
Grid/MetaGridSpacingY01
350
1AF
  3
Grid/MetaGridSpacingY02
350
1B0
  3
Grid/MetaGridSpacingY03
350
1B1
  3
MultiPageSettings/Columns
350
1B2
  3
MultiPageSettings/GlueMarginsBottom
350
1B3
  3
MultiPageSettings/GlueMarginsLeft
350
1B4
  3
MultiPageSettings/GlueMarginsRight
350
1B5
  3
MultiPageSettings/GlueMarginsTop
350
1B6
  3
MultiPageSettings/PrintCropMarks
350
1B7
  3
MultiPageSettings/Rows
350
1B8
  3
PageSettings/OffsetX
350
1B9
  3
PageSettings/OffsetY
350
1BA
  3
PageSettings/PageOrientation
350
1BB
  3
PageSettings/PaperHeight
350
1BC
  3
PageSettings/PaperWidth
350
1BD
  3
PageSettings/Scale
350
1BE
  3
PageSettings/ShowPaperBorders
350
1BF
  3
UnitSettings/PaperUnit
350
1C0
  0
XRECORD
  5
196
330
193
100
AcDbXrecord
280
1
290
1
  0
XRECORD
  5
197
330
193
100
AcDbXrecord
280
1
290
1
  0
XRECORD
  5
198
330
193
100
AcDbXrecord
280
1
290
1
  0
XRECORD
  5
199
330
193
100
AcDbXrecord
280
1
290
1
  0
XRECORD
  5
19A
330
193
100
AcDbXrecord
280
1
1000
auto
  0
XRECORD
  5
19B
330
193
100
AcDbXrecord
280
1
1000
auto
  0
XRECORD
  5
19C
330
193
100
AcDbXrecord
280
1
1000
auto
  0
XRECORD
  5
19D
330
193
100
AcDbXrecord
280
1
1000
auto
  0
XRECORD
  5
19E
330
193
100
AcDbXrecord
280
1
1000
auto
  0
XRECORD
  5
19F
330
193
100
AcDbXrecord
280
1
1000
auto
  0
XRECORD
  5
1A0
330
193
100
AcDbXrecord
280
1
1000
auto
  0
XRECORD
  5
1A1
330
193
100
AcDbXrecord
280
1
1000
auto
  0
XRECORD
  5
1A2
330
193
100
AcDbXrecord
280
1
290
0
  0
XRECORD
  5
1A3
330
193
100
AcDbXrecord
280
1
290
0
  0
XRECORD
  5
1A4
330
193
100
AcDbXrecord
280
1
290
0
  0
XRECORD
  5
1A5
330
193
100
AcDbXrecord
280
1
290
0
  0
XRECORD
  5
1A6
330
193
100
AcDbXrecord
280
1
 90
0
  0
XRECORD
  5
1A7
330
193
100
AcDbXrecord
280
1
 90
0
  0
XRECORD
  5
1A8
330
193
100
AcDbXrecord
280
1
 90
0
  0
XRECORD
  5
1A9
330
193
100
AcDbXrecord
280
1
 90
0
  0
XRECORD
  5
1AA
330
193
100
AcDbXrecord
280
1
1000
auto
  0
XRECORD
  5
1AB
330
193
100
AcDbXrecord
280
1
1000
auto
  0
XRECORD
  5
1AC
330
193
100
AcDbXrecord
280
1
1000
auto
  0
XRECORD
  5
1AD
330
193
100
AcDbXrecord
280
1
1000
auto
  0
XRECORD
  5
1AE
330
193
100
AcDbXrecord
280
1
1000
auto
  0
XRECORD
  5
1AF
330
193
100
AcDbXrecord
280
1
1000
auto
  0
XRECORD
  5
1B0
330
193
100
AcDbXrecord
280
1
1000
auto
  0
XRECORD
  5
1B1
330
193
100
AcDbXrecord
280
1
1000
auto
  0
XRECORD
  5
1B2
330
193
100
AcDbXrecord
280
1
 90
1
  0
XRECORD
  5
1B3
330
193
100
AcDbXrecord
280
1
 40
10.0
  0
XRECORD
  5
1B4
330
193
100
AcDbXrecord
280
1
 40
10.0
  0
XRECORD
  5
1B5
330
193
100
AcDbXrecord
280
1
 40
10.0
  0
XRECORD
  5
1B6
330
193
100
AcDbXrecord
280
1
 40
10.0
  0
XRECORD
  5
1B7
330
193
100
AcDbXrecord
280
1
290
0
  0
XRECORD
  5
1B8
330
193
100
AcDbXrecord
280
1
 90
1
  0
XRECORD
  5
1B9
330
193
100
AcDbXrecord
280
1
 40
0.0
  0
XRECORD
  5
1BA
330
193
100
AcDbXrecord
280
1
 40
0.0
  0
XRECORD
  5
1BB
330
193
100
AcDbXrecord
280
1
1000
Portrait
  0
XRECORD
  5
1BC
330
193
100
AcDbXrecord
280
1
 40
297.0
  0
XRECORD
  5
1BD
330
193
100
AcDbXrecord
280
1
 40
210.0
  0
XRECORD
  5
1BE
330
193
100
AcDbXrecord
280
1
1000
1:1
  0
XRECORD
  5
1BF
330
193
100
AcDbXrecord
280
1
290
1
  0
XRECORD
  5
1C0
330
193
100
AcDbXrecord
280
1
 90
4
  0
ENDSEC
  0
EOF
